<svg version="1.1" width="211.66666mm" height="211.66666mm" viewBox="0 0 211.66666 211.66666" xmlns="http://www.w3.org/2000/svg" xmlns:xlink="http://www.w3.org/1999/xlink"><path d="M0 211.66666H211.66666V0H0z" fill="#1e1e1e"/><path d="M105.83333 25.833332L43.286813 55.954148L27.839099 123.63501L71.122633 177.91084H140.54403L183.82756 123.63501L168.37985 55.954148z" style="fill:#1e1e1e;stroke:#37ffff;stroke-width:.5;stroke-miterlimit:8"/><path d="M170.30467 72.175475L119.71578 34.442282L58.673126 50.468006L33.14307 108.18495L62.350263 164.13108L124.30109 176.17781L172.34532 135.25372z" style="fill:#1e1e1e;stroke:#37ffff;stroke-width:.5;stroke-miterlimit:8"/><path d="M160.08251 143.6296L169.20745 86.985209L130.61039 44.533836L73.355702 48.242234L40.557327 95.317903L56.913115 150.3119L110.10682 171.81263z" style="fill:#1e1e1e;stroke:#37ffff;stroke-width:.5;stroke-miterlimit:8"/><path d="M98.197518 165.45406L147.68584 148.97617L165.65837 100.01084L138.58143 55.429968L86.844499 48.803858L49.406549 85.122104L54.459118 137.03633z" style="fill:#1e1e1e;stroke:#37ffff;stroke-width:.5;stroke-miterlimit:8"/><path d="M54.57292 124.76352L88.673202 157.71311L135.69541 151.59618L160.23087 111.01888L143.80387 66.536765L98.784281 51.645763L59.072773 77.559105z" style="fill:#1e1e1e;stroke:#37ffff;stroke-width:.5;stroke-miterlimit:8"/><path d="M69.011208 72.48736L56.804182 113.83115L81.517106 149.15243L124.54064 151.85354L153.47719 119.90049L146.53694 77.354592L108.94604 56.253763z" style="fill:#1e1e1e;stroke:#37ffff;stroke-width:.5;stroke-miterlimit:8"/><path d="M117.21465 62.129264L78.760252 69.686017L60.692434 104.46244L76.616633 140.27117L114.5416 150.14751L145.90907 126.65437L147.09868 87.482565z" style="fill:#1e1e1e;stroke:#37ffff;stroke-width:.5;stroke-miterlimit:8"/><path d="M145.84246 96.618127L123.57388 68.807348L87.946302 68.87789L65.788023 96.776634L73.784679 131.49526L105.91462 146.88993L137.98335 131.36814z" style="fill:#1e1e1e;stroke:#37ffff;stroke-width:.5;stroke-miterlimit:8"/><path d="M130.09256 134.19931L143.13612 104.5526L128.08993 75.870311L96.284059 69.750788L71.668988 90.802156L72.780366 123.17231L98.781301 142.48586z" style="fill:#1e1e1e;stroke:#37ffff;stroke-width:.5;stroke-miterlimit:8"/><path d="M93.179849 137.31787L122.55961 135.35651L139.34415 111.1636L130.89435 82.956888L103.5731 71.976607L77.953846 86.49113L73.328415 115.57073z" style="fill:#1e1e1e;stroke:#37ffff;stroke-width:.5;stroke-miterlimit:8"/><path d="M75.136594 108.88227L89.077984 131.73399L115.63649 135.08199L134.81302 116.40515L132.16725 89.767519L109.69151 75.227773L84.310474 83.734637z" style="fill:#1e1e1e;stroke:#37ffff;stroke-width:.5;stroke-miterlimit:8"/><path d="M90.461389 82.377845L77.910844 103.22734L86.386502 126.03921L109.50602 133.63563L129.85993 120.29636L132.12132 96.066132L114.58732 79.190806z" style="fill:#1e1e1e;stroke:#37ffff;stroke-width:.5;stroke-miterlimit:8"/><path d="M118.26858 83.576943L96.185837 82.234431L81.367854 98.662373L84.972874 120.49019L104.28625 131.2811L124.7646 122.90932L130.98733 101.67897z" style="fill:#1e1e1e;stroke:#37ffff;stroke-width:.5;stroke-miterlimit:8"/><path d="M129.00137 106.49102L120.79256 88.129891L101.31915 83.099818L85.245011 95.188545L84.674294 115.29301L100.03676 128.27415L119.76417 124.35689z" style="fill:#1e1e1e;stroke:#37ffff;stroke-width:.5;stroke-miterlimit:8"/><path d="M115.05064 124.78096L126.39408 110.4406L122.25486 92.630876L105.74989 84.762866L89.307755 92.761346L85.309713 110.6033L96.766375 124.85337z" style="fill:#1e1e1e;stroke:#37ffff;stroke-width:.5;stroke-miterlimit:8"/><path d="M94.441529 121.23319L110.77076 124.34146L123.382 113.51273L122.77874 96.901255L109.41524 87.015819L93.354493 91.300354L86.690563 106.52852z" style="fill:#1e1e1e;stroke:#37ffff;stroke-width:.5;stroke-miterlimit:8"/><path d="M88.629916 103.13185L92.995075 117.59916L107.0277 123.20656L120.16095 115.73156L122.5052 100.803L112.2952 89.662378L97.21928 90.698815z" style="fill:#1e1e1e;stroke:#37ffff;stroke-width:.5;stroke-miterlimit:8"/><path d="M100.77256 90.832667L90.949998 100.43724L92.334893 114.10519L103.88439 121.54425L116.90148 117.15268L121.58403 104.2374L114.40598 92.523896z" style="fill:#1e1e1e;stroke:#37ffff;stroke-width:.5;stroke-miterlimit:8"/><path d="M115.79306 95.443767L103.92023 91.568717L93.488008 98.435213L92.352066 110.87264L101.36779 119.51537L113.74616 117.85524L120.16601 107.14237z" style="fill:#1e1e1e;stroke:#37ffff;stroke-width:.5;stroke-miterlimit:8"/><path d="M118.39648 109.48866L116.52418 98.290125L106.60145 92.771777L96.100311 97.089047L92.928336 107.99094L99.474086 117.26811L110.80848 117.93466z" style="fill:#1e1e1e;stroke:#37ffff;stroke-width:.5;stroke-miterlimit:8"/><path d="M108.17314 117.49575L116.41023 111.2754L116.6827 100.95705L108.78537 94.310648L98.665101 96.341059L93.942655 105.51935L98.174132 114.93407z" style="fill:#1e1e1e;stroke:#37ffff;stroke-width:.5;stroke-miterlimit:8"/><path d="M97.419096 112.62562L105.89756 116.64677L114.32766 112.52518L116.36136 103.36449L110.46723 96.062894L101.08369 96.118633L95.276719 103.48974z" style="fill:#1e1e1e;stroke:#37ffff;stroke-width:.5;stroke-miterlimit:8"/><path d="M96.819422 101.91004L97.145899 110.43456L104.01419 115.49426L112.25233 113.27908L115.65684 105.45711L111.66404 97.918433L103.2806 96.339841z" style="fill:#1e1e1e;stroke:#37ffff;stroke-width:.5;stroke-miterlimit:8"/><path d="M105.20272 96.918477L98.470236 100.76804L97.282316 108.43188L102.53349 114.13895L110.26951 113.59173L114.665 107.20227L112.41006 99.781977z" style="fill:#1e1e1e;stroke:#37ffff;stroke-width:.5;stroke-miterlimit:8"/><path d="M112.75243 101.57444L106.81758 97.76839L100.14158 100.03541L97.75158 106.66838L101.44731 112.67254L108.4458 113.52664L113.47705 108.58752z" style="fill:#1e1e1e;stroke:#37ffff;stroke-width:.5;stroke-miterlimit:8"/><path d="M112.17656 109.61756L112.7469 103.23342L108.11118 98.807071L101.76019 99.671639L98.476366 105.17609L100.73248 111.17545L106.82964 113.15209z" style="fill:#1e1e1e;stroke:#37ffff;stroke-width:.5;stroke-miterlimit:8"/><path d="M105.4524 112.5374L110.83728 110.31107L112.45408 104.71292L109.08533 99.958456L103.26775 99.627896L99.382115 103.97016L100.35437 109.71543z" style="fill:#1e1e1e;stroke:#37ffff;stroke-width:.5;stroke-miterlimit:8"/><path d="M100.27031 108.3469L104.33003 111.74986L109.52177 110.69755L111.93603 105.98239L109.75484 101.15498L104.62067 99.850468L100.39966 103.05117z" style="fill:#1e1e1e;stroke:#37ffff;stroke-width:.5;stroke-miterlimit:8"/><path d="M101.46718 102.40766L100.43278 107.11106L103.46511 110.8523L108.28076 110.81416L111.25345 107.02535L110.14468 102.33893L105.78938 100.28386z" style="fill:#1e1e1e;stroke:#37ffff;stroke-width:.5;stroke-miterlimit:8"/><path d="M106.75711 100.87342L102.53149 102.01864L100.79222 106.0364L102.84901 109.90124L107.15306 110.70287L110.46332 107.83763L110.28711 103.46312z" style="fill:#1e1e1e;stroke:#37ffff;stroke-width:.5;stroke-miterlimit:8"/><path d="M110.21914 104.49105L107.5184 101.56747L103.54877 101.85617L101.29946 105.13976L102.46425 108.94562L106.16603 110.40786L109.61727 108.42539z" style="fill:#1e1e1e;stroke:#37ffff;stroke-width:.5;stroke-miterlimit:8"/><path d="M108.76028 108.80309L109.9801 105.39657L108.07732 102.31894L104.48478 101.88772L101.90772 104.42763L102.28673 108.02606L105.3364 109.97332z" style="fill:#1e1e1e;stroke:#37ffff;stroke-width:.5;stroke-miterlimit:8"/><path d="M104.67146 109.44158L107.92996 108.99142L109.60965 106.16316L108.4457 103.08653L105.31458 102.0783L102.57409 103.89769L102.28788 107.17465z" style="fill:#1e1e1e;stroke:#37ffff;stroke-width:.5;stroke-miterlimit:8"/></svg>