<?xml version="1.0" encoding="UTF-8"?>
<svg xmlns="http://www.w3.org/2000/svg" width="1080" height="1080" viewBox="0 0 1080 1080">
<path d="M0 0L1080 0L1080 1080L0 1080Z" fill="#000000"/>
<path d="M847.085 998.781L1080 1012.711L1080 1080L921.403 1080L846.617 999.217Z" fill="#020419" stroke="#000000" stroke-width="0.05"/>
<path d="M78.647 826.184L99.511 832.723L221.512 908.09L190.125 925.903L124.494 950.429L17.59 868.423Z" fill="#c71851" stroke="#000000" stroke-width="0.05"/>
<path d="M632.052 455.792L669.245 444.58L747.303 545.101L744.865 571.337L669.453 586.461L586.183 498.738Z" fill="#3e1a43" stroke="#000000" stroke-width="0.05"/>
<path d="M876.601 0L912.32 117.773L822.765 131.021L793.177 79.954L781.887 0Z" fill="#781e59" stroke="#000000" stroke-width="0.05"/>
<path d="M965.761 792.74L1080 915.06L1080 969.678L894.494 904.37L866.601 839.718Z" fill="#ce1c4e" stroke="#000000" stroke-width="0.05"/>
<path d="M246.582 687.158L338.336 750.095L374.964 830.986L281.263 865.724L243.144 824.63L200.21 752.809Z" fill="#a5195a" stroke="#000000" stroke-width="0.05"/>
<path d="M1080 0L1080 30.087L921.735 121.483L912.32 117.773L876.601 0Z" fill="#781e59" stroke="#000000" stroke-width="0.05"/>
<path d="M0 621.543L122.851 745.574L78.647 826.184L17.59 868.423L0 870.071Z" fill="#701f57" stroke="#000000" stroke-width="0.05"/>
<path d="M124.494 950.429L190.125 925.903L187.607 1059.807L123.855 963.251Z" fill="#9c1a5b" stroke="#000000" stroke-width="0.05"/>
<path d="M300.471 0L301.032 41.067L244.767 61.549L226.152 7.275L225.231 0Z" fill="#f48058" stroke="#000000" stroke-width="0.05"/>
<path d="M526.998 182.683L561.517 176.622L602.938 265.581L549.525 323.328L528.459 325.367L525.339 321.285Z" fill="#671f55" stroke="#000000" stroke-width="0.05"/>
<path d="M756.1 193.573L822.765 131.021L912.32 117.773L921.735 121.483L954.638 232.276L864.593 305.937L734.554 233.214Z" fill="#9c1a5b" stroke="#000000" stroke-width="0.05"/>
<path d="M388.172 0L385.786 56.02L331.141 58.905L301.032 41.067L300.471 0Z" fill="#020419" stroke="#000000" stroke-width="0.05"/>
<path d="M510.408 536.017L472.76 624.402L432.496 634.292L392.404 550.521Z" fill="#170f29" stroke="#000000" stroke-width="0.05"/>
<path d="M258.102 285.666L308.202 281.768L426.707 393.148L400.91 430.958L307.041 477.167L280.354 468.334L258.309 423.379L244.842 342.376Z" fill="#f69269" stroke="#000000" stroke-width="0.05"/>
<path d="M690.359 64.306L793.177 79.954L822.765 131.021L756.1 193.573L690.319 64.402Z" fill="#931c5b" stroke="#000000" stroke-width="0.05"/>
<path d="M954.638 232.276L1080 289.353L1080 376.319L878.732 394.438L870.891 383.228L864.593 305.937Z" fill="#2e1739" stroke="#000000" stroke-width="0.05"/>
<path d="M767.31 455.632L796.28 392.877L870.891 383.228L878.732 394.438L878.381 452.307L762.053 527.59Z" fill="#e63b3f" stroke="#000000" stroke-width="0.05"/>
<path d="M796.28 392.877L767.31 455.632L706.256 366.528Z" fill="#f69b71" stroke="#000000" stroke-width="0.05"/>
<path d="M342.765 515.385L392.404 550.521L432.496 634.292L420.394 646.336L354.537 649.372L337.93 637.077L336.351 512.379Z" fill="#1f122e" stroke="#000000" stroke-width="0.05"/>
<path d="M542.403 0L692.622 0L690.359 64.306L690.319 64.402L608.147 118.837L538.176 25.491Z" fill="#36193e" stroke="#000000" stroke-width="0.05"/>
<path d="M281.263 865.724L374.964 830.986L407.692 835.182L440.09 969.293L407.038 997.546L332.955 1011.799L268.483 945.349L260.122 899.107Z" fill="#781e59" stroke="#000000" stroke-width="0.05"/>
<path d="M331.141 58.905L385.786 56.02L417.825 91.194L398.52 133.24L336.515 146.243L310.332 111.03Z" fill="#781e59" stroke="#000000" stroke-width="0.05"/>
<path d="M243.144 824.63L281.263 865.724L260.122 899.107L221.512 908.09L99.511 832.723Z" fill="#f9dcc6" stroke="#000000" stroke-width="0.05"/>
<path d="M602.938 265.581L731.259 235.089L702.373 364.775L688.179 376.704L577.832 343.421L549.525 323.328Z" fill="#ea443e" stroke="#000000" stroke-width="0.05"/>
<path d="M109.056 60.438L116.698 52.16L139.934 65.056L176.152 91.413L176.19 94.056L114.332 206.292L73.988 177.815L46.39 143.564Z" fill="#9c1a5b" stroke="#000000" stroke-width="0.05"/>
<path d="M190.125 925.903L221.512 908.09L260.122 899.107L268.483 945.349L208.12 1080L197.209 1080L187.607 1059.807Z" fill="#f05940" stroke="#000000" stroke-width="0.05"/>
<path d="M878.732 394.438L1080 376.319L1080 444.811L1016.708 505.491L985.294 500.939L879.658 453.832L878.381 452.307Z" fill="#f9dcc6" stroke="#000000" stroke-width="0.05"/>
<path d="M429.927 736.882L526.249 670.893L583.039 695.979L600.443 755.25L554.786 812.186L411.165 833.075Z" fill="#100b23" stroke="#000000" stroke-width="0.05"/>
<path d="M426.707 393.148L442.728 382.88L502.45 366.625L520.718 435.73L520.194 457.801L425.882 448.264L400.91 430.958Z" fill="#461c47" stroke="#000000" stroke-width="0.05"/>
<path d="M226.152 7.275L244.767 61.549L237.605 74.82L176.152 91.413L139.934 65.056Z" fill="#c71851" stroke="#000000" stroke-width="0.05"/>
<path d="M758.276 930.818L779.02 927.623L827.367 1005.89L816.199 1017.557L734.908 995.192Z" fill="#f05940" stroke="#000000" stroke-width="0.05"/>
<path d="M388.172 0L542.403 0L538.176 25.491L469.55 84.693L417.825 91.194L385.786 56.02Z" fill="#dc2a46" stroke="#000000" stroke-width="0.05"/>
<path d="M758.276 930.818L734.908 995.192L706.631 996.091L688.193 916.665Z" fill="#f8d4bb" stroke="#000000" stroke-width="0.05"/>
<path d="M184.755 580.93L192.075 579.794L246.811 653.548L246.582 687.158L200.21 752.809L130.31 743.581Z" fill="#c71851" stroke="#000000" stroke-width="0.05"/>
<path d="M42.387 1080L123.855 963.251L187.607 1059.807L197.209 1080Z" fill="#f7b48e" stroke="#000000" stroke-width="0.05"/>
<path d="M354.537 649.372L420.394 646.336L429.927 736.882L411.165 833.075L407.692 835.182L374.964 830.986L338.336 750.095Z" fill="#e13242" stroke="#000000" stroke-width="0.05"/>
<path d="M895.446 565.194L985.294 500.939L1016.708 505.491L1006.852 604.185L988.799 628.247L882.585 631.89Z" fill="#8a1d5b" stroke="#000000" stroke-width="0.05"/>
<path d="M641.205 1080L706.631 996.091L734.908 995.192L816.199 1017.557L797.81 1080Z" fill="#f69269" stroke="#000000" stroke-width="0.05"/>
<path d="M168.058 355.675L244.842 342.376L258.309 423.379L93.958 457.177L76.316 415.178Z" fill="#5f1e52" stroke="#000000" stroke-width="0.05"/>
<path d="M985.294 500.939L895.446 565.194L879.658 453.832Z" fill="#170f29" stroke="#000000" stroke-width="0.05"/>
<path d="M336.515 146.243L398.52 133.24L420.717 229.749L416.108 242.317L385.049 259.268L308.202 281.768L258.102 285.666L249.206 269.485Z" fill="#5f1e52" stroke="#000000" stroke-width="0.05"/>
<path d="M416.108 242.317L525.339 321.285L528.459 325.367L502.45 366.625L442.728 382.88L385.049 259.268Z" fill="#a5195a" stroke="#000000" stroke-width="0.05"/>
<path d="M417.825 91.194L469.55 84.693L511.276 177.988L420.717 229.749L398.52 133.24Z" fill="#f58960" stroke="#000000" stroke-width="0.05"/>
<path d="M0 1080L0 870.071L17.59 868.423L124.494 950.429L123.855 963.251L42.387 1080Z" fill="#461c47" stroke="#000000" stroke-width="0.05"/>
<path d="M1016.708 505.491L1080 444.811L1080 605.462L1006.852 604.185Z" fill="#ce1c4e" stroke="#000000" stroke-width="0.05"/>
<path d="M819.624 816.808L866.601 839.718L894.494 904.37L847.085 998.781L846.617 999.217L827.367 1005.89L779.02 927.623Z" fill="#f8ccaf" stroke="#000000" stroke-width="0.05"/>
<path d="M225.231 0L226.152 7.275L139.934 65.056L116.698 52.16L108.711 0Z" fill="#9c1a5b" stroke="#000000" stroke-width="0.05"/>
<path d="M971.054 775.814L1030.833 713.17L1080 725.784L1080 915.06L965.761 792.74Z" fill="#4e1d4b" stroke="#000000" stroke-width="0.05"/>
<path d="M690.319 64.402L756.1 193.573L734.554 233.214L731.783 234.443L608.42 131.661L608.147 118.837Z" fill="#461c47" stroke="#000000" stroke-width="0.05"/>
<path d="M0 357.754L76.316 415.178L93.958 457.177L68.135 565.832L0 595.171Z" fill="#fbebdd" stroke="#000000" stroke-width="0.05"/>
<path d="M397.007 1080L407.038 997.546L440.09 969.293L556.184 1039.342L571.655 1080Z" fill="#dc2a46" stroke="#000000" stroke-width="0.05"/>
<path d="M0 0L108.711 0L116.698 52.16L109.056 60.438L0 48.324Z" fill="#f8ccaf" stroke="#000000" stroke-width="0.05"/>
<path d="M262.554 114.823L310.332 111.03L336.515 146.243L249.206 269.485L246.652 266.872L244.235 244.71Z" fill="#261433" stroke="#000000" stroke-width="0.05"/>
<path d="M0 137.486L46.39 143.564L73.988 177.815L0 275.927Z" fill="#f47651" stroke="#000000" stroke-width="0.05"/>
<path d="M244.767 61.549L301.032 41.067L331.141 58.905L310.332 111.03L262.554 114.823L237.605 74.82Z" fill="#100b23" stroke="#000000" stroke-width="0.05"/>
<path d="M797.81 1080L816.199 1017.557L827.367 1005.89L846.617 999.217L921.403 1080Z" fill="#8a1d5b" stroke="#000000" stroke-width="0.05"/>
<path d="M0 595.171L68.135 565.832L184.755 580.93L130.31 743.581L122.851 745.574L0 621.543Z" fill="#ea443e" stroke="#000000" stroke-width="0.05"/>
<path d="M894.494 904.37L1080 969.678L1080 1012.711L847.085 998.781Z" fill="#9c1a5b" stroke="#000000" stroke-width="0.05"/>
<path d="M432.496 634.292L472.76 624.402L526.249 670.893L429.927 736.882L420.394 646.336Z" fill="#fae3d2" stroke="#000000" stroke-width="0.05"/>
<path d="M747.303 545.101L762.053 527.59L878.381 452.307L879.658 453.832L895.446 565.194L882.585 631.89L853.167 648.085L808.838 658.63L744.865 571.337Z" fill="#1f122e" stroke="#000000" stroke-width="0.05"/>
<path d="M280.354 468.334L307.041 477.167L336.351 512.379L337.93 637.077L246.811 653.548L192.075 579.794Z" fill="#020419" stroke="#000000" stroke-width="0.05"/>
<path d="M590.49 407.282L605.51 431.476L543.047 430.88Z" fill="#170f29" stroke="#000000" stroke-width="0.05"/>
<path d="M246.811 653.548L337.93 637.077L354.537 649.372L338.336 750.095L246.582 687.158Z" fill="#f48058" stroke="#000000" stroke-width="0.05"/>
<path d="M601.421 915.921L686.61 914.835L688.193 916.665L706.631 996.091L641.205 1080L571.655 1080L556.184 1039.342Z" fill="#ce1c4e" stroke="#000000" stroke-width="0.05"/>
<path d="M0 275.927L73.988 177.815L114.332 206.292L131.526 228.821L45.157 318.883L0 340.201Z" fill="#561e4f" stroke="#000000" stroke-width="0.05"/>
<path d="M532.642 508.488L586.183 498.738L669.453 586.461L607.603 631.679L518.902 528.979Z" fill="#f9dcc6" stroke="#000000" stroke-width="0.05"/>
<path d="M538.176 25.491L608.147 118.837L608.42 131.661L561.517 176.622L526.998 182.683L511.276 177.988L469.55 84.693Z" fill="#100b23" stroke="#000000" stroke-width="0.05"/>
<path d="M688.179 376.704L669.245 444.58L632.052 455.792L605.51 431.476L590.49 407.282L577.832 343.421Z" fill="#ae1759" stroke="#000000" stroke-width="0.05"/>
<path d="M400.91 430.958L425.882 448.264L461.21 501.698L342.765 515.385L336.351 512.379L307.041 477.167Z" fill="#671f55" stroke="#000000" stroke-width="0.05"/>
<path d="M1006.852 604.185L1080 605.462L1080 725.784L1030.833 713.17L988.799 628.247Z" fill="#561e4f" stroke="#000000" stroke-width="0.05"/>
<path d="M528.459 325.367L549.525 323.328L577.832 343.421L590.49 407.282L543.047 430.88L520.718 435.73L502.45 366.625Z" fill="#1f122e" stroke="#000000" stroke-width="0.05"/>
<path d="M692.622 0L781.887 0L793.177 79.954L690.359 64.306Z" fill="#f48058" stroke="#000000" stroke-width="0.05"/>
<path d="M607.603 631.679L669.453 586.461L744.865 571.337L808.838 658.63L769.429 763.329L757.905 766.931L600.443 755.25L583.039 695.979Z" fill="#f9dcc6" stroke="#000000" stroke-width="0.05"/>
<path d="M882.585 631.89L988.799 628.247L1030.833 713.17L971.054 775.814L853.167 648.085Z" fill="#c71851" stroke="#000000" stroke-width="0.05"/>
<path d="M411.165 833.075L554.786 812.186L601.421 915.921L556.184 1039.342L440.09 969.293L407.692 835.182Z" fill="#561e4f" stroke="#000000" stroke-width="0.05"/>
<path d="M93.958 457.177L258.309 423.379L280.354 468.334L192.075 579.794L184.755 580.93L68.135 565.832Z" fill="#1f122e" stroke="#000000" stroke-width="0.05"/>
<path d="M311.518 1080L332.955 1011.799L407.038 997.546L397.007 1080Z" fill="#fae3d2" stroke="#000000" stroke-width="0.05"/>
<path d="M131.526 228.821L246.652 266.872L249.206 269.485L258.102 285.666L244.842 342.376L168.058 355.675L45.157 318.883Z" fill="#ae1759" stroke="#000000" stroke-width="0.05"/>
<path d="M510.408 536.017L514.615 531.179L518.902 528.979L607.603 631.679L583.039 695.979L526.249 670.893L472.76 624.402Z" fill="#d5224a" stroke="#000000" stroke-width="0.05"/>
<path d="M688.179 376.704L702.373 364.775L706.256 366.528L767.31 455.632L762.053 527.59L747.303 545.101L669.245 444.58Z" fill="#2e1739" stroke="#000000" stroke-width="0.05"/>
<path d="M1080 30.087L1080 289.353L954.638 232.276L921.735 121.483Z" fill="#b61657" stroke="#000000" stroke-width="0.05"/>
<path d="M0 48.324L109.056 60.438L46.39 143.564L0 137.486Z" fill="#561e4f" stroke="#000000" stroke-width="0.05"/>
<path d="M731.259 235.089L731.783 234.443L734.554 233.214L864.593 305.937L870.891 383.228L796.28 392.877L706.256 366.528L702.373 364.775Z" fill="#f69269" stroke="#000000" stroke-width="0.05"/>
<path d="M420.717 229.749L511.276 177.988L526.998 182.683L525.339 321.285L416.108 242.317Z" fill="#d5224a" stroke="#000000" stroke-width="0.05"/>
<path d="M600.443 755.25L757.905 766.931L686.61 914.835L601.421 915.921L554.786 812.186Z" fill="#4e1d4b" stroke="#000000" stroke-width="0.05"/>
<path d="M461.21 501.698L514.615 531.179L510.408 536.017L392.404 550.521L342.765 515.385Z" fill="#f48058" stroke="#000000" stroke-width="0.05"/>
<path d="M520.718 435.73L543.047 430.88L605.51 431.476L632.052 455.792L586.183 498.738L532.642 508.488L520.194 457.801Z" fill="#170f29" stroke="#000000" stroke-width="0.05"/>
<path d="M808.838 658.63L853.167 648.085L971.054 775.814L965.761 792.74L866.601 839.718L819.624 816.808L769.429 763.329Z" fill="#ea443e" stroke="#000000" stroke-width="0.05"/>
<path d="M208.12 1080L268.483 945.349L332.955 1011.799L311.518 1080Z" fill="#9c1a5b" stroke="#000000" stroke-width="0.05"/>
<path d="M237.605 74.82L262.554 114.823L244.235 244.71L176.19 94.056L176.152 91.413Z" fill="#ce1c4e" stroke="#000000" stroke-width="0.05"/>
<path d="M520.194 457.801L532.642 508.488L518.902 528.979L514.615 531.179L461.21 501.698L425.882 448.264Z" fill="#bf1654" stroke="#000000" stroke-width="0.05"/>
<path d="M385.049 259.268L442.728 382.88L426.707 393.148L308.202 281.768Z" fill="#5f1e52" stroke="#000000" stroke-width="0.05"/>
<path d="M757.905 766.931L769.429 763.329L819.624 816.808L779.02 927.623L758.276 930.818L688.193 916.665L686.61 914.835Z" fill="#701f57" stroke="#000000" stroke-width="0.05"/>
<path d="M176.19 94.056L244.235 244.71L246.652 266.872L131.526 228.821L114.332 206.292Z" fill="#461c47" stroke="#000000" stroke-width="0.05"/>
<path d="M608.42 131.661L731.783 234.443L731.259 235.089L602.938 265.581L561.517 176.622Z" fill="#3e1a43" stroke="#000000" stroke-width="0.05"/>
<path d="M0 340.201L45.157 318.883L168.058 355.675L76.316 415.178L0 357.754Z" fill="#bf1654" stroke="#000000" stroke-width="0.05"/>
<path d="M122.851 745.574L130.31 743.581L200.21 752.809L243.144 824.63L99.511 832.723L78.647 826.184Z" fill="#3e1a43" stroke="#000000" stroke-width="0.05"/>
<path d="M924.188 1030.245C924.188 1033.559 921.502 1036.245 918.188 1036.245C914.874 1036.245 912.188 1033.559 912.188 1030.245C912.188 1026.932 914.874 1024.245 918.188 1024.245C921.502 1024.245 924.188 1026.932 924.188 1030.245Z" fill="#000000"/>
<path d="M146.715 886.095C146.715 889.409 144.028 892.095 140.715 892.095C137.401 892.095 134.715 889.409 134.715 886.095C134.715 882.781 137.401 880.095 140.715 880.095C144.028 880.095 146.715 882.781 146.715 886.095Z" fill="#000000"/>
<path d="M650.61 512.978C650.61 516.292 647.924 518.978 644.61 518.978C641.297 518.978 638.61 516.292 638.61 512.978C638.61 509.664 641.297 506.978 644.61 506.978C647.924 506.978 650.61 509.664 650.61 512.978Z" fill="#000000"/>
<path d="M836.158 40.602C836.158 43.916 833.471 46.602 830.158 46.602C826.844 46.602 824.158 43.916 824.158 40.602C824.158 37.289 826.844 34.602 830.158 34.602C833.471 34.602 836.158 37.289 836.158 40.602Z" fill="#000000"/>
<path d="M966.374 865.4C966.374 868.714 963.688 871.4 960.374 871.4C957.06 871.4 954.374 868.714 954.374 865.4C954.374 862.086 957.06 859.4 960.374 859.4C963.688 859.4 966.374 862.086 966.374 865.4Z" fill="#000000"/>
<path d="M275.947 748.963C275.947 752.277 273.26 754.963 269.947 754.963C266.633 754.963 263.947 752.277 263.947 748.963C263.947 745.65 266.633 742.963 269.947 742.963C273.26 742.963 275.947 745.65 275.947 748.963Z" fill="#000000"/>
<path d="M943.774 7.964C943.774 11.277 941.087 13.964 937.774 13.964C934.46 13.964 931.774 11.277 931.774 7.964C931.774 4.65 934.46 1.964 937.774 1.964C941.087 1.964 943.774 4.65 943.774 7.964Z" fill="#000000"/>
<path d="M50.474 746.976C50.474 750.29 47.788 752.976 44.474 752.976C41.16 752.976 38.474 750.29 38.474 746.976C38.474 743.663 41.16 740.976 44.474 740.976C47.788 740.976 50.474 743.663 50.474 746.976Z" fill="#000000"/>
<path d="M184.93 988.359C184.93 991.672 182.243 994.359 178.93 994.359C175.616 994.359 172.93 991.672 172.93 988.359C172.93 985.045 175.616 982.359 178.93 982.359C182.243 982.359 184.93 985.045 184.93 988.359Z" fill="#000000"/>
<path d="M271.275 12.553C271.275 15.867 268.589 18.553 265.275 18.553C261.961 18.553 259.275 15.867 259.275 12.553C259.275 9.24 261.961 6.553 265.275 6.553C268.589 6.553 271.275 9.24 271.275 12.553Z" fill="#000000"/>
<path d="M558.41 235.021C558.41 238.335 555.724 241.021 552.41 241.021C549.097 241.021 546.41 238.335 546.41 235.021C546.41 231.708 549.097 229.021 552.41 229.021C555.724 229.021 558.41 231.708 558.41 235.021Z" fill="#000000"/>
<path d="M862.02 215.427C862.02 218.741 859.333 221.427 856.02 221.427C852.706 221.427 850.02 218.741 850.02 215.427C850.02 212.113 852.706 209.427 856.02 209.427C859.333 209.427 862.02 212.113 862.02 215.427Z" fill="#000000"/>
<path d="M341.997 11.588C341.997 14.901 339.311 17.588 335.997 17.588C332.683 17.588 329.997 14.901 329.997 11.588C329.997 8.274 332.683 5.588 335.997 5.588C339.311 5.588 341.997 8.274 341.997 11.588Z" fill="#000000"/>
<path d="M444.731 569.357C444.731 572.671 442.045 575.357 438.731 575.357C435.417 575.357 432.731 572.671 432.731 569.357C432.731 566.043 435.417 563.357 438.731 563.357C442.045 563.357 444.731 566.043 444.731 569.357Z" fill="#000000"/>
<path d="M377.838 372.975C377.838 376.288 375.151 378.975 371.838 378.975C368.524 378.975 365.838 376.288 365.838 372.975C365.838 369.661 368.524 366.975 371.838 366.975C375.151 366.975 377.838 369.661 377.838 372.975Z" fill="#000000"/>
<path d="M746.645 92.466C746.645 95.78 743.959 98.466 740.645 98.466C737.332 98.466 734.645 95.78 734.645 92.466C734.645 89.152 737.332 86.466 740.645 86.466C743.959 86.466 746.645 89.152 746.645 92.466Z" fill="#000000"/>
<path d="M957.609 332.277C957.609 335.591 954.923 338.277 951.609 338.277C948.295 338.277 945.609 335.591 945.609 332.277C945.609 328.963 948.295 326.277 951.609 326.277C954.923 326.277 957.609 328.963 957.609 332.277Z" fill="#000000"/>
<path d="M801.348 441.578C801.348 444.892 798.661 447.578 795.348 447.578C792.034 447.578 789.348 444.892 789.348 441.578C789.348 438.264 792.034 435.578 795.348 435.578C798.661 435.578 801.348 438.264 801.348 441.578Z" fill="#000000"/>
<path d="M765.819 425.177C765.819 428.491 763.133 431.177 759.819 431.177C756.506 431.177 753.819 428.491 753.819 425.177C753.819 421.863 756.506 419.177 759.819 419.177C763.133 419.177 765.819 421.863 765.819 425.177Z" fill="#000000"/>
<path d="M384.013 598.416C384.013 601.73 381.327 604.416 378.013 604.416C374.699 604.416 372.013 601.73 372.013 598.416C372.013 595.102 374.699 592.416 378.013 592.416C381.327 592.416 384.013 595.102 384.013 598.416Z" fill="#000000"/>
<path d="M640.95 48.445C640.95 51.759 638.263 54.445 634.95 54.445C631.636 54.445 628.95 51.759 628.95 48.445C628.95 45.131 631.636 42.445 634.95 42.445C638.263 42.445 640.95 45.131 640.95 48.445Z" fill="#000000"/>
<path d="M354.794 961.644C354.794 964.958 352.108 967.644 348.794 967.644C345.48 967.644 342.794 964.958 342.794 961.644C342.794 958.331 345.48 955.644 348.794 955.644C352.108 955.644 354.794 958.331 354.794 961.644Z" fill="#000000"/>
<path d="M346.953 105.447C346.953 108.761 344.266 111.447 340.953 111.447C337.639 111.447 334.953 108.761 334.953 105.447C334.953 102.134 337.639 99.447 340.953 99.447C344.266 99.447 346.953 102.134 346.953 105.447Z" fill="#000000"/>
<path d="M171.68 845.682C171.68 848.995 168.994 851.682 165.68 851.682C162.367 851.682 159.68 848.995 159.68 845.682C159.68 842.368 162.367 839.682 165.68 839.682C168.994 839.682 171.68 842.368 171.68 845.682Z" fill="#000000"/>
<path d="M643.34 313.575C643.34 316.888 640.653 319.575 637.34 319.575C634.026 319.575 631.34 316.888 631.34 313.575C631.34 310.261 634.026 307.575 637.34 307.575C640.653 307.575 643.34 310.261 643.34 313.575Z" fill="#000000"/>
<path d="M135.776 129.889C135.776 133.203 133.09 135.889 129.776 135.889C126.463 135.889 123.776 133.203 123.776 129.889C123.776 126.576 126.463 123.889 129.776 123.889C133.09 123.889 135.776 126.576 135.776 129.889Z" fill="#000000"/>
<path d="M204.964 988.735C204.964 992.049 202.278 994.735 198.964 994.735C195.65 994.735 192.964 992.049 192.964 988.735C192.964 985.422 195.65 982.735 198.964 982.735C202.278 982.735 204.964 985.422 204.964 988.735Z" fill="#000000"/>
<path d="M967.539 442.584C967.539 445.897 964.853 448.584 961.539 448.584C958.225 448.584 955.539 445.897 955.539 442.584C955.539 439.27 958.225 436.584 961.539 436.584C964.853 436.584 967.539 439.27 967.539 442.584Z" fill="#000000"/>
<path d="M494.414 718.59C494.414 721.904 491.727 724.59 488.414 724.59C485.1 724.59 482.414 721.904 482.414 718.59C482.414 715.277 485.1 712.59 488.414 712.59C491.727 712.59 494.414 715.277 494.414 718.59Z" fill="#000000"/>
<path d="M471.503 436.88C471.503 440.194 468.817 442.88 465.503 442.88C462.189 442.88 459.503 440.194 459.503 436.88C459.503 433.566 462.189 430.88 465.503 430.88C468.817 430.88 471.503 433.566 471.503 436.88Z" fill="#000000"/>
<path d="M204.504 35.454C204.504 38.768 201.818 41.454 198.504 41.454C195.19 41.454 192.504 38.768 192.504 35.454C192.504 32.141 195.19 29.454 198.504 29.454C201.818 29.454 204.504 32.141 204.504 35.454Z" fill="#000000"/>
<path d="M764.406 964.184C764.406 967.498 761.72 970.184 758.406 970.184C755.092 970.184 752.406 967.498 752.406 964.184C752.406 960.87 755.092 958.184 758.406 958.184C761.72 958.184 764.406 960.87 764.406 964.184Z" fill="#000000"/>
<path d="M445.173 15.982C445.173 19.296 442.486 21.982 439.173 21.982C435.859 21.982 433.173 19.296 433.173 15.982C433.173 12.669 435.859 9.982 439.173 9.982C442.486 9.982 445.173 12.669 445.173 15.982Z" fill="#000000"/>
<path d="M742.772 956.331C742.772 959.645 740.086 962.331 736.772 962.331C733.459 962.331 730.772 959.645 730.772 956.331C730.772 953.017 733.459 950.331 736.772 950.331C740.086 950.331 742.772 953.017 742.772 956.331Z" fill="#000000"/>
<path d="M186.522 685.798C186.522 689.112 183.835 691.798 180.522 691.798C177.208 691.798 174.522 689.112 174.522 685.798C174.522 682.485 177.208 679.798 180.522 679.798C183.835 679.798 186.522 682.485 186.522 685.798Z" fill="#000000"/>
<path d="M131.311 1023.761C131.311 1027.075 128.624 1029.761 125.311 1029.761C121.997 1029.761 119.311 1027.075 119.311 1023.761C119.311 1020.447 121.997 1017.761 125.311 1017.761C128.624 1017.761 131.311 1020.447 131.311 1023.761Z" fill="#000000"/>
<path d="M388.602 697.952C388.602 701.265 385.916 703.952 382.602 703.952C379.288 703.952 376.602 701.265 376.602 697.952C376.602 694.638 379.288 691.952 382.602 691.952C385.916 691.952 388.602 694.638 388.602 697.952Z" fill="#000000"/>
<path d="M951.952 550.151C951.952 553.464 949.265 556.151 945.952 556.151C942.638 556.151 939.952 553.464 939.952 550.151C939.952 546.837 942.638 544.151 945.952 544.151C949.265 544.151 951.952 546.837 951.952 550.151Z" fill="#000000"/>
<path d="M745.238 1033.855C745.238 1037.169 742.551 1039.855 739.238 1039.855C735.924 1039.855 733.238 1037.169 733.238 1033.855C733.238 1030.542 735.924 1027.855 739.238 1027.855C742.551 1027.855 745.238 1030.542 745.238 1033.855Z" fill="#000000"/>
<path d="M140.579 412.419C140.579 415.733 137.893 418.419 134.579 418.419C131.265 418.419 128.579 415.733 128.579 412.419C128.579 409.106 131.265 406.419 134.579 406.419C137.893 406.419 140.579 409.106 140.579 412.419Z" fill="#000000"/>
<path d="M932.007 522.262C932.007 525.576 929.321 528.262 926.007 528.262C922.694 528.262 920.007 525.576 920.007 522.262C920.007 518.949 922.694 516.262 926.007 516.262C929.321 516.262 932.007 518.949 932.007 522.262Z" fill="#000000"/>
<path d="M362.968 181.818C362.968 185.132 360.281 187.818 356.968 187.818C353.654 187.818 350.968 185.132 350.968 181.818C350.968 178.505 353.654 175.818 356.968 175.818C360.281 175.818 362.968 178.505 362.968 181.818Z" fill="#000000"/>
<path d="M440.994 324.785C440.994 328.099 438.308 330.785 434.994 330.785C431.681 330.785 428.994 328.099 428.994 324.785C428.994 321.472 431.681 318.785 434.994 318.785C438.308 318.785 440.994 321.472 440.994 324.785Z" fill="#000000"/>
<path d="M463.121 158.783C463.121 162.097 460.434 164.783 457.121 164.783C453.807 164.783 451.121 162.097 451.121 158.783C451.121 155.47 453.807 152.783 457.121 152.783C460.434 152.783 463.121 155.47 463.121 158.783Z" fill="#000000"/>
<path d="M72.56 982.764C72.56 986.078 69.873 988.764 66.56 988.764C63.246 988.764 60.56 986.078 60.56 982.764C60.56 979.451 63.246 976.764 66.56 976.764C69.873 976.764 72.56 979.451 72.56 982.764Z" fill="#000000"/>
<path d="M1083.235 563.261C1083.235 566.575 1080.549 569.261 1077.235 569.261C1073.922 569.261 1071.235 566.575 1071.235 563.261C1071.235 559.948 1073.922 557.261 1077.235 557.261C1080.549 557.261 1083.235 559.948 1083.235 563.261Z" fill="#000000"/>
<path d="M826.941 925.555C826.941 928.869 824.255 931.555 820.941 931.555C817.627 931.555 814.941 928.869 814.941 925.555C814.941 922.241 817.627 919.555 820.941 919.555C824.255 919.555 826.941 922.241 826.941 925.555Z" fill="#000000"/>
<path d="M195.578 22.135C195.578 25.449 192.891 28.135 189.578 28.135C186.264 28.135 183.578 25.449 183.578 22.135C183.578 18.821 186.264 16.135 189.578 16.135C192.891 16.135 195.578 18.821 195.578 22.135Z" fill="#000000"/>
<path d="M1044.619 792.324C1044.619 795.638 1041.933 798.324 1038.619 798.324C1035.305 798.324 1032.619 795.638 1032.619 792.324C1032.619 789.01 1035.305 786.324 1038.619 786.324C1041.933 786.324 1044.619 789.01 1044.619 792.324Z" fill="#000000"/>
<path d="M689.418 121.61C689.418 124.923 686.732 127.61 683.418 127.61C680.104 127.61 677.418 124.923 677.418 121.61C677.418 118.296 680.104 115.61 683.418 115.61C686.732 115.61 689.418 118.296 689.418 121.61Z" fill="#000000"/>
<path d="M39.56 454.852C39.56 458.166 36.873 460.852 33.56 460.852C30.246 460.852 27.56 458.166 27.56 454.852C27.56 451.538 30.246 448.852 33.56 448.852C36.873 448.852 39.56 451.538 39.56 454.852Z" fill="#000000"/>
<path d="M439.439 1060.667C439.439 1063.98 436.753 1066.667 433.439 1066.667C430.126 1066.667 427.439 1063.98 427.439 1060.667C427.439 1057.353 430.126 1054.667 433.439 1054.667C436.753 1054.667 439.439 1057.353 439.439 1060.667Z" fill="#000000"/>
<path d="M44.174 45.318C44.174 48.632 41.488 51.318 38.174 51.318C34.86 51.318 32.174 48.632 32.174 45.318C32.174 42.004 34.86 39.318 38.174 39.318C41.488 39.318 44.174 42.004 44.174 45.318Z" fill="#000000"/>
<path d="M302.17 138.747C302.17 142.061 299.483 144.747 296.17 144.747C292.856 144.747 290.17 142.061 290.17 138.747C290.17 135.433 292.856 132.747 296.17 132.747C299.483 132.747 302.17 135.433 302.17 138.747Z" fill="#000000"/>
<path d="M21.294 222.134C21.294 225.448 18.608 228.134 15.294 228.134C11.98 228.134 9.294 225.448 9.294 222.134C9.294 218.82 11.98 216.134 15.294 216.134C18.608 216.134 21.294 218.82 21.294 222.134Z" fill="#000000"/>
<path d="M297.974 85.895C297.974 89.208 295.288 91.895 291.974 91.895C288.66 91.895 285.974 89.208 285.974 85.895C285.974 82.581 288.66 79.895 291.974 79.895C295.288 79.895 297.974 82.581 297.974 85.895Z" fill="#000000"/>
<path d="M878.043 1072.964C878.043 1076.278 875.357 1078.964 872.043 1078.964C868.73 1078.964 866.043 1076.278 866.043 1072.964C866.043 1069.651 868.73 1066.964 872.043 1066.964C875.357 1066.964 878.043 1069.651 878.043 1072.964Z" fill="#000000"/>
<path d="M131.003 667.214C131.003 670.528 128.317 673.214 125.003 673.214C121.689 673.214 119.003 670.528 119.003 667.214C119.003 663.9 121.689 661.214 125.003 661.214C128.317 661.214 131.003 663.9 131.003 667.214Z" fill="#000000"/>
<path d="M927.431 976.016C927.431 979.33 924.745 982.016 921.431 982.016C918.118 982.016 915.431 979.33 915.431 976.016C915.431 972.703 918.118 970.016 921.431 970.016C924.745 970.016 927.431 972.703 927.431 976.016Z" fill="#000000"/>
<path d="M474.107 688.949C474.107 692.263 471.42 694.949 468.107 694.949C464.793 694.949 462.107 692.263 462.107 688.949C462.107 685.635 464.793 682.949 468.107 682.949C471.42 682.949 474.107 685.635 474.107 688.949Z" fill="#000000"/>
<path d="M860.156 532.449C860.156 535.763 857.47 538.449 854.156 538.449C850.842 538.449 848.156 535.763 848.156 532.449C848.156 529.136 850.842 526.449 854.156 526.449C857.47 526.449 860.156 529.136 860.156 532.449Z" fill="#000000"/>
<path d="M302.881 599.443C302.881 602.757 300.195 605.443 296.881 605.443C293.567 605.443 290.881 602.757 290.881 599.443C290.881 596.129 293.567 593.443 296.881 593.443C300.195 593.443 302.881 596.129 302.881 599.443Z" fill="#000000"/>
<path d="M581.974 422.886C581.974 426.199 579.288 428.886 575.974 428.886C572.661 428.886 569.974 426.199 569.974 422.886C569.974 419.572 572.661 416.886 575.974 416.886C579.288 416.886 581.974 419.572 581.974 422.886Z" fill="#000000"/>
<path d="M318.654 686.7C318.654 690.014 315.968 692.7 312.654 692.7C309.34 692.7 306.654 690.014 306.654 686.7C306.654 683.387 309.34 680.7 312.654 680.7C315.968 680.7 318.654 683.387 318.654 686.7Z" fill="#000000"/>
<path d="M668.056 973.675C668.056 976.989 665.37 979.675 662.056 979.675C658.743 979.675 656.056 976.989 656.056 973.675C656.056 970.361 658.743 967.675 662.056 967.675C665.37 967.675 668.056 970.361 668.056 973.675Z" fill="#000000"/>
<path d="M53.514 246.432C53.514 249.746 50.828 252.432 47.514 252.432C44.201 252.432 41.514 249.746 41.514 246.432C41.514 243.119 44.201 240.432 47.514 240.432C50.828 240.432 53.514 243.119 53.514 246.432Z" fill="#000000"/>
<path d="M603.362 557.828C603.362 561.142 600.676 563.828 597.362 563.828C594.049 563.828 591.362 561.142 591.362 557.828C591.362 554.514 594.049 551.828 597.362 551.828C600.676 551.828 603.362 554.514 603.362 557.828Z" fill="#000000"/>
<path d="M539.062 124.818C539.062 128.132 536.376 130.818 533.062 130.818C529.748 130.818 527.062 128.132 527.062 124.818C527.062 121.505 529.748 118.818 533.062 118.818C536.376 118.818 539.062 121.505 539.062 124.818Z" fill="#000000"/>
<path d="M616.912 401.194C616.912 404.508 614.226 407.194 610.912 407.194C607.599 407.194 604.912 404.508 604.912 401.194C604.912 397.88 607.599 395.194 610.912 395.194C614.226 395.194 616.912 397.88 616.912 401.194Z" fill="#000000"/>
<path d="M435.131 489.36C435.131 492.674 432.445 495.36 429.131 495.36C425.818 495.36 423.131 492.674 423.131 489.36C423.131 486.046 425.818 483.36 429.131 483.36C432.445 483.36 435.131 486.046 435.131 489.36Z" fill="#000000"/>
<path d="M1081.763 647.541C1081.763 650.855 1079.077 653.541 1075.763 653.541C1072.45 653.541 1069.763 650.855 1069.763 647.541C1069.763 644.227 1072.45 641.541 1075.763 641.541C1079.077 641.541 1081.763 644.227 1081.763 647.541Z" fill="#000000"/>
<path d="M575.289 409.444C575.289 412.758 572.602 415.444 569.289 415.444C565.975 415.444 563.289 412.758 563.289 409.444C563.289 406.13 565.975 403.444 569.289 403.444C572.602 403.444 575.289 406.13 575.289 409.444Z" fill="#000000"/>
<path d="M752.746 52.381C752.746 55.695 750.059 58.381 746.746 58.381C743.432 58.381 740.746 55.695 740.746 52.381C740.746 49.067 743.432 46.381 746.746 46.381C750.059 46.381 752.746 49.067 752.746 52.381Z" fill="#000000"/>
<path d="M680.867 663.841C680.867 667.155 678.181 669.841 674.867 669.841C671.554 669.841 668.867 667.155 668.867 663.841C668.867 660.527 671.554 657.841 674.867 657.841C678.181 657.841 680.867 660.527 680.867 663.841Z" fill="#000000"/>
<path d="M957.402 709.096C957.402 712.41 954.716 715.096 951.402 715.096C948.088 715.096 945.402 712.41 945.402 709.096C945.402 705.782 948.088 703.096 951.402 703.096C954.716 703.096 957.402 705.782 957.402 709.096Z" fill="#000000"/>
<path d="M523.825 920.81C523.825 924.124 521.139 926.81 517.825 926.81C514.512 926.81 511.825 924.124 511.825 920.81C511.825 917.497 514.512 914.81 517.825 914.81C521.139 914.81 523.825 917.497 523.825 920.81Z" fill="#000000"/>
<path d="M154.944 482.274C154.944 485.588 152.258 488.274 148.944 488.274C145.631 488.274 142.944 485.588 142.944 482.274C142.944 478.96 145.631 476.274 148.944 476.274C152.258 476.274 154.944 478.96 154.944 482.274Z" fill="#000000"/>
<path d="M372.273 1052.496C372.273 1055.81 369.587 1058.496 366.273 1058.496C362.96 1058.496 360.273 1055.81 360.273 1052.496C360.273 1049.182 362.96 1046.496 366.273 1046.496C369.587 1046.496 372.273 1049.182 372.273 1052.496Z" fill="#000000"/>
<path d="M123.445 313.497C123.445 316.81 120.759 319.497 117.445 319.497C114.132 319.497 111.445 316.81 111.445 313.497C111.445 310.183 114.132 307.497 117.445 307.497C120.759 307.497 123.445 310.183 123.445 313.497Z" fill="#000000"/>
<path d="M542.028 610.802C542.028 614.115 539.342 616.802 536.028 616.802C532.715 616.802 530.028 614.115 530.028 610.802C530.028 607.488 532.715 604.802 536.028 604.802C539.342 604.802 542.028 607.488 542.028 610.802Z" fill="#000000"/>
<path d="M747.613 437.652C747.613 440.966 744.927 443.652 741.613 443.652C738.3 443.652 735.613 440.966 735.613 437.652C735.613 434.338 738.3 431.652 741.613 431.652C744.927 431.652 747.613 434.338 747.613 437.652Z" fill="#000000"/>
<path d="M1034.075 164.331C1034.075 167.645 1031.388 170.331 1028.075 170.331C1024.761 170.331 1022.075 167.645 1022.075 164.331C1022.075 161.018 1024.761 158.331 1028.075 158.331C1031.388 158.331 1034.075 161.018 1034.075 164.331Z" fill="#000000"/>
<path d="M42.584 59.634C42.584 62.948 39.897 65.634 36.584 65.634C33.27 65.634 30.584 62.948 30.584 59.634C30.584 56.32 33.27 53.634 36.584 53.634C39.897 53.634 42.584 56.32 42.584 59.634Z" fill="#000000"/>
<path d="M788.989 346.016C788.989 349.329 786.303 352.016 782.989 352.016C779.676 352.016 776.989 349.329 776.989 346.016C776.989 342.702 779.676 340.016 782.989 340.016C786.303 340.016 788.989 342.702 788.989 346.016Z" fill="#000000"/>
<path d="M506.34 234.398C506.34 237.712 503.653 240.398 500.34 240.398C497.026 240.398 494.34 237.712 494.34 234.398C494.34 231.084 497.026 228.398 500.34 228.398C503.653 228.398 506.34 231.084 506.34 234.398Z" fill="#000000"/>
<path d="M666.565 856.64C666.565 859.954 663.879 862.64 660.565 862.64C657.251 862.64 654.565 859.954 654.565 856.64C654.565 853.326 657.251 850.64 660.565 850.64C663.879 850.64 666.565 853.326 666.565 856.64Z" fill="#000000"/>
<path d="M438.791 521.028C438.791 524.341 436.104 527.028 432.791 527.028C429.477 527.028 426.791 524.341 426.791 521.028C426.791 517.714 429.477 515.028 432.791 515.028C436.104 515.028 438.791 517.714 438.791 521.028Z" fill="#000000"/>
<path d="M581.816 439.501C581.816 442.815 579.13 445.501 575.816 445.501C572.502 445.501 569.816 442.815 569.816 439.501C569.816 436.187 572.502 433.501 575.816 433.501C579.13 433.501 581.816 436.187 581.816 439.501Z" fill="#000000"/>
<path d="M912.122 750.886C912.122 754.2 909.436 756.886 906.122 756.886C902.809 756.886 900.122 754.2 900.122 750.886C900.122 747.573 902.809 744.886 906.122 744.886C909.436 744.886 912.122 747.573 912.122 750.886Z" fill="#000000"/>
<path d="M288.345 1026.115C288.345 1029.429 285.659 1032.115 282.345 1032.115C279.031 1032.115 276.345 1029.429 276.345 1026.115C276.345 1022.801 279.031 1020.115 282.345 1020.115C285.659 1020.115 288.345 1022.801 288.345 1026.115Z" fill="#000000"/>
<path d="M229.632 128.517C229.632 131.83 226.946 134.517 223.632 134.517C220.319 134.517 217.632 131.83 217.632 128.517C217.632 125.203 220.319 122.517 223.632 122.517C226.946 122.517 229.632 125.203 229.632 128.517Z" fill="#000000"/>
<path d="M468.422 467.35C468.422 470.664 465.735 473.35 462.422 473.35C459.108 473.35 456.422 470.664 456.422 467.35C456.422 464.036 459.108 461.35 462.422 461.35C465.735 461.35 468.422 464.036 468.422 467.35Z" fill="#000000"/>
<path d="M409.174 339.633C409.174 342.947 406.488 345.633 403.174 345.633C399.86 345.633 397.174 342.947 397.174 339.633C397.174 336.32 399.86 333.633 403.174 333.633C406.488 333.633 409.174 336.32 409.174 339.633Z" fill="#000000"/>
<path d="M754.359 898.96C754.359 902.274 751.673 904.96 748.359 904.96C745.045 904.96 742.359 902.274 742.359 898.96C742.359 895.647 745.045 892.96 748.359 892.96C751.673 892.96 754.359 895.647 754.359 898.96Z" fill="#000000"/>
<path d="M176.68 152.433C176.68 155.747 173.993 158.433 170.68 158.433C167.366 158.433 164.68 155.747 164.68 152.433C164.68 149.119 167.366 146.433 170.68 146.433C173.993 146.433 176.68 149.119 176.68 152.433Z" fill="#000000"/>
<path d="M618.072 207.242C618.072 210.555 615.386 213.242 612.072 213.242C608.759 213.242 606.072 210.555 606.072 207.242C606.072 203.928 608.759 201.242 612.072 201.242C615.386 201.242 618.072 203.928 618.072 207.242Z" fill="#000000"/>
<path d="M108.594 363.104C108.594 366.418 105.908 369.104 102.594 369.104C99.281 369.104 96.594 366.418 96.594 363.104C96.594 359.791 99.281 357.104 102.594 357.104C105.908 357.104 108.594 359.791 108.594 363.104Z" fill="#000000"/>
<path d="M169.806 812.414C169.806 815.727 167.12 818.414 163.806 818.414C160.492 818.414 157.806 815.727 157.806 812.414C157.806 809.1 160.492 806.414 163.806 806.414C167.12 806.414 169.806 809.1 169.806 812.414Z" fill="#000000"/>
</svg>
