<svg version="1.1" width="211.66666mm" height="211.66666mm" viewBox="0 0 211.66666 211.66666" xmlns="http://www.w3.org/2000/svg" xmlns:xlink="http://www.w3.org/1999/xlink"><path d="M0 211.66666H211.66666V0H0z" fill="#1e1e1e"/><path d="M155.19398 39.806214L156.55708 40.874258L157.88813 42.006409L159.18631 43.20155L160.45078 44.458501L161.68076 45.776021L162.87547 47.15281L164.03414 48.587511L165.15606 50.078705L166.24051 51.624923L167.2868 53.224638L168.29427 54.876272L169.2623 56.578194L170.19026 58.328725L171.07757 60.126137L171.92367 61.968657L172.72803 63.854465L173.49014 65.781702L174.20951 67.748465L174.8857 69.752813L175.51827 71.792769L176.10682 73.866318L176.65099 75.971415L177.15043 78.105982L177.60482 80.267912L178.01388 82.455072L178.37736 84.665304L178.69501 86.896427L178.96663 89.146237L179.19207 91.412516L179.37117 93.693026L179.50383 95.985518L179.58995 98.287728L179.62948 100.59738L179.62241 102.91221L179.56873 105.22992L179.46847 107.54822L179.32171 109.86483L179.12852 112.17746L178.88905 114.48383L178.60343 116.78166L178.27184 119.06869L177.89451 121.34266L177.47165 123.60132L177.00355 125.84244L176.4905 128.06382L175.93282 130.26327L175.33086 132.4386L174.68501 134.58767L173.99566 136.70837L173.26327 138.7986L172.48828 140.85629L171.6712 142.87943L170.81253 144.866L169.91281 146.81405L168.97263 148.72166L167.99256 150.58694L166.97323 152.40806L165.91529 154.18321L164.81939 155.91065L163.68624 157.58867L162.51655 159.21561L161.31105 160.78986L160.07052 162.30989L158.79572 163.77418L157.48748 165.18128L156.14661 166.52982L154.77396 167.81846L153.37039 169.04593L151.93681 170.21101L150.4741 171.31256L148.9832 172.34949L147.46504 173.32078L145.92058 174.22546L144.35081 175.06265L142.75671 175.83152L141.13929 176.53131L139.49956 177.16133L137.83857 177.72095L136.15737 178.20963L134.45702 178.62689L132.73858 178.97231L131.00315 179.24554L129.25182 179.44633L127.4857 179.57448L125.70591 179.62984L123.91356 179.61238L122.1098 179.52211L120.29575 179.35912L118.47257 179.12356L116.6414 178.81568L114.80341 178.43577L112.95975 177.98422L111.11159 177.46145L109.2601 176.868L107.40644 176.20445L105.55179 175.47145L103.69732 174.66973L101.84419 173.80007L99.99359 172.86333L98.146675 171.86045L96.304614 170.79241L94.468572 169.66025L92.639708 168.46511L90.819178 167.20816L89.008131 165.89064L87.207711 164.51385L85.419055 163.07915L83.643293 161.58796L81.881547 160.04174L80.13493 158.44203L78.404544 156.79039L76.691483 155.08847L74.996828 153.33794L73.321651 151.54053L71.667008 149.69801L70.033946 147.8122L68.423495 145.88496L66.836674 143.9182L65.274483 141.91385L63.73791 139.8739L62.227926 137.80035L60.745483 135.69525L59.291519 133.56068L57.866952 131.39875L56.472682 129.21159L55.109589 127.00136L53.778534 124.77024L52.480357 122.52043L51.21588 120.25415L49.985901 117.97364L48.791195 115.68115L47.632519 113.37894L46.510604 111.06928L45.426158 108.75446L44.379867 106.43675L43.372391 104.11845L42.404366 101.80184L41.476405 99.489206L40.589093 97.182836L39.74299 94.885002L38.938632 92.597974L38.176526 90.324007L37.457153 88.065346L36.780968 85.824219L36.148399 83.60284L35.559843 81.403399L35.015674 79.228067L34.516235 77.078992L34.061841 74.958294L33.65278 72.868066L33.289309 70.81037L32.971659 68.787238L32.70003 66.800666L32.474593 64.852614L32.295491 62.945006L32.162837 61.079723L32.076716 59.258606L32.03718 57.483453L32.044256 55.756016L32.097938 54.077999L32.198194 52.451058L32.344958 50.876799L32.53814 49.356776L32.777617 47.892488L33.063237 46.48538L33.39482 45.136842L33.772157 43.848204L34.195009 42.620738L34.66311 41.455655L35.176163 40.354105L35.733845 39.317175L36.335803 38.345889L36.981657 37.441204L37.671 36.604014L38.403395 35.835146L39.17838 35.135357L39.995467 34.505338L40.854137 33.945711L41.75385 33.457029L42.694037 33.039774L43.674105 32.694357L44.693433 32.421119L45.751378 32.220331L46.847273 32.092189L47.980424 32.036821L49.150117 32.054281L50.355612 32.144553L51.596147 32.307546L52.870941 32.5431L54.179186 32.850983L55.520057 33.230891L56.892707 33.682449L58.296269 34.20521L59.729857 34.798661L61.192564 35.462213L62.683468 36.195214L64.201626 36.996939L65.746079 37.866597L67.315853 38.80333L68.909954 39.806214L70.527378 40.874258L72.167101 42.006409L73.828089 43.20155L75.509292 44.458501L77.209648 45.776021L78.928084 47.15281L80.663513 48.587511L82.414841 50.078705L84.18096 51.624923L85.960755 53.224638L87.753102 54.876272L89.556868 56.578194L91.370916 58.328725L93.194098 60.126137L95.025263 61.968657L96.863255 63.854465L98.706913 65.781702L100.55507 67.748465L102.40656 69.752813L104.26022 71.792769L106.11487 73.866318L107.96935 75.971415L109.82247 78.105982L111.67307 80.267912L113.51999 82.455072L115.36205 84.665304L117.19809 86.896427L119.02696 89.146237L120.84749 91.412516L122.65853 93.693026L124.45895 95.985518L126.24761 98.287728L128.02337 100.59738L129.78512 102.91221L131.53173 105.22992L133.26212 107.54822L134.97518 109.86483L136.66984 112.17746L138.34501 114.48383L139.99966 116.78166L141.63272 119.06869L143.24317 121.34266L144.82999 123.60132L146.39218 125.84244L147.92875 128.06382L149.43874 130.26327L150.92118 132.4386L152.37514 134.58767L153.79971 136.70837L155.19398 138.7986L156.55708 140.85629L157.88813 142.87943L159.18631 144.866L160.45078 146.81405L161.68076 148.72166L162.87547 150.58694L164.03414 152.40806L165.15606 154.18321L166.24051 155.91065L167.2868 157.58867L168.29427 159.21561L169.2623 160.78986L170.19026 162.30989L171.07757 163.77418L171.92367 165.18128L172.72803 166.52982L173.49014 167.81846L174.20951 169.04593L174.8857 170.21101L175.51827 171.31256L176.10682 172.34949L176.65099 173.32078L177.15043 174.22546L177.60482 175.06265L178.01388 175.83152L178.37736 176.53131L178.69501 177.16133L178.96663 177.72095L179.19207 178.20963L179.37117 178.62689L179.50383 178.97231L179.58995 179.24554L179.62948 179.44633L179.62241 179.57448L179.56873 179.62984L179.46847 179.61238L179.32171 179.52211L179.12852 179.35912L178.88905 179.12356L178.60343 178.81568L178.27184 178.43577L177.89451 177.98422L177.47165 177.46145L177.00355 176.868L176.4905 176.20445L175.93282 175.47145L175.33086 174.66973L174.68501 173.80007L173.99566 172.86333L173.26327 171.86045L172.48828 170.79241L171.6712 169.66025L170.81253 168.46511L169.91281 167.20816L168.97263 165.89064L167.99256 164.51385L166.97323 163.07915L165.91529 161.58796L164.81939 160.04174L163.68624 158.44203L162.51655 156.79039L161.31105 155.08847L160.07052 153.33794L158.79572 151.54053L157.48748 149.69801L156.14661 147.8122L154.77396 145.88496L153.37039 143.9182L151.93681 141.91385L150.4741 139.8739L148.9832 137.80035L147.46504 135.69525L145.92058 133.56068L144.35081 131.39875L142.75671 129.21159L141.13929 127.00136L139.49956 124.77024L137.83857 122.52043L136.15737 120.25415L134.45702 117.97364L132.73858 115.68115L131.00315 113.37894L129.25182 111.06928L127.4857 108.75446L125.70591 106.43675L123.91356 104.11845L122.1098 101.80184L120.29575 99.489206L118.47257 97.182836L116.6414 94.885002L114.80341 92.597974L112.95975 90.324007L111.11159 88.065346L109.2601 85.824219L107.40644 83.60284L105.55179 81.403399L103.69732 79.228067L101.84419 77.078992L99.99359 74.958294L98.146675 72.868066L96.304614 70.81037L94.468572 68.787238L92.639708 66.800666L90.819178 64.852614L89.008131 62.945006L87.207711 61.079723L85.419055 59.258606L83.643293 57.483453L81.881547 55.756016L80.13493 54.077999L78.404544 52.451058L76.691483 50.876799L74.996828 49.356776L73.321651 47.892488L71.667008 46.48538L70.033946 45.136842L68.423495 43.848204L66.836674 42.620738L65.274483 41.455655L63.73791 40.354105L62.227926 39.317175L60.745483 38.345889L59.291519 37.441204L57.866952 36.604014L56.472682 35.835146L55.109589 35.135357L53.778534 34.505338L52.480357 33.945711L51.21588 33.457029L49.985901 33.039774L48.791195 32.694357L47.632519 32.421119L46.510604 32.220331L45.426158 32.092189L44.379867 32.036821L43.372391 32.054281L42.404366 32.144553L41.476405 32.307546L40.589093 32.5431L39.74299 32.850983L38.938632 33.230891L38.176526 33.682449L37.457153 34.20521L36.780968 34.798661L36.148399 35.462213L35.559843 36.195214L35.015674 36.996939L34.516235 37.866597L34.061841 38.80333L33.65278 39.806214L33.289309 40.874258L32.971659 42.006409L32.70003 43.20155L32.474593 44.458501L32.295491 45.776021L32.162837 47.15281L32.076716 48.587511L32.03718 50.078705L32.044256 51.624923L32.097938 53.224638L32.198194 54.876272L32.344958 56.578194L32.53814 58.328725L32.777617 60.126137L33.063237 61.968657L33.39482 63.854465L33.772157 65.781702L34.195009 67.748465L34.66311 69.752813L35.176163 71.792769L35.733845 73.866318L36.335803 75.971415L36.981657 78.105982L37.671 80.267912L38.403395 82.455072L39.17838 84.665304L39.995467 86.896427L40.854137 89.146237L41.75385 91.412516L42.694037 93.693026L43.674105 95.985518L44.693433 98.287728L45.751378 100.59738L46.847273 102.91221L47.980424 105.22992L49.150117 107.54822L50.355612 109.86483L51.596147 112.17746L52.870941 114.48383L54.179186 116.78166L55.520057 119.06869L56.892707 121.34266L58.296269 123.60132L59.729857 125.84244L61.192564 128.06382L62.683468 130.26327L64.201626 132.4386L65.746079 134.58767L67.315853 136.70837L68.909954 138.7986L70.527378 140.85629L72.167101 142.87943L73.828089 144.866L75.509292 146.81405L77.209648 148.72166L78.928084 150.58694L80.663513 152.40806L82.414841 154.18321L84.18096 155.91065L85.960755 157.58867L87.753102 159.21561L89.556868 160.78986L91.370916 162.30989L93.194098 163.77418L95.025263 165.18128L96.863255 166.52982L98.706913 167.81846L100.55507 169.04593L102.40656 170.21101L104.26022 171.31256L106.11487 172.34949L107.96935 173.32078L109.82247 174.22546L111.67307 175.06265L113.51999 175.83152L115.36205 176.53131L117.19809 177.16133L119.02696 177.72095L120.84749 178.20963L122.65853 178.62689L124.45895 178.97231L126.24761 179.24554L128.02337 179.44633L129.78512 179.57448L131.53173 179.62984L133.26212 179.61238L134.97518 179.52211L136.66984 179.35912L138.34501 179.12356L139.99966 178.81568L141.63272 178.43577L143.24317 177.98422L144.82999 177.46145L146.39218 176.868L147.92875 176.20445L149.43874 175.47145L150.92118 174.66973L152.37514 173.80007L153.79971 172.86333L155.19398 171.86045L156.55708 170.79241L157.88813 169.66025L159.18631 168.46511L160.45078 167.20816L161.68076 165.89064L162.87547 164.51385L164.03414 163.07915L165.15606 161.58796L166.24051 160.04174L167.2868 158.44203L168.29427 156.79039L169.2623 155.08847L170.19026 153.33794L171.07757 151.54053L171.92367 149.69801L172.72803 147.8122L173.49014 145.88496L174.20951 143.9182L174.8857 141.91385L175.51827 139.8739L176.10682 137.80035L176.65099 135.69525L177.15043 133.56068L177.60482 131.39875L178.01388 129.21159L178.37736 127.00136L178.69501 124.77024L178.96663 122.52043L179.19207 120.25415L179.37117 117.97364L179.50383 115.68115L179.58995 113.37894L179.62948 111.06928L179.62241 108.75446L179.56873 106.43675L179.46847 104.11845L179.32171 101.80184L179.12852 99.489206L178.88905 97.182836L178.60343 94.885002L178.27184 92.597974L177.89451 90.324007L177.47165 88.065346L177.00355 85.824219L176.4905 83.60284L175.93282 81.403399L175.33086 79.228067L174.68501 77.078992L173.99566 74.958294L173.26327 72.868066L172.48828 70.81037L171.6712 68.787238L170.81253 66.800666L169.91281 64.852614L168.97263 62.945006L167.99256 61.079723L166.97323 59.258606L165.91529 57.483453L164.81939 55.756016L163.68624 54.077999L162.51655 52.451058L161.31105 50.876799L160.07052 49.356776L158.79572 47.892488L157.48748 46.48538L156.14661 45.136842L154.77396 43.848204L153.37039 42.620738L151.93681 41.455655L150.4741 40.354105L148.9832 39.317175L147.46504 38.345889L145.92058 37.441204L144.35081 36.604014L142.75671 35.835146L141.13929 35.135357L139.49956 34.505338L137.83857 33.945711L136.15737 33.457029L134.45702 33.039774L132.73858 32.694357L131.00315 32.421119L129.25182 32.220331L127.4857 32.092189L125.70591 32.036821L123.91356 32.054281L122.1098 32.144553L120.29575 32.307546L118.47257 32.5431L116.6414 32.850983L114.80341 33.230891L112.95975 33.682449L111.11159 34.20521L109.2601 34.798661L107.40644 35.462213L105.55179 36.195214L103.69732 36.996939L101.84419 37.866597L99.99359 38.80333L98.146675 39.806214L96.304614 40.874258L94.468572 42.006409L92.639708 43.20155L90.819178 44.458501L89.008131 45.776021L87.207711 47.15281L85.419055 48.587511L83.643293 50.078705L81.881547 51.624923L80.13493 53.224638L78.404544 54.876272L76.691483 56.578194L74.996828 58.328725L73.321651 60.126137L71.667008 61.968657L70.033946 63.854465L68.423495 65.781702L66.836674 67.748465L65.274483 69.752813L63.73791 71.792769L62.227926 73.866318L60.745483 75.971415L59.291519 78.105982L57.866952 80.267912L56.472682 82.455072L55.109589 84.665304L53.778534 86.896427L52.480357 89.146237L51.21588 91.412516L49.985901 93.693026L48.791195 95.985518L47.632519 98.287728L46.510604 100.59738L45.426158 102.91221L44.379867 105.22992L43.372391 107.54822L42.404366 109.86483L41.476405 112.17746L40.589093 114.48383L39.74299 116.78166L38.938632 119.06869L38.176526 121.34266L37.457153 123.60132L36.780968 125.84244L36.148399 128.06382L35.559843 130.26327L35.015674 132.4386L34.516235 134.58767L34.061841 136.70837L33.65278 138.7986L33.289309 140.85629L32.971659 142.87943L32.70003 144.866L32.474593 146.81405L32.295491 148.72166L32.162837 150.58694L32.076716 152.40806L32.03718 154.18321L32.044256 155.91065L32.097938 157.58867L32.198194 159.21561L32.344958 160.78986L32.53814 162.30989L32.777617 163.77418L33.063237 165.18128L33.39482 166.52982L33.772157 167.81846L34.195009 169.04593L34.66311 170.21101L35.176163 171.31256L35.733845 172.34949L36.335803 173.32078L36.981657 174.22546L37.671 175.06265L38.403395 175.83152L39.17838 176.53131L39.995467 177.16133L40.854137 177.72095L41.75385 178.20963L42.694037 178.62689L43.674105 178.97231L44.693433 179.24554L45.751378 179.44633L46.847273 179.57448L47.980424 179.62984L49.150117 179.61238L50.355612 179.52211L51.596147 179.35912L52.870941 179.12356L54.179186 178.81568L55.520057 178.43577L56.892707 177.98422L58.296269 177.46145L59.729857 176.868L61.192564 176.20445L62.683468 175.47145L64.201626 174.66973L65.746079 173.80007L67.315853 172.86333L68.909954 171.86045L70.527378 170.79241L72.167101 169.66025L73.828089 168.46511L75.509292 167.20816L77.209648 165.89064L78.928084 164.51385L80.663513 163.07915L82.414841 161.58796L84.18096 160.04174L85.960755 158.44203L87.753102 156.79039L89.556868 155.08847L91.370916 153.33794L93.194098 151.54053L95.025263 149.69801L96.863255 147.8122L98.706913 145.88496L100.55507 143.9182L102.40656 141.91385L104.26022 139.8739L106.11487 137.80035L107.96935 135.69525L109.82247 133.56068L111.67307 131.39875L113.51999 129.21159L115.36205 127.00136L117.19809 124.77024L119.02696 122.52043L120.84749 120.25415L122.65853 117.97364L124.45895 115.68115L126.24761 113.37894L128.02337 111.06928L129.78512 108.75446L131.53173 106.43675L133.26212 104.11845L134.97518 101.80184L136.66984 99.489206L138.34501 97.182836L139.99966 94.885002L141.63272 92.597974L143.24317 90.324007L144.82999 88.065346L146.39218 85.824219L147.92875 83.60284L149.43874 81.403399L150.92118 79.228067L152.37514 77.078992L153.79971 74.958294L155.19398 72.868066L156.55708 70.81037L157.88813 68.787238L159.18631 66.800666L160.45078 64.852614L161.68076 62.945006L162.87547 61.079723L164.03414 59.258606L165.15606 57.483453L166.24051 55.756016L167.2868 54.077999L168.29427 52.451058L169.2623 50.876799L170.19026 49.356776L171.07757 47.892488L171.92367 46.48538L172.72803 45.136842L173.49014 43.848204L174.20951 42.620738L174.8857 41.455655L175.51827 40.354105L176.10682 39.317175L176.65099 38.345889L177.15043 37.441204L177.60482 36.604014L178.01388 35.835146L178.37736 35.135357L178.69501 34.505338L178.96663 33.945711L179.19207 33.457029L179.37117 33.039774L179.50383 32.694357L179.58995 32.421119L179.62948 32.220331L179.62241 32.092189L179.56873 32.036821L179.46847 32.054281L179.32171 32.144553L179.12852 32.307546L178.88905 32.5431L178.60343 32.850983L178.27184 33.230891L177.89451 33.682449L177.47165 34.20521L177.00355 34.798661L176.4905 35.462213L175.93282 36.195214L175.33086 36.996939L174.68501 37.866597L173.99566 38.80333L173.26327 39.806214L172.48828 40.874258L171.6712 42.006409L170.81253 43.20155L169.91281 44.458501L168.97263 45.776021L167.99256 47.15281L166.97323 48.587511L165.91529 50.078705L164.81939 51.624923L163.68624 53.224638L162.51655 54.876272L161.31105 56.578194L160.07052 58.328725L158.79572 60.126137L157.48748 61.968657L156.14661 63.854465L154.77396 65.781702L153.37039 67.748465L151.93681 69.752813L150.4741 71.792769L148.9832 73.866318L147.46504 75.971415L145.92058 78.105982L144.35081 80.267912L142.75671 82.455072L141.13929 84.665304L139.49956 86.896427L137.83857 89.146237L136.15737 91.412516L134.45702 93.693026L132.73858 95.985518L131.00315 98.287728L129.25182 100.59738L127.4857 102.91221L125.70591 105.22992L123.91356 107.54822L122.1098 109.86483L120.29575 112.17746L118.47257 114.48383L116.6414 116.78166L114.80341 119.06869L112.95975 121.34266L111.11159 123.60132L109.2601 125.84244L107.40644 128.06382L105.55179 130.26327L103.69732 132.4386L101.84419 134.58767L99.99359 136.70837L98.146675 138.7986L96.304614 140.85629L94.468572 142.87943L92.639708 144.866L90.819178 146.81405L89.008131 148.72166L87.207711 150.58694L85.419055 152.40806L83.643293 154.18321L81.881547 155.91065L80.13493 157.58867L78.404544 159.21561L76.691483 160.78986L74.996828 162.30989L73.321651 163.77418L71.667008 165.18128L70.033946 166.52982L68.423495 167.81846L66.836674 169.04593L65.274483 170.21101L63.73791 171.31256L62.227926 172.34949L60.745483 173.32078L59.291519 174.22546L57.866952 175.06265L56.472682 175.83152L55.109589 176.53131L53.778534 177.16133L52.480357 177.72095L51.21588 178.20963L49.985901 178.62689L48.791195 178.97231L47.632519 179.24554L46.510604 179.44633L45.426158 179.57448L44.379867 179.62984L43.372391 179.61238L42.404366 179.52211L41.476405 179.35912L40.589093 179.12356L39.74299 178.81568L38.938632 178.43577L38.176526 177.98422L37.457153 177.46145L36.780968 176.868L36.148399 176.20445L35.559843 175.47145L35.015674 174.66973L34.516235 173.80007L34.061841 172.86333L33.65278 171.86045L33.289309 170.79241L32.971659 169.66025L32.70003 168.46511L32.474593 167.20816L32.295491 165.89064L32.162837 164.51385L32.076716 163.07915L32.03718 161.58796L32.044256 160.04174L32.097938 158.44203L32.198194 156.79039L32.344958 155.08847L32.53814 153.33794L32.777617 151.54053L33.063237 149.69801L33.39482 147.8122L33.772157 145.88496L34.195009 143.9182L34.66311 141.91385L35.176163 139.8739L35.733845 137.80035L36.335803 135.69525L36.981657 133.56068L37.671 131.39875L38.403395 129.21159L39.17838 127.00136L39.995467 124.77024L40.854137 122.52043L41.75385 120.25415L42.694037 117.97364L43.674105 115.68115L44.693433 113.37894L45.751378 111.06928L46.847273 108.75446L47.980424 106.43675L49.150117 104.11845L50.355612 101.80184L51.596147 99.489206L52.870941 97.182836L54.179186 94.885002L55.520057 92.597974L56.892707 90.324007L58.296269 88.065346L59.729857 85.824219L61.192564 83.60284L62.683468 81.403399L64.201626 79.228067L65.746079 77.078992L67.315853 74.958294L68.909954 72.868066L70.527378 70.81037L72.167101 68.787238L73.828089 66.800666L75.509292 64.852614L77.209648 62.945006L78.928084 61.079723L80.663513 59.258606L82.414841 57.483453L84.18096 55.756016L85.960755 54.077999L87.753102 52.451058L89.556868 50.876799L91.370916 49.356776L93.194098 47.892488L95.025263 46.48538L96.863255 45.136842L98.706913 43.848204L100.55507 42.620738L102.40656 41.455655L104.26022 40.354105L106.11487 39.317175L107.96935 38.345889L109.82247 37.441204L111.67307 36.604014L113.51999 35.835146L115.36205 35.135357L117.19809 34.505338L119.02696 33.945711L120.84749 33.457029L122.65853 33.039774L124.45895 32.694357L126.24761 32.421119L128.02337 32.220331L129.78512 32.092189L131.53173 32.036821L133.26212 32.054281L134.97518 32.144553L136.66984 32.307546L138.34501 32.5431L139.99966 32.850983L141.63272 33.230891L143.24317 33.682449L144.82999 34.20521L146.39218 34.798661L147.92875 35.462213L149.43874 36.195214L150.92118 36.996939L152.37514 37.866597L153.79971 38.80333L155.19398 39.806214" style="fill:none;stroke:#37ffff"/></svg>