<svg version="1.1" width="211.66666mm" height="211.66666mm" viewBox="0 0 211.66666 211.66666" xmlns="http://www.w3.org/2000/svg" xmlns:xlink="http://www.w3.org/1999/xlink"><path d="M0 211.66666H211.66666V0H0z" style="fill:#1e1e1e;stroke:#1e1e1e"/><path d="M0 211.66666L5.0396825 206.62698M5.0396825 206.62698L10.079365 211.66666M10.079365 206.62698L15.119047 211.66666M15.119047 211.66666L20.15873 206.62698M20.15873 211.66666L25.198412 206.62698M25.198412 211.66666L30.238095 206.62698M30.238095 211.66666L35.277777 206.62698M35.277777 211.66666L40.31746 206.62698M40.31746 211.66666L45.357142 206.62698M45.357142 211.66666L50.396825 206.62698M50.396825 211.66666L55.436507 206.62698M55.436507 211.66666L60.47619 206.62698M60.47619 211.66666L65.515872 206.62698M65.515872 211.66666L70.555555 206.62698M70.555555 211.66666L75.595237 206.62698M75.595237 211.66666L80.63492 206.62698M80.63492 211.66666L85.674602 206.62698M85.674602 211.66666L90.714285 206.62698M90.714285 211.66666L95.753967 206.62698M95.753967 211.66666L100.79365 206.62698M100.79365 211.66666L105.83333 206.62698M105.83333 211.66666L110.87301 206.62698M110.87301 211.66666L115.9127 206.62698M115.9127 211.66666L120.95238 206.62698M120.95238 211.66666L125.99206 206.62698M125.99206 211.66666L131.03174 206.62698M131.03174 211.66666L136.07143 206.62698M136.07143 206.62698L141.11111 211.66666M141.11111 206.62698L146.15079 211.66666M146.15079 206.62698L151.19047 211.66666M151.19047 211.66666L156.23016 206.62698M156.23016 211.66666L161.26984 206.62698M161.26984 211.66666L166.30952 206.62698M166.30952 206.62698L171.3492 211.66666M171.3492 206.62698L176.38889 211.66666M176.38889 206.62698L181.42857 211.66666M181.42857 206.62698L186.46825 211.66666M186.46825 206.62698L191.50793 211.66666M191.50793 206.62698L196.54762 211.66666M196.54762 206.62698L201.5873 211.66666M201.5873 206.62698L206.62698 211.66666M206.62698 206.62698L211.66666 211.66666M0 201.5873L5.0396825 206.62698M5.0396825 201.5873L10.079365 206.62698M10.079365 201.5873L15.119047 206.62698M15.119047 201.5873L20.15873 206.62698M20.15873 206.62698L25.198412 201.5873M25.198412 206.62698L30.238095 201.5873M30.238095 206.62698L35.277777 201.5873M35.277777 201.5873L40.31746 206.62698M40.31746 201.5873L45.357142 206.62698M45.357142 206.62698L50.396825 201.5873M50.396825 206.62698L55.436507 201.5873M55.436507 206.62698L60.47619 201.5873M60.47619 201.5873L65.515872 206.62698M65.515872 201.5873L70.555555 206.62698M70.555555 206.62698L75.595237 201.5873M75.595237 206.62698L80.63492 201.5873M80.63492 206.62698L85.674602 201.5873M85.674602 206.62698L90.714285 201.5873M90.714285 206.62698L95.753967 201.5873M95.753967 206.62698L100.79365 201.5873M100.79365 206.62698L105.83333 201.5873M105.83333 206.62698L110.87301 201.5873M110.87301 206.62698L115.9127 201.5873M115.9127 206.62698L120.95238 201.5873M120.95238 206.62698L125.99206 201.5873M125.99206 206.62698L131.03174 201.5873M131.03174 206.62698L136.07143 201.5873M136.07143 206.62698L141.11111 201.5873M141.11111 201.5873L146.15079 206.62698M146.15079 201.5873L151.19047 206.62698M151.19047 206.62698L156.23016 201.5873M156.23016 206.62698L161.26984 201.5873M161.26984 206.62698L166.30952 201.5873M166.30952 206.62698L171.3492 201.5873M171.3492 201.5873L176.38889 206.62698M176.38889 201.5873L181.42857 206.62698M181.42857 201.5873L186.46825 206.62698M186.46825 201.5873L191.50793 206.62698M191.50793 201.5873L196.54762 206.62698M196.54762 201.5873L201.5873 206.62698M201.5873 201.5873L206.62698 206.62698M206.62698 201.5873L211.66666 206.62698M0 196.54762L5.0396825 201.5873M5.0396825 196.54762L10.079365 201.5873M10.079365 196.54762L15.119047 201.5873M15.119047 196.54762L20.15873 201.5873M20.15873 196.54762L25.198412 201.5873M25.198412 196.54762L30.238095 201.5873M30.238095 196.54762L35.277777 201.5873M35.277777 196.54762L40.31746 201.5873M40.31746 196.54762L45.357142 201.5873M45.357142 201.5873L50.396825 196.54762M50.396825 201.5873L55.436507 196.54762M55.436507 201.5873L60.47619 196.54762M60.47619 201.5873L65.515872 196.54762M65.515872 201.5873L70.555555 196.54762M70.555555 201.5873L75.595237 196.54762M75.595237 201.5873L80.63492 196.54762M80.63492 201.5873L85.674602 196.54762M85.674602 201.5873L90.714285 196.54762M90.714285 201.5873L95.753967 196.54762M95.753967 201.5873L100.79365 196.54762M100.79365 201.5873L105.83333 196.54762M105.83333 201.5873L110.87301 196.54762M110.87301 201.5873L115.9127 196.54762M115.9127 201.5873L120.95238 196.54762M120.95238 201.5873L125.99206 196.54762M125.99206 201.5873L131.03174 196.54762M131.03174 201.5873L136.07143 196.54762M136.07143 201.5873L141.11111 196.54762M141.11111 201.5873L146.15079 196.54762M146.15079 196.54762L151.19047 201.5873M151.19047 196.54762L156.23016 201.5873M156.23016 196.54762L161.26984 201.5873M161.26984 196.54762L166.30952 201.5873M166.30952 201.5873L171.3492 196.54762M171.3492 201.5873L176.38889 196.54762M176.38889 196.54762L181.42857 201.5873M181.42857 196.54762L186.46825 201.5873M186.46825 196.54762L191.50793 201.5873M191.50793 196.54762L196.54762 201.5873M196.54762 196.54762L201.5873 201.5873M201.5873 196.54762L206.62698 201.5873M206.62698 196.54762L211.66666 201.5873M0 191.50793L5.0396825 196.54762M5.0396825 191.50793L10.079365 196.54762M10.079365 191.50793L15.119047 196.54762M15.119047 191.50793L20.15873 196.54762M20.15873 191.50793L25.198412 196.54762M25.198412 191.50793L30.238095 196.54762M30.238095 191.50793L35.277777 196.54762M35.277777 191.50793L40.31746 196.54762M40.31746 191.50793L45.357142 196.54762M45.357142 191.50793L50.396825 196.54762M50.396825 196.54762L55.436507 191.50793M55.436507 196.54762L60.47619 191.50793M60.47619 196.54762L65.515872 191.50793M65.515872 196.54762L70.555555 191.50793M70.555555 196.54762L75.595237 191.50793M75.595237 196.54762L80.63492 191.50793M80.63492 196.54762L85.674602 191.50793M85.674602 196.54762L90.714285 191.50793M90.714285 196.54762L95.753967 191.50793M95.753967 191.50793L100.79365 196.54762M100.79365 196.54762L105.83333 191.50793M105.83333 196.54762L110.87301 191.50793M110.87301 196.54762L115.9127 191.50793M115.9127 196.54762L120.95238 191.50793M120.95238 196.54762L125.99206 191.50793M125.99206 196.54762L131.03174 191.50793M131.03174 196.54762L136.07143 191.50793M136.07143 196.54762L141.11111 191.50793M141.11111 196.54762L146.15079 191.50793M146.15079 191.50793L151.19047 196.54762M151.19047 191.50793L156.23016 196.54762M156.23016 191.50793L161.26984 196.54762M161.26984 191.50793L166.30952 196.54762M166.30952 191.50793L171.3492 196.54762M171.3492 196.54762L176.38889 191.50793M176.38889 196.54762L181.42857 191.50793M181.42857 191.50793L186.46825 196.54762M186.46825 191.50793L191.50793 196.54762M191.50793 191.50793L196.54762 196.54762M196.54762 191.50793L201.5873 196.54762M201.5873 191.50793L206.62698 196.54762M206.62698 191.50793L211.66666 196.54762M0 186.46825L5.0396825 191.50793M5.0396825 186.46825L10.079365 191.50793M10.079365 186.46825L15.119047 191.50793M15.119047 186.46825L20.15873 191.50793M20.15873 186.46825L25.198412 191.50793M25.198412 186.46825L30.238095 191.50793M30.238095 186.46825L35.277777 191.50793M35.277777 186.46825L40.31746 191.50793M40.31746 186.46825L45.357142 191.50793M45.357142 186.46825L50.396825 191.50793M50.396825 186.46825L55.436507 191.50793M55.436507 191.50793L60.47619 186.46825M60.47619 191.50793L65.515872 186.46825M65.515872 191.50793L70.555555 186.46825M70.555555 191.50793L75.595237 186.46825M75.595237 191.50793L80.63492 186.46825M80.63492 191.50793L85.674602 186.46825M85.674602 191.50793L90.714285 186.46825M90.714285 191.50793L95.753967 186.46825M95.753967 186.46825L100.79365 191.50793M100.79365 186.46825L105.83333 191.50793M105.83333 191.50793L110.87301 186.46825M110.87301 191.50793L115.9127 186.46825M115.9127 191.50793L120.95238 186.46825M120.95238 191.50793L125.99206 186.46825M125.99206 191.50793L131.03174 186.46825M131.03174 191.50793L136.07143 186.46825M136.07143 191.50793L141.11111 186.46825M141.11111 191.50793L146.15079 186.46825M146.15079 186.46825L151.19047 191.50793M151.19047 186.46825L156.23016 191.50793M156.23016 186.46825L161.26984 191.50793M161.26984 186.46825L166.30952 191.50793M166.30952 191.50793L171.3492 186.46825M171.3492 191.50793L176.38889 186.46825M176.38889 191.50793L181.42857 186.46825M181.42857 186.46825L186.46825 191.50793M186.46825 186.46825L191.50793 191.50793M191.50793 186.46825L196.54762 191.50793M196.54762 186.46825L201.5873 191.50793M201.5873 186.46825L206.62698 191.50793M206.62698 186.46825L211.66666 191.50793M0 181.42857L5.0396825 186.46825M5.0396825 181.42857L10.079365 186.46825M10.079365 181.42857L15.119047 186.46825M15.119047 181.42857L20.15873 186.46825M20.15873 181.42857L25.198412 186.46825M25.198412 181.42857L30.238095 186.46825M30.238095 181.42857L35.277777 186.46825M35.277777 181.42857L40.31746 186.46825M40.31746 181.42857L45.357142 186.46825M45.357142 181.42857L50.396825 186.46825M50.396825 181.42857L55.436507 186.46825M55.436507 181.42857L60.47619 186.46825M60.47619 181.42857L65.515872 186.46825M65.515872 181.42857L70.555555 186.46825M70.555555 186.46825L75.595237 181.42857M75.595237 186.46825L80.63492 181.42857M80.63492 186.46825L85.674602 181.42857M85.674602 186.46825L90.714285 181.42857M90.714285 186.46825L95.753967 181.42857M95.753967 181.42857L100.79365 186.46825M100.79365 181.42857L105.83333 186.46825M105.83333 186.46825L110.87301 181.42857M110.87301 186.46825L115.9127 181.42857M115.9127 186.46825L120.95238 181.42857M120.95238 181.42857L125.99206 186.46825M125.99206 181.42857L131.03174 186.46825M131.03174 186.46825L136.07143 181.42857M136.07143 186.46825L141.11111 181.42857M141.11111 186.46825L146.15079 181.42857M146.15079 181.42857L151.19047 186.46825M151.19047 181.42857L156.23016 186.46825M156.23016 181.42857L161.26984 186.46825M161.26984 181.42857L166.30952 186.46825M166.30952 186.46825L171.3492 181.42857M171.3492 186.46825L176.38889 181.42857M176.38889 186.46825L181.42857 181.42857M181.42857 181.42857L186.46825 186.46825M186.46825 181.42857L191.50793 186.46825M191.50793 181.42857L196.54762 186.46825M196.54762 181.42857L201.5873 186.46825M201.5873 181.42857L206.62698 186.46825M206.62698 181.42857L211.66666 186.46825M0 176.38889L5.0396825 181.42857M5.0396825 176.38889L10.079365 181.42857M10.079365 176.38889L15.119047 181.42857M15.119047 176.38889L20.15873 181.42857M20.15873 176.38889L25.198412 181.42857M25.198412 176.38889L30.238095 181.42857M30.238095 176.38889L35.277777 181.42857M35.277777 176.38889L40.31746 181.42857M40.31746 176.38889L45.357142 181.42857M45.357142 176.38889L50.396825 181.42857M50.396825 176.38889L55.436507 181.42857M55.436507 176.38889L60.47619 181.42857M60.47619 181.42857L65.515872 176.38889M65.515872 181.42857L70.555555 176.38889M70.555555 181.42857L75.595237 176.38889M75.595237 181.42857L80.63492 176.38889M80.63492 181.42857L85.674602 176.38889M85.674602 181.42857L90.714285 176.38889M90.714285 181.42857L95.753967 176.38889M95.753967 181.42857L100.79365 176.38889M100.79365 176.38889L105.83333 181.42857M105.83333 176.38889L110.87301 181.42857M110.87301 176.38889L115.9127 181.42857M115.9127 181.42857L120.95238 176.38889M120.95238 176.38889L125.99206 181.42857M125.99206 176.38889L131.03174 181.42857M131.03174 181.42857L136.07143 176.38889M136.07143 181.42857L141.11111 176.38889M141.11111 181.42857L146.15079 176.38889M146.15079 176.38889L151.19047 181.42857M151.19047 176.38889L156.23016 181.42857M156.23016 176.38889L161.26984 181.42857M161.26984 181.42857L166.30952 176.38889M166.30952 181.42857L171.3492 176.38889M171.3492 181.42857L176.38889 176.38889M176.38889 181.42857L181.42857 176.38889M181.42857 176.38889L186.46825 181.42857M186.46825 176.38889L191.50793 181.42857M191.50793 176.38889L196.54762 181.42857M196.54762 176.38889L201.5873 181.42857M201.5873 176.38889L206.62698 181.42857M206.62698 176.38889L211.66666 181.42857M0 176.38889L5.0396825 171.3492M5.0396825 171.3492L10.079365 176.38889M10.079365 171.3492L15.119047 176.38889M15.119047 171.3492L20.15873 176.38889M20.15873 171.3492L25.198412 176.38889M25.198412 171.3492L30.238095 176.38889M30.238095 171.3492L35.277777 176.38889M35.277777 171.3492L40.31746 176.38889M40.31746 176.38889L45.357142 171.3492M45.357142 176.38889L50.396825 171.3492M50.396825 176.38889L55.436507 171.3492M55.436507 176.38889L60.47619 171.3492M60.47619 176.38889L65.515872 171.3492M65.515872 176.38889L70.555555 171.3492M70.555555 176.38889L75.595237 171.3492M75.595237 176.38889L80.63492 171.3492M80.63492 171.3492L85.674602 176.38889M85.674602 176.38889L90.714285 171.3492M90.714285 176.38889L95.753967 171.3492M95.753967 176.38889L100.79365 171.3492M100.79365 176.38889L105.83333 171.3492M105.83333 171.3492L110.87301 176.38889M110.87301 176.38889L115.9127 171.3492M115.9127 176.38889L120.95238 171.3492M120.95238 176.38889L125.99206 171.3492M125.99206 176.38889L131.03174 171.3492M131.03174 176.38889L136.07143 171.3492M136.07143 176.38889L141.11111 171.3492M141.11111 176.38889L146.15079 171.3492M146.15079 176.38889L151.19047 171.3492M151.19047 176.38889L156.23016 171.3492M156.23016 176.38889L161.26984 171.3492M161.26984 176.38889L166.30952 171.3492M166.30952 176.38889L171.3492 171.3492M171.3492 176.38889L176.38889 171.3492M176.38889 176.38889L181.42857 171.3492M181.42857 176.38889L186.46825 171.3492M186.46825 176.38889L191.50793 171.3492M191.50793 171.3492L196.54762 176.38889M196.54762 171.3492L201.5873 176.38889M201.5873 171.3492L206.62698 176.38889M206.62698 171.3492L211.66666 176.38889M0 171.3492L5.0396825 166.30952M5.0396825 166.30952L10.079365 171.3492M10.079365 166.30952L15.119047 171.3492M15.119047 166.30952L20.15873 171.3492M20.15873 166.30952L25.198412 171.3492M25.198412 166.30952L30.238095 171.3492M30.238095 166.30952L35.277777 171.3492M35.277777 171.3492L40.31746 166.30952M40.31746 171.3492L45.357142 166.30952M45.357142 171.3492L50.396825 166.30952M50.396825 171.3492L55.436507 166.30952M55.436507 171.3492L60.47619 166.30952M60.47619 171.3492L65.515872 166.30952M65.515872 171.3492L70.555555 166.30952M70.555555 171.3492L75.595237 166.30952M75.595237 171.3492L80.63492 166.30952M80.63492 166.30952L85.674602 171.3492M85.674602 166.30952L90.714285 171.3492M90.714285 171.3492L95.753967 166.30952M95.753967 171.3492L100.79365 166.30952M100.79365 171.3492L105.83333 166.30952M105.83333 171.3492L110.87301 166.30952M110.87301 171.3492L115.9127 166.30952M115.9127 171.3492L120.95238 166.30952M120.95238 171.3492L125.99206 166.30952M125.99206 171.3492L131.03174 166.30952M131.03174 171.3492L136.07143 166.30952M136.07143 171.3492L141.11111 166.30952M141.11111 171.3492L146.15079 166.30952M146.15079 171.3492L151.19047 166.30952M151.19047 171.3492L156.23016 166.30952M156.23016 171.3492L161.26984 166.30952M161.26984 171.3492L166.30952 166.30952M166.30952 171.3492L171.3492 166.30952M171.3492 171.3492L176.38889 166.30952M176.38889 171.3492L181.42857 166.30952M181.42857 171.3492L186.46825 166.30952M186.46825 171.3492L191.50793 166.30952M191.50793 171.3492L196.54762 166.30952M196.54762 166.30952L201.5873 171.3492M201.5873 166.30952L206.62698 171.3492M206.62698 166.30952L211.66666 171.3492M0 161.26984L5.0396825 166.30952M5.0396825 161.26984L10.079365 166.30952M10.079365 161.26984L15.119047 166.30952M15.119047 161.26984L20.15873 166.30952M20.15873 161.26984L25.198412 166.30952M25.198412 161.26984L30.238095 166.30952M30.238095 161.26984L35.277777 166.30952M35.277777 161.26984L40.31746 166.30952M40.31746 161.26984L45.357142 166.30952M45.357142 161.26984L50.396825 166.30952M50.396825 161.26984L55.436507 166.30952M55.436507 161.26984L60.47619 166.30952M60.47619 161.26984L65.515872 166.30952M65.515872 166.30952L70.555555 161.26984M70.555555 161.26984L75.595237 166.30952M75.595237 161.26984L80.63492 166.30952M80.63492 161.26984L85.674602 166.30952M85.674602 166.30952L90.714285 161.26984M90.714285 166.30952L95.753967 161.26984M95.753967 166.30952L100.79365 161.26984M100.79365 166.30952L105.83333 161.26984M105.83333 166.30952L110.87301 161.26984M110.87301 161.26984L115.9127 166.30952M115.9127 166.30952L120.95238 161.26984M120.95238 166.30952L125.99206 161.26984M125.99206 166.30952L131.03174 161.26984M131.03174 166.30952L136.07143 161.26984M136.07143 166.30952L141.11111 161.26984M141.11111 166.30952L146.15079 161.26984M146.15079 161.26984L151.19047 166.30952M151.19047 161.26984L156.23016 166.30952M156.23016 161.26984L161.26984 166.30952M161.26984 161.26984L166.30952 166.30952M166.30952 166.30952L171.3492 161.26984M171.3492 166.30952L176.38889 161.26984M176.38889 166.30952L181.42857 161.26984M181.42857 166.30952L186.46825 161.26984M186.46825 166.30952L191.50793 161.26984M191.50793 166.30952L196.54762 161.26984M196.54762 161.26984L201.5873 166.30952M201.5873 161.26984L206.62698 166.30952M206.62698 161.26984L211.66666 166.30952M0 156.23016L5.0396825 161.26984M5.0396825 161.26984L10.079365 156.23016M10.079365 156.23016L15.119047 161.26984M15.119047 156.23016L20.15873 161.26984M20.15873 156.23016L25.198412 161.26984M25.198412 156.23016L30.238095 161.26984M30.238095 156.23016L35.277777 161.26984M35.277777 156.23016L40.31746 161.26984M40.31746 156.23016L45.357142 161.26984M45.357142 156.23016L50.396825 161.26984M50.396825 156.23016L55.436507 161.26984M55.436507 156.23016L60.47619 161.26984M60.47619 156.23016L65.515872 161.26984M65.515872 156.23016L70.555555 161.26984M70.555555 156.23016L75.595237 161.26984M75.595237 156.23016L80.63492 161.26984M80.63492 161.26984L85.674602 156.23016M85.674602 161.26984L90.714285 156.23016M90.714285 161.26984L95.753967 156.23016M95.753967 161.26984L100.79365 156.23016M100.79365 161.26984L105.83333 156.23016M105.83333 161.26984L110.87301 156.23016M110.87301 156.23016L115.9127 161.26984M115.9127 156.23016L120.95238 161.26984M120.95238 161.26984L125.99206 156.23016M125.99206 161.26984L131.03174 156.23016M131.03174 156.23016L136.07143 161.26984M136.07143 156.23016L141.11111 161.26984M141.11111 156.23016L146.15079 161.26984M146.15079 156.23016L151.19047 161.26984M151.19047 156.23016L156.23016 161.26984M156.23016 156.23016L161.26984 161.26984M161.26984 156.23016L166.30952 161.26984M166.30952 161.26984L171.3492 156.23016M171.3492 161.26984L176.38889 156.23016M176.38889 161.26984L181.42857 156.23016M181.42857 156.23016L186.46825 161.26984M186.46825 156.23016L191.50793 161.26984M191.50793 156.23016L196.54762 161.26984M196.54762 156.23016L201.5873 161.26984M201.5873 156.23016L206.62698 161.26984M206.62698 156.23016L211.66666 161.26984M0 151.19047L5.0396825 156.23016M5.0396825 156.23016L10.079365 151.19047M10.079365 151.19047L15.119047 156.23016M15.119047 151.19047L20.15873 156.23016M20.15873 151.19047L25.198412 156.23016M25.198412 151.19047L30.238095 156.23016M30.238095 151.19047L35.277777 156.23016M35.277777 151.19047L40.31746 156.23016M40.31746 151.19047L45.357142 156.23016M45.357142 151.19047L50.396825 156.23016M50.396825 151.19047L55.436507 156.23016M55.436507 151.19047L60.47619 156.23016M60.47619 156.23016L65.515872 151.19047M65.515872 151.19047L70.555555 156.23016M70.555555 151.19047L75.595237 156.23016M75.595237 151.19047L80.63492 156.23016M80.63492 151.19047L85.674602 156.23016M85.674602 156.23016L90.714285 151.19047M90.714285 156.23016L95.753967 151.19047M95.753967 156.23016L100.79365 151.19047M100.79365 156.23016L105.83333 151.19047M105.83333 156.23016L110.87301 151.19047M110.87301 151.19047L115.9127 156.23016M115.9127 151.19047L120.95238 156.23016M120.95238 151.19047L125.99206 156.23016M125.99206 156.23016L131.03174 151.19047M131.03174 151.19047L136.07143 156.23016M136.07143 151.19047L141.11111 156.23016M141.11111 151.19047L146.15079 156.23016M146.15079 151.19047L151.19047 156.23016M151.19047 151.19047L156.23016 156.23016M156.23016 151.19047L161.26984 156.23016M161.26984 151.19047L166.30952 156.23016M166.30952 156.23016L171.3492 151.19047M171.3492 156.23016L176.38889 151.19047M176.38889 156.23016L181.42857 151.19047M181.42857 151.19047L186.46825 156.23016M186.46825 151.19047L191.50793 156.23016M191.50793 151.19047L196.54762 156.23016M196.54762 151.19047L201.5873 156.23016M201.5873 151.19047L206.62698 156.23016M206.62698 151.19047L211.66666 156.23016M0 146.15079L5.0396825 151.19047M5.0396825 146.15079L10.079365 151.19047M10.079365 146.15079L15.119047 151.19047M15.119047 146.15079L20.15873 151.19047M20.15873 146.15079L25.198412 151.19047M25.198412 146.15079L30.238095 151.19047M30.238095 146.15079L35.277777 151.19047M35.277777 146.15079L40.31746 151.19047M40.31746 146.15079L45.357142 151.19047M45.357142 146.15079L50.396825 151.19047M50.396825 151.19047L55.436507 146.15079M55.436507 151.19047L60.47619 146.15079M60.47619 151.19047L65.515872 146.15079M65.515872 151.19047L70.555555 146.15079M70.555555 151.19047L75.595237 146.15079M75.595237 151.19047L80.63492 146.15079M80.63492 151.19047L85.674602 146.15079M85.674602 151.19047L90.714285 146.15079M90.714285 151.19047L95.753967 146.15079M95.753967 151.19047L100.79365 146.15079M100.79365 151.19047L105.83333 146.15079M105.83333 151.19047L110.87301 146.15079M110.87301 151.19047L115.9127 146.15079M115.9127 146.15079L120.95238 151.19047M120.95238 151.19047L125.99206 146.15079M125.99206 151.19047L131.03174 146.15079M131.03174 146.15079L136.07143 151.19047M136.07143 146.15079L141.11111 151.19047M141.11111 146.15079L146.15079 151.19047M146.15079 146.15079L151.19047 151.19047M151.19047 146.15079L156.23016 151.19047M156.23016 146.15079L161.26984 151.19047M161.26984 146.15079L166.30952 151.19047M166.30952 146.15079L171.3492 151.19047M171.3492 151.19047L176.38889 146.15079M176.38889 151.19047L181.42857 146.15079M181.42857 146.15079L186.46825 151.19047M186.46825 146.15079L191.50793 151.19047M191.50793 146.15079L196.54762 151.19047M196.54762 146.15079L201.5873 151.19047M201.5873 146.15079L206.62698 151.19047M206.62698 146.15079L211.66666 151.19047M0 146.15079L5.0396825 141.11111M5.0396825 141.11111L10.079365 146.15079M10.079365 141.11111L15.119047 146.15079M15.119047 141.11111L20.15873 146.15079M20.15873 141.11111L25.198412 146.15079M25.198412 141.11111L30.238095 146.15079M30.238095 141.11111L35.277777 146.15079M35.277777 141.11111L40.31746 146.15079M40.31746 141.11111L45.357142 146.15079M45.357142 141.11111L50.396825 146.15079M50.396825 146.15079L55.436507 141.11111M55.436507 146.15079L60.47619 141.11111M60.47619 146.15079L65.515872 141.11111M65.515872 146.15079L70.555555 141.11111M70.555555 146.15079L75.595237 141.11111M75.595237 146.15079L80.63492 141.11111M80.63492 146.15079L85.674602 141.11111M85.674602 146.15079L90.714285 141.11111M90.714285 146.15079L95.753967 141.11111M95.753967 146.15079L100.79365 141.11111M100.79365 146.15079L105.83333 141.11111M105.83333 146.15079L110.87301 141.11111M110.87301 146.15079L115.9127 141.11111M115.9127 146.15079L120.95238 141.11111M120.95238 146.15079L125.99206 141.11111M125.99206 146.15079L131.03174 141.11111M131.03174 141.11111L136.07143 146.15079M136.07143 141.11111L141.11111 146.15079M141.11111 141.11111L146.15079 146.15079M146.15079 141.11111L151.19047 146.15079M151.19047 141.11111L156.23016 146.15079M156.23016 141.11111L161.26984 146.15079M161.26984 141.11111L166.30952 146.15079M166.30952 141.11111L171.3492 146.15079M171.3492 146.15079L176.38889 141.11111M176.38889 146.15079L181.42857 141.11111M181.42857 141.11111L186.46825 146.15079M186.46825 141.11111L191.50793 146.15079M191.50793 141.11111L196.54762 146.15079M196.54762 141.11111L201.5873 146.15079M201.5873 141.11111L206.62698 146.15079M206.62698 141.11111L211.66666 146.15079M0 141.11111L5.0396825 136.07143M5.0396825 136.07143L10.079365 141.11111M10.079365 136.07143L15.119047 141.11111M15.119047 136.07143L20.15873 141.11111M20.15873 136.07143L25.198412 141.11111M25.198412 136.07143L30.238095 141.11111M30.238095 136.07143L35.277777 141.11111M35.277777 136.07143L40.31746 141.11111M40.31746 136.07143L45.357142 141.11111M45.357142 136.07143L50.396825 141.11111M50.396825 141.11111L55.436507 136.07143M55.436507 141.11111L60.47619 136.07143M60.47619 141.11111L65.515872 136.07143M65.515872 141.11111L70.555555 136.07143M70.555555 141.11111L75.595237 136.07143M75.595237 141.11111L80.63492 136.07143M80.63492 136.07143L85.674602 141.11111M85.674602 136.07143L90.714285 141.11111M90.714285 141.11111L95.753967 136.07143M95.753967 141.11111L100.79365 136.07143M100.79365 141.11111L105.83333 136.07143M105.83333 141.11111L110.87301 136.07143M110.87301 141.11111L115.9127 136.07143M115.9127 141.11111L120.95238 136.07143M120.95238 141.11111L125.99206 136.07143M125.99206 141.11111L131.03174 136.07143M131.03174 141.11111L136.07143 136.07143M136.07143 136.07143L141.11111 141.11111M141.11111 136.07143L146.15079 141.11111M146.15079 136.07143L151.19047 141.11111M151.19047 136.07143L156.23016 141.11111M156.23016 136.07143L161.26984 141.11111M161.26984 136.07143L166.30952 141.11111M166.30952 136.07143L171.3492 141.11111M171.3492 136.07143L176.38889 141.11111M176.38889 136.07143L181.42857 141.11111M181.42857 136.07143L186.46825 141.11111M186.46825 136.07143L191.50793 141.11111M191.50793 136.07143L196.54762 141.11111M196.54762 136.07143L201.5873 141.11111M201.5873 136.07143L206.62698 141.11111M206.62698 136.07143L211.66666 141.11111M0 136.07143L5.0396825 131.03174M5.0396825 131.03174L10.079365 136.07143M10.079365 131.03174L15.119047 136.07143M15.119047 131.03174L20.15873 136.07143M20.15873 131.03174L25.198412 136.07143M25.198412 136.07143L30.238095 131.03174M30.238095 136.07143L35.277777 131.03174M35.277777 136.07143L40.31746 131.03174M40.31746 136.07143L45.357142 131.03174M45.357142 136.07143L50.396825 131.03174M50.396825 136.07143L55.436507 131.03174M55.436507 136.07143L60.47619 131.03174M60.47619 136.07143L65.515872 131.03174M65.515872 136.07143L70.555555 131.03174M70.555555 131.03174L75.595237 136.07143M75.595237 131.03174L80.63492 136.07143M80.63492 131.03174L85.674602 136.07143M85.674602 131.03174L90.714285 136.07143M90.714285 131.03174L95.753967 136.07143M95.753967 136.07143L100.79365 131.03174M100.79365 136.07143L105.83333 131.03174M105.83333 136.07143L110.87301 131.03174M110.87301 131.03174L115.9127 136.07143M115.9127 131.03174L120.95238 136.07143M120.95238 131.03174L125.99206 136.07143M125.99206 136.07143L131.03174 131.03174M131.03174 136.07143L136.07143 131.03174M136.07143 131.03174L141.11111 136.07143M141.11111 131.03174L146.15079 136.07143M146.15079 131.03174L151.19047 136.07143M151.19047 131.03174L156.23016 136.07143M156.23016 131.03174L161.26984 136.07143M161.26984 131.03174L166.30952 136.07143M166.30952 131.03174L171.3492 136.07143M171.3492 131.03174L176.38889 136.07143M176.38889 131.03174L181.42857 136.07143M181.42857 131.03174L186.46825 136.07143M186.46825 131.03174L191.50793 136.07143M191.50793 131.03174L196.54762 136.07143M196.54762 131.03174L201.5873 136.07143M201.5873 131.03174L206.62698 136.07143M206.62698 131.03174L211.66666 136.07143M0 125.99206L5.0396825 131.03174M5.0396825 125.99206L10.079365 131.03174M10.079365 125.99206L15.119047 131.03174M15.119047 131.03174L20.15873 125.99206M20.15873 131.03174L25.198412 125.99206M25.198412 131.03174L30.238095 125.99206M30.238095 131.03174L35.277777 125.99206M35.277777 131.03174L40.31746 125.99206M40.31746 131.03174L45.357142 125.99206M45.357142 131.03174L50.396825 125.99206M50.396825 131.03174L55.436507 125.99206M55.436507 131.03174L60.47619 125.99206M60.47619 131.03174L65.515872 125.99206M65.515872 131.03174L70.555555 125.99206M70.555555 131.03174L75.595237 125.99206M75.595237 125.99206L80.63492 131.03174M80.63492 125.99206L85.674602 131.03174M85.674602 125.99206L90.714285 131.03174M90.714285 125.99206L95.753967 131.03174M95.753967 125.99206L100.79365 131.03174M100.79365 125.99206L105.83333 131.03174M105.83333 125.99206L110.87301 131.03174M110.87301 125.99206L115.9127 131.03174M115.9127 125.99206L120.95238 131.03174M120.95238 125.99206L125.99206 131.03174M125.99206 125.99206L131.03174 131.03174M131.03174 131.03174L136.07143 125.99206M136.07143 125.99206L141.11111 131.03174M141.11111 125.99206L146.15079 131.03174M146.15079 125.99206L151.19047 131.03174M151.19047 125.99206L156.23016 131.03174M156.23016 125.99206L161.26984 131.03174M161.26984 125.99206L166.30952 131.03174M166.30952 125.99206L171.3492 131.03174M171.3492 125.99206L176.38889 131.03174M176.38889 125.99206L181.42857 131.03174M181.42857 125.99206L186.46825 131.03174M186.46825 125.99206L191.50793 131.03174M191.50793 125.99206L196.54762 131.03174M196.54762 125.99206L201.5873 131.03174M201.5873 125.99206L206.62698 131.03174M206.62698 125.99206L211.66666 131.03174M0 120.95238L5.0396825 125.99206M5.0396825 120.95238L10.079365 125.99206M10.079365 120.95238L15.119047 125.99206M15.119047 125.99206L20.15873 120.95238M20.15873 125.99206L25.198412 120.95238M25.198412 125.99206L30.238095 120.95238M30.238095 125.99206L35.277777 120.95238M35.277777 125.99206L40.31746 120.95238M40.31746 125.99206L45.357142 120.95238M45.357142 125.99206L50.396825 120.95238M50.396825 125.99206L55.436507 120.95238M55.436507 125.99206L60.47619 120.95238M60.47619 125.99206L65.515872 120.95238M65.515872 125.99206L70.555555 120.95238M70.555555 125.99206L75.595237 120.95238M75.595237 125.99206L80.63492 120.95238M80.63492 125.99206L85.674602 120.95238M85.674602 120.95238L90.714285 125.99206M90.714285 120.95238L95.753967 125.99206M95.753967 120.95238L100.79365 125.99206M100.79365 125.99206L105.83333 120.95238M105.83333 120.95238L110.87301 125.99206M110.87301 120.95238L115.9127 125.99206M115.9127 120.95238L120.95238 125.99206M120.95238 120.95238L125.99206 125.99206M125.99206 120.95238L131.03174 125.99206M131.03174 120.95238L136.07143 125.99206M136.07143 120.95238L141.11111 125.99206M141.11111 120.95238L146.15079 125.99206M146.15079 120.95238L151.19047 125.99206M151.19047 120.95238L156.23016 125.99206M156.23016 120.95238L161.26984 125.99206M161.26984 120.95238L166.30952 125.99206M166.30952 120.95238L171.3492 125.99206M171.3492 120.95238L176.38889 125.99206M176.38889 120.95238L181.42857 125.99206M181.42857 120.95238L186.46825 125.99206M186.46825 120.95238L191.50793 125.99206M191.50793 120.95238L196.54762 125.99206M196.54762 120.95238L201.5873 125.99206M201.5873 120.95238L206.62698 125.99206M206.62698 120.95238L211.66666 125.99206M0 120.95238L5.0396825 115.9127M5.0396825 115.9127L10.079365 120.95238M10.079365 115.9127L15.119047 120.95238M15.119047 120.95238L20.15873 115.9127M20.15873 120.95238L25.198412 115.9127M25.198412 120.95238L30.238095 115.9127M30.238095 120.95238L35.277777 115.9127M35.277777 120.95238L40.31746 115.9127M40.31746 120.95238L45.357142 115.9127M45.357142 115.9127L50.396825 120.95238M50.396825 115.9127L55.436507 120.95238M55.436507 115.9127L60.47619 120.95238M60.47619 115.9127L65.515872 120.95238M65.515872 120.95238L70.555555 115.9127M70.555555 120.95238L75.595237 115.9127M75.595237 120.95238L80.63492 115.9127M80.63492 120.95238L85.674602 115.9127M85.674602 115.9127L90.714285 120.95238M90.714285 115.9127L95.753967 120.95238M95.753967 115.9127L100.79365 120.95238M100.79365 120.95238L105.83333 115.9127M105.83333 120.95238L110.87301 115.9127M110.87301 115.9127L115.9127 120.95238M115.9127 115.9127L120.95238 120.95238M120.95238 115.9127L125.99206 120.95238M125.99206 115.9127L131.03174 120.95238M131.03174 115.9127L136.07143 120.95238M136.07143 115.9127L141.11111 120.95238M141.11111 115.9127L146.15079 120.95238M146.15079 115.9127L151.19047 120.95238M151.19047 115.9127L156.23016 120.95238M156.23016 115.9127L161.26984 120.95238M161.26984 115.9127L166.30952 120.95238M166.30952 115.9127L171.3492 120.95238M171.3492 115.9127L176.38889 120.95238M176.38889 115.9127L181.42857 120.95238M181.42857 115.9127L186.46825 120.95238M186.46825 115.9127L191.50793 120.95238M191.50793 115.9127L196.54762 120.95238M196.54762 115.9127L201.5873 120.95238M201.5873 115.9127L206.62698 120.95238M206.62698 115.9127L211.66666 120.95238M0 115.9127L5.0396825 110.87301M5.0396825 115.9127L10.079365 110.87301M10.079365 115.9127L15.119047 110.87301M15.119047 115.9127L20.15873 110.87301M20.15873 115.9127L25.198412 110.87301M25.198412 115.9127L30.238095 110.87301M30.238095 115.9127L35.277777 110.87301M35.277777 115.9127L40.31746 110.87301M40.31746 115.9127L45.357142 110.87301M45.357142 110.87301L50.396825 115.9127M50.396825 110.87301L55.436507 115.9127M55.436507 110.87301L60.47619 115.9127M60.47619 110.87301L65.515872 115.9127M65.515872 115.9127L70.555555 110.87301M70.555555 115.9127L75.595237 110.87301M75.595237 115.9127L80.63492 110.87301M80.63492 110.87301L85.674602 115.9127M85.674602 110.87301L90.714285 115.9127M90.714285 110.87301L95.753967 115.9127M95.753967 110.87301L100.79365 115.9127M100.79365 115.9127L105.83333 110.87301M105.83333 115.9127L110.87301 110.87301M110.87301 110.87301L115.9127 115.9127M115.9127 110.87301L120.95238 115.9127M120.95238 110.87301L125.99206 115.9127M125.99206 115.9127L131.03174 110.87301M131.03174 110.87301L136.07143 115.9127M136.07143 110.87301L141.11111 115.9127M141.11111 110.87301L146.15079 115.9127M146.15079 110.87301L151.19047 115.9127M151.19047 110.87301L156.23016 115.9127M156.23016 110.87301L161.26984 115.9127M161.26984 110.87301L166.30952 115.9127M166.30952 110.87301L171.3492 115.9127M171.3492 110.87301L176.38889 115.9127M176.38889 110.87301L181.42857 115.9127M181.42857 110.87301L186.46825 115.9127M186.46825 110.87301L191.50793 115.9127M191.50793 110.87301L196.54762 115.9127M196.54762 115.9127L201.5873 110.87301M201.5873 115.9127L206.62698 110.87301M206.62698 110.87301L211.66666 115.9127M0 110.87301L5.0396825 105.83333M5.0396825 110.87301L10.079365 105.83333M10.079365 105.83333L15.119047 110.87301M15.119047 110.87301L20.15873 105.83333M20.15873 110.87301L25.198412 105.83333M25.198412 110.87301L30.238095 105.83333M30.238095 110.87301L35.277777 105.83333M35.277777 110.87301L40.31746 105.83333M40.31746 105.83333L45.357142 110.87301M45.357142 105.83333L50.396825 110.87301M50.396825 105.83333L55.436507 110.87301M55.436507 110.87301L60.47619 105.83333M60.47619 110.87301L65.515872 105.83333M65.515872 110.87301L70.555555 105.83333M70.555555 110.87301L75.595237 105.83333M75.595237 110.87301L80.63492 105.83333M80.63492 105.83333L85.674602 110.87301M85.674602 105.83333L90.714285 110.87301M90.714285 105.83333L95.753967 110.87301M95.753967 105.83333L100.79365 110.87301M100.79365 105.83333L105.83333 110.87301M105.83333 110.87301L110.87301 105.83333M110.87301 105.83333L115.9127 110.87301M115.9127 105.83333L120.95238 110.87301M120.95238 110.87301L125.99206 105.83333M125.99206 110.87301L131.03174 105.83333M131.03174 110.87301L136.07143 105.83333M136.07143 105.83333L141.11111 110.87301M141.11111 105.83333L146.15079 110.87301M146.15079 105.83333L151.19047 110.87301M151.19047 105.83333L156.23016 110.87301M156.23016 105.83333L161.26984 110.87301M161.26984 105.83333L166.30952 110.87301M166.30952 105.83333L171.3492 110.87301M171.3492 110.87301L176.38889 105.83333M176.38889 105.83333L181.42857 110.87301M181.42857 105.83333L186.46825 110.87301M186.46825 105.83333L191.50793 110.87301M191.50793 105.83333L196.54762 110.87301M196.54762 110.87301L201.5873 105.83333M201.5873 110.87301L206.62698 105.83333M206.62698 105.83333L211.66666 110.87301M0 105.83333L5.0396825 100.79365M5.0396825 105.83333L10.079365 100.79365M10.079365 100.79365L15.119047 105.83333M15.119047 100.79365L20.15873 105.83333M20.15873 105.83333L25.198412 100.79365M25.198412 105.83333L30.238095 100.79365M30.238095 100.79365L35.277777 105.83333M35.277777 100.79365L40.31746 105.83333M40.31746 100.79365L45.357142 105.83333M45.357142 100.79365L50.396825 105.83333M50.396825 100.79365L55.436507 105.83333M55.436507 105.83333L60.47619 100.79365M60.47619 105.83333L65.515872 100.79365M65.515872 105.83333L70.555555 100.79365M70.555555 105.83333L75.595237 100.79365M75.595237 105.83333L80.63492 100.79365M80.63492 105.83333L85.674602 100.79365M85.674602 100.79365L90.714285 105.83333M90.714285 100.79365L95.753967 105.83333M95.753967 100.79365L100.79365 105.83333M100.79365 100.79365L105.83333 105.83333M105.83333 105.83333L110.87301 100.79365M110.87301 105.83333L115.9127 100.79365M115.9127 105.83333L120.95238 100.79365M120.95238 105.83333L125.99206 100.79365M125.99206 105.83333L131.03174 100.79365M131.03174 105.83333L136.07143 100.79365M136.07143 105.83333L141.11111 100.79365M141.11111 100.79365L146.15079 105.83333M146.15079 100.79365L151.19047 105.83333M151.19047 105.83333L156.23016 100.79365M156.23016 105.83333L161.26984 100.79365M161.26984 105.83333L166.30952 100.79365M166.30952 105.83333L171.3492 100.79365M171.3492 105.83333L176.38889 100.79365M176.38889 105.83333L181.42857 100.79365M181.42857 100.79365L186.46825 105.83333M186.46825 100.79365L191.50793 105.83333M191.50793 100.79365L196.54762 105.83333M196.54762 105.83333L201.5873 100.79365M201.5873 100.79365L206.62698 105.83333M206.62698 100.79365L211.66666 105.83333M0 100.79365L5.0396825 95.753967M5.0396825 100.79365L10.079365 95.753967M10.079365 95.753967L15.119047 100.79365M15.119047 95.753967L20.15873 100.79365M20.15873 95.753967L25.198412 100.79365M25.198412 95.753967L30.238095 100.79365M30.238095 95.753967L35.277777 100.79365M35.277777 95.753967L40.31746 100.79365M40.31746 95.753967L45.357142 100.79365M45.357142 95.753967L50.396825 100.79365M50.396825 95.753967L55.436507 100.79365M55.436507 95.753967L60.47619 100.79365M60.47619 95.753967L65.515872 100.79365M65.515872 100.79365L70.555555 95.753967M70.555555 100.79365L75.595237 95.753967M75.595237 100.79365L80.63492 95.753967M80.63492 100.79365L85.674602 95.753967M85.674602 100.79365L90.714285 95.753967M90.714285 100.79365L95.753967 95.753967M95.753967 95.753967L100.79365 100.79365M100.79365 100.79365L105.83333 95.753967M105.83333 100.79365L110.87301 95.753967M110.87301 100.79365L115.9127 95.753967M115.9127 100.79365L120.95238 95.753967M120.95238 100.79365L125.99206 95.753967M125.99206 100.79365L131.03174 95.753967M131.03174 100.79365L136.07143 95.753967M136.07143 100.79365L141.11111 95.753967M141.11111 100.79365L146.15079 95.753967M146.15079 95.753967L151.19047 100.79365M151.19047 100.79365L156.23016 95.753967M156.23016 100.79365L161.26984 95.753967M161.26984 100.79365L166.30952 95.753967M166.30952 100.79365L171.3492 95.753967M171.3492 100.79365L176.38889 95.753967M176.38889 100.79365L181.42857 95.753967M181.42857 100.79365L186.46825 95.753967M186.46825 95.753967L191.50793 100.79365M191.50793 100.79365L196.54762 95.753967M196.54762 100.79365L201.5873 95.753967M201.5873 95.753967L206.62698 100.79365M206.62698 95.753967L211.66666 100.79365M0 95.753967L5.0396825 90.714285M5.0396825 95.753967L10.079365 90.714285M10.079365 95.753967L15.119047 90.714285M15.119047 90.714285L20.15873 95.753967M20.15873 90.714285L25.198412 95.753967M25.198412 90.714285L30.238095 95.753967M30.238095 90.714285L35.277777 95.753967M35.277777 95.753967L40.31746 90.714285M40.31746 95.753967L45.357142 90.714285M45.357142 90.714285L50.396825 95.753967M50.396825 90.714285L55.436507 95.753967M55.436507 90.714285L60.47619 95.753967M60.47619 90.714285L65.515872 95.753967M65.515872 90.714285L70.555555 95.753967M70.555555 95.753967L75.595237 90.714285M75.595237 95.753967L80.63492 90.714285M80.63492 95.753967L85.674602 90.714285M85.674602 95.753967L90.714285 90.714285M90.714285 95.753967L95.753967 90.714285M95.753967 95.753967L100.79365 90.714285M100.79365 95.753967L105.83333 90.714285M105.83333 95.753967L110.87301 90.714285M110.87301 95.753967L115.9127 90.714285M115.9127 95.753967L120.95238 90.714285M120.95238 95.753967L125.99206 90.714285M125.99206 95.753967L131.03174 90.714285M131.03174 95.753967L136.07143 90.714285M136.07143 95.753967L141.11111 90.714285M141.11111 95.753967L146.15079 90.714285M146.15079 90.714285L151.19047 95.753967M151.19047 95.753967L156.23016 90.714285M156.23016 95.753967L161.26984 90.714285M161.26984 95.753967L166.30952 90.714285M166.30952 95.753967L171.3492 90.714285M171.3492 90.714285L176.38889 95.753967M176.38889 90.714285L181.42857 95.753967M181.42857 95.753967L186.46825 90.714285M186.46825 95.753967L191.50793 90.714285M191.50793 95.753967L196.54762 90.714285M196.54762 95.753967L201.5873 90.714285M201.5873 95.753967L206.62698 90.714285M206.62698 90.714285L211.66666 95.753967M0 90.714285L5.0396825 85.674602M5.0396825 90.714285L10.079365 85.674602M10.079365 90.714285L15.119047 85.674602M15.119047 90.714285L20.15873 85.674602M20.15873 85.674602L25.198412 90.714285M25.198412 85.674602L30.238095 90.714285M30.238095 85.674602L35.277777 90.714285M35.277777 85.674602L40.31746 90.714285M40.31746 90.714285L45.357142 85.674602M45.357142 90.714285L50.396825 85.674602M50.396825 85.674602L55.436507 90.714285M55.436507 85.674602L60.47619 90.714285M60.47619 85.674602L65.515872 90.714285M65.515872 90.714285L70.555555 85.674602M70.555555 90.714285L75.595237 85.674602M75.595237 90.714285L80.63492 85.674602M80.63492 90.714285L85.674602 85.674602M85.674602 90.714285L90.714285 85.674602M90.714285 90.714285L95.753967 85.674602M95.753967 90.714285L100.79365 85.674602M100.79365 90.714285L105.83333 85.674602M105.83333 90.714285L110.87301 85.674602M110.87301 90.714285L115.9127 85.674602M115.9127 90.714285L120.95238 85.674602M120.95238 90.714285L125.99206 85.674602M125.99206 90.714285L131.03174 85.674602M131.03174 90.714285L136.07143 85.674602M136.07143 90.714285L141.11111 85.674602M141.11111 85.674602L146.15079 90.714285M146.15079 85.674602L151.19047 90.714285M151.19047 90.714285L156.23016 85.674602M156.23016 90.714285L161.26984 85.674602M161.26984 90.714285L166.30952 85.674602M166.30952 85.674602L171.3492 90.714285M171.3492 85.674602L176.38889 90.714285M176.38889 85.674602L181.42857 90.714285M181.42857 90.714285L186.46825 85.674602M186.46825 90.714285L191.50793 85.674602M191.50793 90.714285L196.54762 85.674602M196.54762 90.714285L201.5873 85.674602M201.5873 90.714285L206.62698 85.674602M206.62698 90.714285L211.66666 85.674602M0 85.674602L5.0396825 80.63492M5.0396825 85.674602L10.079365 80.63492M10.079365 85.674602L15.119047 80.63492M15.119047 85.674602L20.15873 80.63492M20.15873 85.674602L25.198412 80.63492M25.198412 80.63492L30.238095 85.674602M30.238095 80.63492L35.277777 85.674602M35.277777 80.63492L40.31746 85.674602M40.31746 85.674602L45.357142 80.63492M45.357142 80.63492L50.396825 85.674602M50.396825 80.63492L55.436507 85.674602M55.436507 80.63492L60.47619 85.674602M60.47619 80.63492L65.515872 85.674602M65.515872 85.674602L70.555555 80.63492M70.555555 85.674602L75.595237 80.63492M75.595237 85.674602L80.63492 80.63492M80.63492 85.674602L85.674602 80.63492M85.674602 85.674602L90.714285 80.63492M90.714285 85.674602L95.753967 80.63492M95.753967 85.674602L100.79365 80.63492M100.79365 85.674602L105.83333 80.63492M105.83333 85.674602L110.87301 80.63492M110.87301 85.674602L115.9127 80.63492M115.9127 85.674602L120.95238 80.63492M120.95238 85.674602L125.99206 80.63492M125.99206 85.674602L131.03174 80.63492M131.03174 85.674602L136.07143 80.63492M136.07143 85.674602L141.11111 80.63492M141.11111 85.674602L146.15079 80.63492M146.15079 80.63492L151.19047 85.674602M151.19047 85.674602L156.23016 80.63492M156.23016 85.674602L161.26984 80.63492M161.26984 85.674602L166.30952 80.63492M166.30952 85.674602L171.3492 80.63492M171.3492 85.674602L176.38889 80.63492M176.38889 85.674602L181.42857 80.63492M181.42857 85.674602L186.46825 80.63492M186.46825 85.674602L191.50793 80.63492M191.50793 85.674602L196.54762 80.63492M196.54762 85.674602L201.5873 80.63492M201.5873 85.674602L206.62698 80.63492M206.62698 85.674602L211.66666 80.63492M0 80.63492L5.0396825 75.595237M5.0396825 80.63492L10.079365 75.595237M10.079365 80.63492L15.119047 75.595237M15.119047 80.63492L20.15873 75.595237M20.15873 80.63492L25.198412 75.595237M25.198412 80.63492L30.238095 75.595237M30.238095 80.63492L35.277777 75.595237M35.277777 80.63492L40.31746 75.595237M40.31746 80.63492L45.357142 75.595237M45.357142 80.63492L50.396825 75.595237M50.396825 75.595237L55.436507 80.63492M55.436507 75.595237L60.47619 80.63492M60.47619 75.595237L65.515872 80.63492M65.515872 75.595237L70.555555 80.63492M70.555555 75.595237L75.595237 80.63492M75.595237 75.595237L80.63492 80.63492M80.63492 80.63492L85.674602 75.595237M85.674602 80.63492L90.714285 75.595237M90.714285 80.63492L95.753967 75.595237M95.753967 80.63492L100.79365 75.595237M100.79365 80.63492L105.83333 75.595237M105.83333 80.63492L110.87301 75.595237M110.87301 80.63492L115.9127 75.595237M115.9127 80.63492L120.95238 75.595237M120.95238 80.63492L125.99206 75.595237M125.99206 80.63492L131.03174 75.595237M131.03174 80.63492L136.07143 75.595237M136.07143 80.63492L141.11111 75.595237M141.11111 80.63492L146.15079 75.595237M146.15079 80.63492L151.19047 75.595237M151.19047 80.63492L156.23016 75.595237M156.23016 80.63492L161.26984 75.595237M161.26984 80.63492L166.30952 75.595237M166.30952 80.63492L171.3492 75.595237M171.3492 80.63492L176.38889 75.595237M176.38889 80.63492L181.42857 75.595237M181.42857 80.63492L186.46825 75.595237M186.46825 80.63492L191.50793 75.595237M191.50793 80.63492L196.54762 75.595237M196.54762 80.63492L201.5873 75.595237M201.5873 80.63492L206.62698 75.595237M206.62698 80.63492L211.66666 75.595237M0 75.595237L5.0396825 70.555555M5.0396825 75.595237L10.079365 70.555555M10.079365 75.595237L15.119047 70.555555M15.119047 75.595237L20.15873 70.555555M20.15873 75.595237L25.198412 70.555555M25.198412 75.595237L30.238095 70.555555M30.238095 75.595237L35.277777 70.555555M35.277777 75.595237L40.31746 70.555555M40.31746 75.595237L45.357142 70.555555M45.357142 75.595237L50.396825 70.555555M50.396825 70.555555L55.436507 75.595237M55.436507 70.555555L60.47619 75.595237M60.47619 70.555555L65.515872 75.595237M65.515872 70.555555L70.555555 75.595237M70.555555 75.595237L75.595237 70.555555M75.595237 75.595237L80.63492 70.555555M80.63492 75.595237L85.674602 70.555555M85.674602 75.595237L90.714285 70.555555M90.714285 75.595237L95.753967 70.555555M95.753967 75.595237L100.79365 70.555555M100.79365 75.595237L105.83333 70.555555M105.83333 75.595237L110.87301 70.555555M110.87301 75.595237L115.9127 70.555555M115.9127 75.595237L120.95238 70.555555M120.95238 75.595237L125.99206 70.555555M125.99206 75.595237L131.03174 70.555555M131.03174 75.595237L136.07143 70.555555M136.07143 75.595237L141.11111 70.555555M141.11111 75.595237L146.15079 70.555555M146.15079 75.595237L151.19047 70.555555M151.19047 75.595237L156.23016 70.555555M156.23016 75.595237L161.26984 70.555555M161.26984 75.595237L166.30952 70.555555M166.30952 75.595237L171.3492 70.555555M171.3492 75.595237L176.38889 70.555555M176.38889 75.595237L181.42857 70.555555M181.42857 75.595237L186.46825 70.555555M186.46825 75.595237L191.50793 70.555555M191.50793 75.595237L196.54762 70.555555M196.54762 75.595237L201.5873 70.555555M201.5873 75.595237L206.62698 70.555555M206.62698 70.555555L211.66666 75.595237M0 70.555555L5.0396825 65.515872M5.0396825 70.555555L10.079365 65.515872M10.079365 70.555555L15.119047 65.515872M15.119047 70.555555L20.15873 65.515872M20.15873 70.555555L25.198412 65.515872M25.198412 70.555555L30.238095 65.515872M30.238095 65.515872L35.277777 70.555555M35.277777 65.515872L40.31746 70.555555M40.31746 70.555555L45.357142 65.515872M45.357142 70.555555L50.396825 65.515872M50.396825 70.555555L55.436507 65.515872M55.436507 65.515872L60.47619 70.555555M60.47619 65.515872L65.515872 70.555555M65.515872 70.555555L70.555555 65.515872M70.555555 70.555555L75.595237 65.515872M75.595237 70.555555L80.63492 65.515872M80.63492 70.555555L85.674602 65.515872M85.674602 70.555555L90.714285 65.515872M90.714285 70.555555L95.753967 65.515872M95.753967 70.555555L100.79365 65.515872M100.79365 70.555555L105.83333 65.515872M105.83333 70.555555L110.87301 65.515872M110.87301 70.555555L115.9127 65.515872M115.9127 70.555555L120.95238 65.515872M120.95238 70.555555L125.99206 65.515872M125.99206 70.555555L131.03174 65.515872M131.03174 70.555555L136.07143 65.515872M136.07143 70.555555L141.11111 65.515872M141.11111 70.555555L146.15079 65.515872M146.15079 70.555555L151.19047 65.515872M151.19047 70.555555L156.23016 65.515872M156.23016 70.555555L161.26984 65.515872M161.26984 70.555555L166.30952 65.515872M166.30952 65.515872L171.3492 70.555555M171.3492 70.555555L176.38889 65.515872M176.38889 70.555555L181.42857 65.515872M181.42857 70.555555L186.46825 65.515872M186.46825 70.555555L191.50793 65.515872M191.50793 70.555555L196.54762 65.515872M196.54762 70.555555L201.5873 65.515872M201.5873 65.515872L206.62698 70.555555M206.62698 65.515872L211.66666 70.555555M0 60.47619L5.0396825 65.515872M5.0396825 60.47619L10.079365 65.515872M10.079365 65.515872L15.119047 60.47619M15.119047 65.515872L20.15873 60.47619M20.15873 65.515872L25.198412 60.47619M25.198412 60.47619L30.238095 65.515872M30.238095 60.47619L35.277777 65.515872M35.277777 60.47619L40.31746 65.515872M40.31746 65.515872L45.357142 60.47619M45.357142 65.515872L50.396825 60.47619M50.396825 65.515872L55.436507 60.47619M55.436507 65.515872L60.47619 60.47619M60.47619 65.515872L65.515872 60.47619M65.515872 65.515872L70.555555 60.47619M70.555555 65.515872L75.595237 60.47619M75.595237 65.515872L80.63492 60.47619M80.63492 65.515872L85.674602 60.47619M85.674602 65.515872L90.714285 60.47619M90.714285 65.515872L95.753967 60.47619M95.753967 65.515872L100.79365 60.47619M100.79365 65.515872L105.83333 60.47619M105.83333 65.515872L110.87301 60.47619M110.87301 65.515872L115.9127 60.47619M115.9127 65.515872L120.95238 60.47619M120.95238 65.515872L125.99206 60.47619M125.99206 65.515872L131.03174 60.47619M131.03174 65.515872L136.07143 60.47619M136.07143 65.515872L141.11111 60.47619M141.11111 65.515872L146.15079 60.47619M146.15079 65.515872L151.19047 60.47619M151.19047 65.515872L156.23016 60.47619M156.23016 65.515872L161.26984 60.47619M161.26984 60.47619L166.30952 65.515872M166.30952 60.47619L171.3492 65.515872M171.3492 60.47619L176.38889 65.515872M176.38889 65.515872L181.42857 60.47619M181.42857 65.515872L186.46825 60.47619M186.46825 65.515872L191.50793 60.47619M191.50793 65.515872L196.54762 60.47619M196.54762 65.515872L201.5873 60.47619M201.5873 60.47619L206.62698 65.515872M206.62698 60.47619L211.66666 65.515872M0 60.47619L5.0396825 55.436507M5.0396825 60.47619L10.079365 55.436507M10.079365 55.436507L15.119047 60.47619M15.119047 60.47619L20.15873 55.436507M20.15873 60.47619L25.198412 55.436507M25.198412 60.47619L30.238095 55.436507M30.238095 60.47619L35.277777 55.436507M35.277777 60.47619L40.31746 55.436507M40.31746 60.47619L45.357142 55.436507M45.357142 55.436507L50.396825 60.47619M50.396825 55.436507L55.436507 60.47619M55.436507 55.436507L60.47619 60.47619M60.47619 60.47619L65.515872 55.436507M65.515872 55.436507L70.555555 60.47619M70.555555 55.436507L75.595237 60.47619M75.595237 60.47619L80.63492 55.436507M80.63492 60.47619L85.674602 55.436507M85.674602 55.436507L90.714285 60.47619M90.714285 60.47619L95.753967 55.436507M95.753967 60.47619L100.79365 55.436507M100.79365 60.47619L105.83333 55.436507M105.83333 60.47619L110.87301 55.436507M110.87301 60.47619L115.9127 55.436507M115.9127 60.47619L120.95238 55.436507M120.95238 60.47619L125.99206 55.436507M125.99206 60.47619L131.03174 55.436507M131.03174 60.47619L136.07143 55.436507M136.07143 60.47619L141.11111 55.436507M141.11111 60.47619L146.15079 55.436507M146.15079 60.47619L151.19047 55.436507M151.19047 55.436507L156.23016 60.47619M156.23016 55.436507L161.26984 60.47619M161.26984 60.47619L166.30952 55.436507M166.30952 60.47619L171.3492 55.436507M171.3492 60.47619L176.38889 55.436507M176.38889 60.47619L181.42857 55.436507M181.42857 55.436507L186.46825 60.47619M186.46825 55.436507L191.50793 60.47619M191.50793 55.436507L196.54762 60.47619M196.54762 55.436507L201.5873 60.47619M201.5873 60.47619L206.62698 55.436507M206.62698 60.47619L211.66666 55.436507M0 55.436507L5.0396825 50.396825M5.0396825 55.436507L10.079365 50.396825M10.079365 50.396825L15.119047 55.436507M15.119047 55.436507L20.15873 50.396825M20.15873 55.436507L25.198412 50.396825M25.198412 55.436507L30.238095 50.396825M30.238095 55.436507L35.277777 50.396825M35.277777 55.436507L40.31746 50.396825M40.31746 55.436507L45.357142 50.396825M45.357142 50.396825L50.396825 55.436507M50.396825 50.396825L55.436507 55.436507M55.436507 50.396825L60.47619 55.436507M60.47619 50.396825L65.515872 55.436507M65.515872 50.396825L70.555555 55.436507M70.555555 50.396825L75.595237 55.436507M75.595237 55.436507L80.63492 50.396825M80.63492 55.436507L85.674602 50.396825M85.674602 50.396825L90.714285 55.436507M90.714285 50.396825L95.753967 55.436507M95.753967 50.396825L100.79365 55.436507M100.79365 55.436507L105.83333 50.396825M105.83333 55.436507L110.87301 50.396825M110.87301 55.436507L115.9127 50.396825M115.9127 55.436507L120.95238 50.396825M120.95238 55.436507L125.99206 50.396825M125.99206 55.436507L131.03174 50.396825M131.03174 55.436507L136.07143 50.396825M136.07143 55.436507L141.11111 50.396825M141.11111 50.396825L146.15079 55.436507M146.15079 50.396825L151.19047 55.436507M151.19047 50.396825L156.23016 55.436507M156.23016 50.396825L161.26984 55.436507M161.26984 55.436507L166.30952 50.396825M166.30952 55.436507L171.3492 50.396825M171.3492 55.436507L176.38889 50.396825M176.38889 50.396825L181.42857 55.436507M181.42857 50.396825L186.46825 55.436507M186.46825 50.396825L191.50793 55.436507M191.50793 50.396825L196.54762 55.436507M196.54762 55.436507L201.5873 50.396825M201.5873 55.436507L206.62698 50.396825M206.62698 55.436507L211.66666 50.396825M0 50.396825L5.0396825 45.357142M5.0396825 45.357142L10.079365 50.396825M10.079365 45.357142L15.119047 50.396825M15.119047 50.396825L20.15873 45.357142M20.15873 50.396825L25.198412 45.357142M25.198412 50.396825L30.238095 45.357142M30.238095 50.396825L35.277777 45.357142M35.277777 50.396825L40.31746 45.357142M40.31746 50.396825L45.357142 45.357142M45.357142 45.357142L50.396825 50.396825M50.396825 45.357142L55.436507 50.396825M55.436507 45.357142L60.47619 50.396825M60.47619 45.357142L65.515872 50.396825M65.515872 45.357142L70.555555 50.396825M70.555555 45.357142L75.595237 50.396825M75.595237 50.396825L80.63492 45.357142M80.63492 50.396825L85.674602 45.357142M85.674602 45.357142L90.714285 50.396825M90.714285 45.357142L95.753967 50.396825M95.753967 45.357142L100.79365 50.396825M100.79365 45.357142L105.83333 50.396825M105.83333 50.396825L110.87301 45.357142M110.87301 50.396825L115.9127 45.357142M115.9127 50.396825L120.95238 45.357142M120.95238 50.396825L125.99206 45.357142M125.99206 50.396825L131.03174 45.357142M131.03174 45.357142L136.07143 50.396825M136.07143 45.357142L141.11111 50.396825M141.11111 45.357142L146.15079 50.396825M146.15079 45.357142L151.19047 50.396825M151.19047 45.357142L156.23016 50.396825M156.23016 45.357142L161.26984 50.396825M161.26984 45.357142L166.30952 50.396825M166.30952 45.357142L171.3492 50.396825M171.3492 45.357142L176.38889 50.396825M176.38889 45.357142L181.42857 50.396825M181.42857 45.357142L186.46825 50.396825M186.46825 45.357142L191.50793 50.396825M191.50793 50.396825L196.54762 45.357142M196.54762 50.396825L201.5873 45.357142M201.5873 50.396825L206.62698 45.357142M206.62698 50.396825L211.66666 45.357142M0 40.31746L5.0396825 45.357142M5.0396825 40.31746L10.079365 45.357142M10.079365 40.31746L15.119047 45.357142M15.119047 45.357142L20.15873 40.31746M20.15873 45.357142L25.198412 40.31746M25.198412 45.357142L30.238095 40.31746M30.238095 40.31746L35.277777 45.357142M35.277777 40.31746L40.31746 45.357142M40.31746 45.357142L45.357142 40.31746M45.357142 45.357142L50.396825 40.31746M50.396825 40.31746L55.436507 45.357142M55.436507 40.31746L60.47619 45.357142M60.47619 45.357142L65.515872 40.31746M65.515872 40.31746L70.555555 45.357142M70.555555 40.31746L75.595237 45.357142M75.595237 40.31746L80.63492 45.357142M80.63492 40.31746L85.674602 45.357142M85.674602 40.31746L90.714285 45.357142M90.714285 40.31746L95.753967 45.357142M95.753967 40.31746L100.79365 45.357142M100.79365 40.31746L105.83333 45.357142M105.83333 40.31746L110.87301 45.357142M110.87301 40.31746L115.9127 45.357142M115.9127 45.357142L120.95238 40.31746M120.95238 45.357142L125.99206 40.31746M125.99206 45.357142L131.03174 40.31746M131.03174 45.357142L136.07143 40.31746M136.07143 40.31746L141.11111 45.357142M141.11111 40.31746L146.15079 45.357142M146.15079 45.357142L151.19047 40.31746M151.19047 45.357142L156.23016 40.31746M156.23016 45.357142L161.26984 40.31746M161.26984 40.31746L166.30952 45.357142M166.30952 40.31746L171.3492 45.357142M171.3492 40.31746L176.38889 45.357142M176.38889 40.31746L181.42857 45.357142M181.42857 45.357142L186.46825 40.31746M186.46825 45.357142L191.50793 40.31746M191.50793 45.357142L196.54762 40.31746M196.54762 45.357142L201.5873 40.31746M201.5873 45.357142L206.62698 40.31746M206.62698 40.31746L211.66666 45.357142M0 35.277777L5.0396825 40.31746M5.0396825 35.277777L10.079365 40.31746M10.079365 35.277777L15.119047 40.31746M15.119047 40.31746L20.15873 35.277777M20.15873 40.31746L25.198412 35.277777M25.198412 40.31746L30.238095 35.277777M30.238095 35.277777L35.277777 40.31746M35.277777 35.277777L40.31746 40.31746M40.31746 40.31746L45.357142 35.277777M45.357142 40.31746L50.396825 35.277777M50.396825 40.31746L55.436507 35.277777M55.436507 40.31746L60.47619 35.277777M60.47619 40.31746L65.515872 35.277777M65.515872 35.277777L70.555555 40.31746M70.555555 35.277777L75.595237 40.31746M75.595237 35.277777L80.63492 40.31746M80.63492 35.277777L85.674602 40.31746M85.674602 40.31746L90.714285 35.277777M90.714285 35.277777L95.753967 40.31746M95.753967 35.277777L100.79365 40.31746M100.79365 35.277777L105.83333 40.31746M105.83333 35.277777L110.87301 40.31746M110.87301 35.277777L115.9127 40.31746M115.9127 40.31746L120.95238 35.277777M120.95238 40.31746L125.99206 35.277777M125.99206 40.31746L131.03174 35.277777M131.03174 40.31746L136.07143 35.277777M136.07143 40.31746L141.11111 35.277777M141.11111 40.31746L146.15079 35.277777M146.15079 40.31746L151.19047 35.277777M151.19047 40.31746L156.23016 35.277777M156.23016 40.31746L161.26984 35.277777M161.26984 35.277777L166.30952 40.31746M166.30952 35.277777L171.3492 40.31746M171.3492 35.277777L176.38889 40.31746M176.38889 35.277777L181.42857 40.31746M181.42857 40.31746L186.46825 35.277777M186.46825 40.31746L191.50793 35.277777M191.50793 40.31746L196.54762 35.277777M196.54762 40.31746L201.5873 35.277777M201.5873 35.277777L206.62698 40.31746M206.62698 35.277777L211.66666 40.31746M0 30.238095L5.0396825 35.277777M5.0396825 30.238095L10.079365 35.277777M10.079365 35.277777L15.119047 30.238095M15.119047 35.277777L20.15873 30.238095M20.15873 35.277777L25.198412 30.238095M25.198412 35.277777L30.238095 30.238095M30.238095 30.238095L35.277777 35.277777M35.277777 30.238095L40.31746 35.277777M40.31746 30.238095L45.357142 35.277777M45.357142 35.277777L50.396825 30.238095M50.396825 35.277777L55.436507 30.238095M55.436507 35.277777L60.47619 30.238095M60.47619 30.238095L65.515872 35.277777M65.515872 30.238095L70.555555 35.277777M70.555555 30.238095L75.595237 35.277777M75.595237 30.238095L80.63492 35.277777M80.63492 30.238095L85.674602 35.277777M85.674602 35.277777L90.714285 30.238095M90.714285 35.277777L95.753967 30.238095M95.753967 35.277777L100.79365 30.238095M100.79365 35.277777L105.83333 30.238095M105.83333 30.238095L110.87301 35.277777M110.87301 35.277777L115.9127 30.238095M115.9127 35.277777L120.95238 30.238095M120.95238 35.277777L125.99206 30.238095M125.99206 35.277777L131.03174 30.238095M131.03174 35.277777L136.07143 30.238095M136.07143 35.277777L141.11111 30.238095M141.11111 35.277777L146.15079 30.238095M146.15079 30.238095L151.19047 35.277777M151.19047 30.238095L156.23016 35.277777M156.23016 30.238095L161.26984 35.277777M161.26984 30.238095L166.30952 35.277777M166.30952 30.238095L171.3492 35.277777M171.3492 30.238095L176.38889 35.277777M176.38889 30.238095L181.42857 35.277777M181.42857 35.277777L186.46825 30.238095M186.46825 35.277777L191.50793 30.238095M191.50793 30.238095L196.54762 35.277777M196.54762 30.238095L201.5873 35.277777M201.5873 30.238095L206.62698 35.277777M206.62698 30.238095L211.66666 35.277777M0 30.238095L5.0396825 25.198412M5.0396825 30.238095L10.079365 25.198412M10.079365 30.238095L15.119047 25.198412M15.119047 30.238095L20.15873 25.198412M20.15873 30.238095L25.198412 25.198412M25.198412 25.198412L30.238095 30.238095M30.238095 25.198412L35.277777 30.238095M35.277777 25.198412L40.31746 30.238095M40.31746 25.198412L45.357142 30.238095M45.357142 30.238095L50.396825 25.198412M50.396825 25.198412L55.436507 30.238095M55.436507 25.198412L60.47619 30.238095M60.47619 25.198412L65.515872 30.238095M65.515872 25.198412L70.555555 30.238095M70.555555 25.198412L75.595237 30.238095M75.595237 25.198412L80.63492 30.238095M80.63492 25.198412L85.674602 30.238095M85.674602 30.238095L90.714285 25.198412M90.714285 30.238095L95.753967 25.198412M95.753967 30.238095L100.79365 25.198412M100.79365 30.238095L105.83333 25.198412M105.83333 30.238095L110.87301 25.198412M110.87301 30.238095L115.9127 25.198412M115.9127 30.238095L120.95238 25.198412M120.95238 30.238095L125.99206 25.198412M125.99206 30.238095L131.03174 25.198412M131.03174 30.238095L136.07143 25.198412M136.07143 25.198412L141.11111 30.238095M141.11111 25.198412L146.15079 30.238095M146.15079 25.198412L151.19047 30.238095M151.19047 25.198412L156.23016 30.238095M156.23016 25.198412L161.26984 30.238095M161.26984 25.198412L166.30952 30.238095M166.30952 25.198412L171.3492 30.238095M171.3492 25.198412L176.38889 30.238095M176.38889 25.198412L181.42857 30.238095M181.42857 30.238095L186.46825 25.198412M186.46825 25.198412L191.50793 30.238095M191.50793 25.198412L196.54762 30.238095M196.54762 25.198412L201.5873 30.238095M201.5873 25.198412L206.62698 30.238095M206.62698 25.198412L211.66666 30.238095M0 25.198412L5.0396825 20.15873M5.0396825 25.198412L10.079365 20.15873M10.079365 25.198412L15.119047 20.15873M15.119047 25.198412L20.15873 20.15873M20.15873 25.198412L25.198412 20.15873M25.198412 20.15873L30.238095 25.198412M30.238095 20.15873L35.277777 25.198412M35.277777 20.15873L40.31746 25.198412M40.31746 25.198412L45.357142 20.15873M45.357142 25.198412L50.396825 20.15873M50.396825 25.198412L55.436507 20.15873M55.436507 20.15873L60.47619 25.198412M60.47619 20.15873L65.515872 25.198412M65.515872 20.15873L70.555555 25.198412M70.555555 20.15873L75.595237 25.198412M75.595237 20.15873L80.63492 25.198412M80.63492 20.15873L85.674602 25.198412M85.674602 25.198412L90.714285 20.15873M90.714285 25.198412L95.753967 20.15873M95.753967 25.198412L100.79365 20.15873M100.79365 25.198412L105.83333 20.15873M105.83333 25.198412L110.87301 20.15873M110.87301 25.198412L115.9127 20.15873M115.9127 20.15873L120.95238 25.198412M120.95238 20.15873L125.99206 25.198412M125.99206 20.15873L131.03174 25.198412M131.03174 20.15873L136.07143 25.198412M136.07143 20.15873L141.11111 25.198412M141.11111 20.15873L146.15079 25.198412M146.15079 20.15873L151.19047 25.198412M151.19047 20.15873L156.23016 25.198412M156.23016 20.15873L161.26984 25.198412M161.26984 20.15873L166.30952 25.198412M166.30952 25.198412L171.3492 20.15873M171.3492 25.198412L176.38889 20.15873M176.38889 25.198412L181.42857 20.15873M181.42857 25.198412L186.46825 20.15873M186.46825 20.15873L191.50793 25.198412M191.50793 20.15873L196.54762 25.198412M196.54762 20.15873L201.5873 25.198412M201.5873 20.15873L206.62698 25.198412M206.62698 25.198412L211.66666 20.15873M0 15.119047L5.0396825 20.15873M5.0396825 20.15873L10.079365 15.119047M10.079365 20.15873L15.119047 15.119047M15.119047 20.15873L20.15873 15.119047M20.15873 20.15873L25.198412 15.119047M25.198412 15.119047L30.238095 20.15873M30.238095 15.119047L35.277777 20.15873M35.277777 20.15873L40.31746 15.119047M40.31746 20.15873L45.357142 15.119047M45.357142 20.15873L50.396825 15.119047M50.396825 20.15873L55.436507 15.119047M55.436507 20.15873L60.47619 15.119047M60.47619 20.15873L65.515872 15.119047M65.515872 20.15873L70.555555 15.119047M70.555555 15.119047L75.595237 20.15873M75.595237 15.119047L80.63492 20.15873M80.63492 20.15873L85.674602 15.119047M85.674602 20.15873L90.714285 15.119047M90.714285 20.15873L95.753967 15.119047M95.753967 20.15873L100.79365 15.119047M100.79365 20.15873L105.83333 15.119047M105.83333 20.15873L110.87301 15.119047M110.87301 20.15873L115.9127 15.119047M115.9127 20.15873L120.95238 15.119047M120.95238 15.119047L125.99206 20.15873M125.99206 15.119047L131.03174 20.15873M131.03174 15.119047L136.07143 20.15873M136.07143 15.119047L141.11111 20.15873M141.11111 15.119047L146.15079 20.15873M146.15079 15.119047L151.19047 20.15873M151.19047 15.119047L156.23016 20.15873M156.23016 15.119047L161.26984 20.15873M161.26984 15.119047L166.30952 20.15873M166.30952 15.119047L171.3492 20.15873M171.3492 20.15873L176.38889 15.119047M176.38889 20.15873L181.42857 15.119047M181.42857 15.119047L186.46825 20.15873M186.46825 15.119047L191.50793 20.15873M191.50793 20.15873L196.54762 15.119047M196.54762 20.15873L201.5873 15.119047M201.5873 20.15873L206.62698 15.119047M206.62698 20.15873L211.66666 15.119047M0 10.079365L5.0396825 15.119047M5.0396825 10.079365L10.079365 15.119047M10.079365 10.079365L15.119047 15.119047M15.119047 10.079365L20.15873 15.119047M20.15873 10.079365L25.198412 15.119047M25.198412 10.079365L30.238095 15.119047M30.238095 15.119047L35.277777 10.079365M35.277777 15.119047L40.31746 10.079365M40.31746 15.119047L45.357142 10.079365M45.357142 10.079365L50.396825 15.119047M50.396825 10.079365L55.436507 15.119047M55.436507 10.079365L60.47619 15.119047M60.47619 15.119047L65.515872 10.079365M65.515872 15.119047L70.555555 10.079365M70.555555 10.079365L75.595237 15.119047M75.595237 10.079365L80.63492 15.119047M80.63492 15.119047L85.674602 10.079365M85.674602 15.119047L90.714285 10.079365M90.714285 15.119047L95.753967 10.079365M95.753967 15.119047L100.79365 10.079365M100.79365 15.119047L105.83333 10.079365M105.83333 15.119047L110.87301 10.079365M110.87301 15.119047L115.9127 10.079365M115.9127 15.119047L120.95238 10.079365M120.95238 15.119047L125.99206 10.079365M125.99206 10.079365L131.03174 15.119047M131.03174 10.079365L136.07143 15.119047M136.07143 10.079365L141.11111 15.119047M141.11111 10.079365L146.15079 15.119047M146.15079 10.079365L151.19047 15.119047M151.19047 10.079365L156.23016 15.119047M156.23016 10.079365L161.26984 15.119047M161.26984 10.079365L166.30952 15.119047M166.30952 10.079365L171.3492 15.119047M171.3492 15.119047L176.38889 10.079365M176.38889 10.079365L181.42857 15.119047M181.42857 10.079365L186.46825 15.119047M186.46825 10.079365L191.50793 15.119047M191.50793 15.119047L196.54762 10.079365M196.54762 15.119047L201.5873 10.079365M201.5873 15.119047L206.62698 10.079365M206.62698 10.079365L211.66666 15.119047M0 5.0396825L5.0396825 10.079365M5.0396825 5.0396825L10.079365 10.079365M10.079365 5.0396825L15.119047 10.079365M15.119047 5.0396825L20.15873 10.079365M20.15873 5.0396825L25.198412 10.079365M25.198412 5.0396825L30.238095 10.079365M30.238095 5.0396825L35.277777 10.079365M35.277777 5.0396825L40.31746 10.079365M40.31746 5.0396825L45.357142 10.079365M45.357142 5.0396825L50.396825 10.079365M50.396825 5.0396825L55.436507 10.079365M55.436507 5.0396825L60.47619 10.079365M60.47619 5.0396825L65.515872 10.079365M65.515872 5.0396825L70.555555 10.079365M70.555555 10.079365L75.595237 5.0396825M75.595237 10.079365L80.63492 5.0396825M80.63492 10.079365L85.674602 5.0396825M85.674602 10.079365L90.714285 5.0396825M90.714285 10.079365L95.753967 5.0396825M95.753967 10.079365L100.79365 5.0396825M100.79365 10.079365L105.83333 5.0396825M105.83333 10.079365L110.87301 5.0396825M110.87301 10.079365L115.9127 5.0396825M115.9127 10.079365L120.95238 5.0396825M120.95238 10.079365L125.99206 5.0396825M125.99206 5.0396825L131.03174 10.079365M131.03174 5.0396825L136.07143 10.079365M136.07143 5.0396825L141.11111 10.079365M141.11111 5.0396825L146.15079 10.079365M146.15079 5.0396825L151.19047 10.079365M151.19047 5.0396825L156.23016 10.079365M156.23016 5.0396825L161.26984 10.079365M161.26984 5.0396825L166.30952 10.079365M166.30952 10.079365L171.3492 5.0396825M171.3492 10.079365L176.38889 5.0396825M176.38889 5.0396825L181.42857 10.079365M181.42857 5.0396825L186.46825 10.079365M186.46825 10.079365L191.50793 5.0396825M191.50793 10.079365L196.54762 5.0396825M196.54762 10.079365L201.5873 5.0396825M201.5873 10.079365L206.62698 5.0396825M206.62698 5.0396825L211.66666 10.079365M0 5.0396825L5.0396825 0M5.0396825 0L10.079365 5.0396825M10.079365 0L15.119047 5.0396825M15.119047 0L20.15873 5.0396825M20.15873 0L25.198412 5.0396825M25.198412 0L30.238095 5.0396825M30.238095 0L35.277777 5.0396825M35.277777 0L40.31746 5.0396825M40.31746 0L45.357142 5.0396825M45.357142 0L50.396825 5.0396825M50.396825 0L55.436507 5.0396825M55.436507 0L60.47619 5.0396825M60.47619 0L65.515872 5.0396825M65.515872 0L70.555555 5.0396825M70.555555 5.0396825L75.595237 0M75.595237 5.0396825L80.63492 0M80.63492 5.0396825L85.674602 0M85.674602 5.0396825L90.714285 0M90.714285 5.0396825L95.753967 0M95.753967 5.0396825L100.79365 0M100.79365 5.0396825L105.83333 0M105.83333 5.0396825L110.87301 0M110.87301 5.0396825L115.9127 0M115.9127 5.0396825L120.95238 0M120.95238 0L125.99206 5.0396825M125.99206 0L131.03174 5.0396825M131.03174 0L136.07143 5.0396825M136.07143 0L141.11111 5.0396825M141.11111 0L146.15079 5.0396825M146.15079 0L151.19047 5.0396825M151.19047 0L156.23016 5.0396825M156.23016 0L161.26984 5.0396825M161.26984 0L166.30952 5.0396825M166.30952 5.0396825L171.3492 0M171.3492 5.0396825L176.38889 0M176.38889 5.0396825L181.42857 0M181.42857 5.0396825L186.46825 0M186.46825 5.0396825L191.50793 0M191.50793 5.0396825L196.54762 0M196.54762 5.0396825L201.5873 0M201.5873 5.0396825L206.62698 0M206.62698 5.0396825L211.66666 0" style="fill:none;stroke:#fff;stroke-width:.7;stroke-miterlimit:5.7142857"/></svg>