<?xml version="1.0" encoding="UTF-8"?>
<svg xmlns="http://www.w3.org/2000/svg" width="1080" height="768" viewBox="0 0 1080 768">
<path d="M0 0L1080 0L1080 768L0 768Z" fill="#000000"/>
<path d="M0 4L1080 4L1080 764L0 764L0 4M0 4L40 44M40 4L80 44M80 4L120 44M120 4L160 44M160 4L200 44M200 4L240 44M240 4L280 44M280 4L320 44M320 4L360 44M360 4L400 44M400 4L440 44M440 4L480 44M480 4L520 44M520 4L560 44M560 44L600 4M600 44L640 4M640 44L680 4M680 44L720 4M720 44L760 4M760 4L800 44M800 4L840 44M840 4L880 44M880 4L920 44M920 4L960 44M960 4L1000 44M1000 4L1040 44M1040 4L1080 44M0 44L40 84M40 44L80 84M80 44L120 84M120 44L160 84M160 44L200 84M200 84L240 44M240 84L280 44M280 84L320 44M320 84L360 44M360 84L400 44M400 44L440 84M440 44L480 84M480 44L520 84M520 44L560 84M560 44L600 84M600 44L640 84M640 44L680 84M680 44L720 84M720 44L760 84M760 44L800 84M800 44L840 84M840 44L880 84M880 44L920 84M920 44L960 84M960 44L1000 84M1000 84L1040 44M1040 84L1080 44M0 84L40 124M40 84L80 124M80 84L120 124M120 84L160 124M160 84L200 124M200 84L240 124M240 84L280 124M280 84L320 124M320 84L360 124M360 84L400 124M400 84L440 124M440 84L480 124M480 84L520 124M520 84L560 124M560 84L600 124M600 84L640 124M640 84L680 124M680 84L720 124M720 84L760 124M760 84L800 124M800 84L840 124M840 84L880 124M880 84L920 124M920 84L960 124M960 84L1000 124M1000 84L1040 124M1040 84L1080 124M0 124L40 164M40 124L80 164M80 124L120 164M120 124L160 164M160 124L200 164M200 124L240 164M240 124L280 164M280 124L320 164M320 124L360 164M360 124L400 164M400 124L440 164M440 124L480 164M480 124L520 164M520 124L560 164M560 124L600 164M600 124L640 164M640 124L680 164M680 124L720 164M720 124L760 164M760 164L800 124M800 164L840 124M840 164L880 124M880 164L920 124M920 124L960 164M960 124L1000 164M1000 124L1040 164M1040 124L1080 164M0 164L40 204M40 164L80 204M80 164L120 204M120 164L160 204M160 164L200 204M200 164L240 204M240 164L280 204M280 164L320 204M320 164L360 204M360 204L400 164M400 204L440 164M440 204L480 164M480 204L520 164M520 204L560 164M560 204L600 164M600 204L640 164M640 204L680 164M680 204L720 164M720 204L760 164M760 204L800 164M800 204L840 164M840 204L880 164M880 164L920 204M920 164L960 204M960 164L1000 204M1000 204L1040 164M1040 204L1080 164M0 244L40 204M40 244L80 204M80 244L120 204M120 244L160 204M160 244L200 204M200 244L240 204M240 244L280 204M280 244L320 204M320 204L360 244M360 204L400 244M400 204L440 244M440 204L480 244M480 204L520 244M520 204L560 244M560 204L600 244M600 204L640 244M640 204L680 244M680 244L720 204M720 244L760 204M760 244L800 204M800 244L840 204M840 244L880 204M880 244L920 204M920 244L960 204M960 244L1000 204M1000 244L1040 204M1040 204L1080 244M0 244L40 284M40 244L80 284M80 244L120 284M120 244L160 284M160 244L200 284M200 244L240 284M240 244L280 284M280 244L320 284M320 244L360 284M360 284L400 244M400 284L440 244M440 284L480 244M480 284L520 244M520 284L560 244M560 284L600 244M600 284L640 244M640 284L680 244M680 284L720 244M720 244L760 284M760 244L800 284M800 244L840 284M840 244L880 284M880 244L920 284M920 244L960 284M960 244L1000 284M1000 244L1040 284M1040 244L1080 284M0 284L40 324M40 284L80 324M80 284L120 324M120 284L160 324M160 284L200 324M200 284L240 324M240 284L280 324M280 284L320 324M320 284L360 324M360 284L400 324M400 284L440 324M440 284L480 324M480 284L520 324M520 284L560 324M560 284L600 324M600 284L640 324M640 284L680 324M680 284L720 324M720 284L760 324M760 284L800 324M800 284L840 324M840 284L880 324M880 284L920 324M920 284L960 324M960 284L1000 324M1000 284L1040 324M1040 284L1080 324M0 324L40 364M40 324L80 364M80 324L120 364M120 324L160 364M160 364L200 324M200 364L240 324M240 364L280 324M280 364L320 324M320 364L360 324M360 324L400 364M400 324L440 364M440 324L480 364M480 324L520 364M520 324L560 364M560 324L600 364M600 324L640 364M640 324L680 364M680 324L720 364M720 324L760 364M760 324L800 364M800 324L840 364M840 324L880 364M880 364L920 324M920 364L960 324M960 364L1000 324M1000 364L1040 324M1040 364L1080 324M0 404L40 364M40 404L80 364M80 404L120 364M120 364L160 404M160 364L200 404M200 364L240 404M240 364L280 404M280 364L320 404M320 364L360 404M360 364L400 404M400 364L440 404M440 364L480 404M480 364L520 404M520 364L560 404M560 404L600 364M600 404L640 364M640 404L680 364M680 404L720 364M720 404L760 364M760 404L800 364M800 404L840 364M840 404L880 364M880 404L920 364M920 364L960 404M960 364L1000 404M1000 364L1040 404M1040 364L1080 404M0 444L40 404M40 444L80 404M80 444L120 404M120 404L160 444M160 404L200 444M200 404L240 444M240 404L280 444M280 404L320 444M320 444L360 404M360 444L400 404M400 444L440 404M440 444L480 404M480 444L520 404M520 444L560 404M560 444L600 404M600 404L640 444M640 404L680 444M680 404L720 444M720 444L760 404M760 444L800 404M800 444L840 404M840 444L880 404M880 444L920 404M920 404L960 444M960 404L1000 444M1000 404L1040 444M1040 404L1080 444M0 444L40 484M40 484L80 444M80 484L120 444M120 484L160 444M160 484L200 444M200 484L240 444M240 484L280 444M280 444L320 484M320 444L360 484M360 484L400 444M400 484L440 444M440 484L480 444M480 484L520 444M520 484L560 444M560 484L600 444M600 444L640 484M640 444L680 484M680 444L720 484M720 444L760 484M760 444L800 484M800 484L840 444M840 484L880 444M880 484L920 444M920 484L960 444M960 484L1000 444M1000 484L1040 444M1040 444L1080 484M0 484L40 524M40 524L80 484M80 524L120 484M120 524L160 484M160 524L200 484M200 524L240 484M240 524L280 484M280 524L320 484M320 524L360 484M360 524L400 484M400 524L440 484M440 524L480 484M480 524L520 484M520 524L560 484M560 524L600 484M600 524L640 484M640 524L680 484M680 524L720 484M720 524L760 484M760 524L800 484M800 524L840 484M840 524L880 484M880 524L920 484M920 524L960 484M960 524L1000 484M1000 524L1040 484M1040 524L1080 484M0 564L40 524M40 564L80 524M80 564L120 524M120 564L160 524M160 564L200 524M200 564L240 524M240 564L280 524M280 564L320 524M320 564L360 524M360 564L400 524M400 564L440 524M440 564L480 524M480 564L520 524M520 564L560 524M560 564L600 524M600 564L640 524M640 564L680 524M680 564L720 524M720 564L760 524M760 564L800 524M800 564L840 524M840 564L880 524M880 564L920 524M920 564L960 524M960 564L1000 524M1000 564L1040 524M1040 564L1080 524M0 604L40 564M40 604L80 564M80 604L120 564M120 604L160 564M160 604L200 564M200 604L240 564M240 604L280 564M280 604L320 564M320 604L360 564M360 604L400 564M400 604L440 564M440 604L480 564M480 604L520 564M520 604L560 564M560 604L600 564M600 604L640 564M640 604L680 564M680 604L720 564M720 604L760 564M760 604L800 564M800 604L840 564M840 604L880 564M880 604L920 564M920 604L960 564M960 604L1000 564M1000 604L1040 564M1040 604L1080 564M0 644L40 604M40 644L80 604M80 644L120 604M120 644L160 604M160 644L200 604M200 644L240 604M240 644L280 604M280 644L320 604M320 644L360 604M360 644L400 604M400 644L440 604M440 644L480 604M480 644L520 604M520 644L560 604M560 644L600 604M600 644L640 604M640 644L680 604M680 644L720 604M720 644L760 604M760 644L800 604M800 644L840 604M840 604L880 644M880 604L920 644M920 644L960 604M960 644L1000 604M1000 644L1040 604M1040 644L1080 604M0 684L40 644M40 684L80 644M80 684L120 644M120 684L160 644M160 684L200 644M200 684L240 644M240 684L280 644M280 684L320 644M320 684L360 644M360 684L400 644M400 684L440 644M440 684L480 644M480 684L520 644M520 684L560 644M560 684L600 644M600 684L640 644M640 684L680 644M680 684L720 644M720 684L760 644M760 684L800 644M800 684L840 644M840 684L880 644M880 684L920 644M920 684L960 644M960 644L1000 684M1000 644L1040 684M1040 684L1080 644M0 724L40 684M40 724L80 684M80 724L120 684M120 724L160 684M160 724L200 684M200 724L240 684M240 724L280 684M280 724L320 684M320 724L360 684M360 724L400 684M400 724L440 684M440 724L480 684M480 724L520 684M520 724L560 684M560 724L600 684M600 724L640 684M640 684L680 724M680 724L720 684M720 724L760 684M760 724L800 684M800 724L840 684M840 724L880 684M880 724L920 684M920 724L960 684M960 724L1000 684M1000 684L1040 724M1040 684L1080 724M0 764L40 724M40 764L80 724M80 764L120 724M120 764L160 724M160 764L200 724M200 764L240 724M240 764L280 724M280 724L320 764M320 764L360 724M360 764L400 724M400 764L440 724M440 764L480 724M480 764L520 724M520 764L560 724M560 764L600 724M600 764L640 724M640 724L680 764M680 724L720 764M720 724L760 764M760 724L800 764M800 764L840 724M840 764L880 724M880 764L920 724M920 764L960 724M960 764L1000 724M1000 764L1040 724M1040 724L1080 764" fill="none" stroke="#ffffff" stroke-width="1"/>
</svg>
