<svg version="1.1" width="285.75mm" height="203.2mm" viewBox="0 0 285.75 203.2" xmlns="http://www.w3.org/2000/svg" xmlns:xlink="http://www.w3.org/1999/xlink"><path d="M0 203.2H285.75V0H0z"/><path d="M.3749982 202.85H285.375V.34999872H.3749982V202.85M.3749982 202.85L7.8749982 195.35M7.8749982 202.85L15.374998 195.35M15.374998 202.85L22.874998 195.35M22.874998 202.85L30.374998 195.35M30.374998 202.85L37.874998 195.35M37.874998 202.85L45.374998 195.35M45.374998 202.85L52.874998 195.35M52.874998 202.85L60.374998 195.35M60.374998 202.85L67.874998 195.35M67.874998 202.85L75.374998 195.35M75.374998 202.85L82.874998 195.35M82.874998 202.85L90.374998 195.35M90.374998 202.85L97.874998 195.35M97.874998 202.85L105.375 195.35M105.375 202.85L112.875 195.35M112.875 202.85L120.375 195.35M120.375 202.85L127.875 195.35M127.875 202.85L135.375 195.35M135.375 202.85L142.875 195.35M142.875 202.85L150.375 195.35M150.375 202.85L157.875 195.35M157.875 202.85L165.375 195.35M165.375 202.85L172.875 195.35M172.875 202.85L180.375 195.35M180.375 202.85L187.875 195.35M187.875 202.85L195.375 195.35M195.375 202.85L202.875 195.35M202.875 202.85L210.375 195.35M210.375 202.85L217.875 195.35M217.875 202.85L225.375 195.35M225.375 202.85L232.875 195.35M232.875 202.85L240.375 195.35M240.375 202.85L247.875 195.35M247.875 202.85L255.375 195.35M255.375 202.85L262.875 195.35M262.875 202.85L270.375 195.35M270.375 202.85L277.875 195.35M277.875 202.85L285.375 195.35M.3749982 195.35L7.8749982 187.85M7.8749982 195.35L15.374998 187.85M15.374998 195.35L22.874998 187.85M22.874998 195.35L30.374998 187.85M30.374998 195.35L37.874998 187.85M37.874998 195.35L45.374998 187.85M45.374998 195.35L52.874998 187.85M52.874998 195.35L60.374998 187.85M60.374998 195.35L67.874998 187.85M67.874998 195.35L75.374998 187.85M75.374998 195.35L82.874998 187.85M82.874998 195.35L90.374998 187.85M90.374998 195.35L97.874998 187.85M97.874998 195.35L105.375 187.85M105.375 195.35L112.875 187.85M112.875 195.35L120.375 187.85M120.375 187.85L127.875 195.35M127.875 187.85L135.375 195.35M135.375 195.35L142.875 187.85M142.875 195.35L150.375 187.85M150.375 195.35L157.875 187.85M157.875 195.35L165.375 187.85M165.375 195.35L172.875 187.85M172.875 195.35L180.375 187.85M180.375 195.35L187.875 187.85M187.875 195.35L195.375 187.85M195.375 195.35L202.875 187.85M202.875 195.35L210.375 187.85M210.375 195.35L217.875 187.85M217.875 195.35L225.375 187.85M225.375 195.35L232.875 187.85M232.875 195.35L240.375 187.85M240.375 195.35L247.875 187.85M247.875 195.35L255.375 187.85M255.375 195.35L262.875 187.85M262.875 195.35L270.375 187.85M270.375 195.35L277.875 187.85M277.875 195.35L285.375 187.85M.3749982 187.85L7.8749982 180.35M7.8749982 187.85L15.374998 180.35M15.374998 187.85L22.874998 180.35M22.874998 180.35L30.374998 187.85M30.374998 187.85L37.874998 180.35M37.874998 180.35L45.374998 187.85M45.374998 187.85L52.874998 180.35M52.874998 187.85L60.374998 180.35M60.374998 187.85L67.874998 180.35M67.874998 187.85L75.374998 180.35M75.374998 187.85L82.874998 180.35M82.874998 187.85L90.374998 180.35M90.374998 187.85L97.874998 180.35M97.874998 187.85L105.375 180.35M105.375 187.85L112.875 180.35M112.875 187.85L120.375 180.35M120.375 187.85L127.875 180.35M127.875 187.85L135.375 180.35M135.375 187.85L142.875 180.35M142.875 187.85L150.375 180.35M150.375 187.85L157.875 180.35M157.875 187.85L165.375 180.35M165.375 187.85L172.875 180.35M172.875 187.85L180.375 180.35M180.375 187.85L187.875 180.35M187.875 187.85L195.375 180.35M195.375 187.85L202.875 180.35M202.875 187.85L210.375 180.35M210.375 187.85L217.875 180.35M217.875 187.85L225.375 180.35M225.375 187.85L232.875 180.35M232.875 187.85L240.375 180.35M240.375 180.35L247.875 187.85M247.875 180.35L255.375 187.85M255.375 187.85L262.875 180.35M262.875 187.85L270.375 180.35M270.375 187.85L277.875 180.35M277.875 187.85L285.375 180.35M.3749982 180.35L7.8749982 172.85M7.8749982 180.35L15.374998 172.85M15.374998 180.35L22.874998 172.85M22.874998 180.35L30.374998 172.85M30.374998 180.35L37.874998 172.85M37.874998 180.35L45.374998 172.85M45.374998 180.35L52.874998 172.85M52.874998 180.35L60.374998 172.85M60.374998 180.35L67.874998 172.85M67.874998 180.35L75.374998 172.85M75.374998 180.35L82.874998 172.85M82.874998 180.35L90.374998 172.85M90.374998 180.35L97.874998 172.85M97.874998 180.35L105.375 172.85M105.375 180.35L112.875 172.85M112.875 180.35L120.375 172.85M120.375 180.35L127.875 172.85M127.875 180.35L135.375 172.85M135.375 180.35L142.875 172.85M142.875 180.35L150.375 172.85M150.375 180.35L157.875 172.85M157.875 180.35L165.375 172.85M165.375 172.85L172.875 180.35M172.875 180.35L180.375 172.85M180.375 172.85L187.875 180.35M187.875 172.85L195.375 180.35M195.375 172.85L202.875 180.35M202.875 180.35L210.375 172.85M210.375 180.35L217.875 172.85M217.875 180.35L225.375 172.85M225.375 180.35L232.875 172.85M232.875 180.35L240.375 172.85M240.375 180.35L247.875 172.85M247.875 180.35L255.375 172.85M255.375 180.35L262.875 172.85M262.875 180.35L270.375 172.85M270.375 180.35L277.875 172.85M277.875 180.35L285.375 172.85M.3749982 172.85L7.8749982 165.35M7.8749982 172.85L15.374998 165.35M15.374998 172.85L22.874998 165.35M22.874998 172.85L30.374998 165.35M30.374998 172.85L37.874998 165.35M37.874998 172.85L45.374998 165.35M45.374998 172.85L52.874998 165.35M52.874998 172.85L60.374998 165.35M60.374998 172.85L67.874998 165.35M67.874998 172.85L75.374998 165.35M75.374998 172.85L82.874998 165.35M82.874998 165.35L90.374998 172.85M90.374998 172.85L97.874998 165.35M97.874998 172.85L105.375 165.35M105.375 172.85L112.875 165.35M112.875 172.85L120.375 165.35M120.375 172.85L127.875 165.35M127.875 172.85L135.375 165.35M135.375 172.85L142.875 165.35M142.875 172.85L150.375 165.35M150.375 172.85L157.875 165.35M157.875 172.85L165.375 165.35M165.375 172.85L172.875 165.35M172.875 172.85L180.375 165.35M180.375 172.85L187.875 165.35M187.875 172.85L195.375 165.35M195.375 172.85L202.875 165.35M202.875 172.85L210.375 165.35M210.375 172.85L217.875 165.35M217.875 172.85L225.375 165.35M225.375 172.85L232.875 165.35M232.875 172.85L240.375 165.35M240.375 172.85L247.875 165.35M247.875 172.85L255.375 165.35M255.375 172.85L262.875 165.35M262.875 172.85L270.375 165.35M270.375 172.85L277.875 165.35M277.875 172.85L285.375 165.35M.3749982 165.35L7.8749982 157.85M7.8749982 157.85L15.374998 165.35M15.374998 165.35L22.874998 157.85M22.874998 165.35L30.374998 157.85M30.374998 165.35L37.874998 157.85M37.874998 165.35L45.374998 157.85M45.374998 165.35L52.874998 157.85M52.874998 165.35L60.374998 157.85M60.374998 165.35L67.874998 157.85M67.874998 165.35L75.374998 157.85M75.374998 165.35L82.874998 157.85M82.874998 165.35L90.374998 157.85M90.374998 165.35L97.874998 157.85M97.874998 165.35L105.375 157.85M105.375 165.35L112.875 157.85M112.875 165.35L120.375 157.85M120.375 165.35L127.875 157.85M127.875 165.35L135.375 157.85M135.375 165.35L142.875 157.85M142.875 165.35L150.375 157.85M150.375 165.35L157.875 157.85M157.875 165.35L165.375 157.85M165.375 165.35L172.875 157.85M172.875 165.35L180.375 157.85M180.375 165.35L187.875 157.85M187.875 165.35L195.375 157.85M195.375 165.35L202.875 157.85M202.875 165.35L210.375 157.85M210.375 165.35L217.875 157.85M217.875 165.35L225.375 157.85M225.375 165.35L232.875 157.85M232.875 165.35L240.375 157.85M240.375 165.35L247.875 157.85M247.875 165.35L255.375 157.85M255.375 165.35L262.875 157.85M262.875 165.35L270.375 157.85M270.375 165.35L277.875 157.85M277.875 165.35L285.375 157.85M.3749982 157.85L7.8749982 150.35M7.8749982 157.85L15.374998 150.35M15.374998 157.85L22.874998 150.35M22.874998 157.85L30.374998 150.35M30.374998 157.85L37.874998 150.35M37.874998 157.85L45.374998 150.35M45.374998 157.85L52.874998 150.35M52.874998 157.85L60.374998 150.35M60.374998 157.85L67.874998 150.35M67.874998 157.85L75.374998 150.35M75.374998 157.85L82.874998 150.35M82.874998 157.85L90.374998 150.35M90.374998 157.85L97.874998 150.35M97.874998 157.85L105.375 150.35M105.375 157.85L112.875 150.35M112.875 150.35L120.375 157.85M120.375 150.35L127.875 157.85M127.875 157.85L135.375 150.35M135.375 157.85L142.875 150.35M142.875 157.85L150.375 150.35M150.375 157.85L157.875 150.35M157.875 157.85L165.375 150.35M165.375 157.85L172.875 150.35M172.875 157.85L180.375 150.35M180.375 157.85L187.875 150.35M187.875 157.85L195.375 150.35M195.375 157.85L202.875 150.35M202.875 157.85L210.375 150.35M210.375 157.85L217.875 150.35M217.875 157.85L225.375 150.35M225.375 157.85L232.875 150.35M232.875 157.85L240.375 150.35M240.375 157.85L247.875 150.35M247.875 157.85L255.375 150.35M255.375 157.85L262.875 150.35M262.875 157.85L270.375 150.35M270.375 157.85L277.875 150.35M277.875 157.85L285.375 150.35M.3749982 150.35L7.8749982 142.85M7.8749982 150.35L15.374998 142.85M15.374998 150.35L22.874998 142.85M22.874998 150.35L30.374998 142.85M30.374998 142.85L37.874998 150.35M37.874998 142.85L45.374998 150.35M45.374998 150.35L52.874998 142.85M52.874998 150.35L60.374998 142.85M60.374998 150.35L67.874998 142.85M67.874998 150.35L75.374998 142.85M75.374998 150.35L82.874998 142.85M82.874998 150.35L90.374998 142.85M90.374998 150.35L97.874998 142.85M97.874998 150.35L105.375 142.85M105.375 150.35L112.875 142.85M112.875 150.35L120.375 142.85M120.375 150.35L127.875 142.85M127.875 150.35L135.375 142.85M135.375 150.35L142.875 142.85M142.875 150.35L150.375 142.85M150.375 150.35L157.875 142.85M157.875 150.35L165.375 142.85M165.375 150.35L172.875 142.85M172.875 150.35L180.375 142.85M180.375 150.35L187.875 142.85M187.875 150.35L195.375 142.85M195.375 150.35L202.875 142.85M202.875 150.35L210.375 142.85M210.375 150.35L217.875 142.85M217.875 150.35L225.375 142.85M225.375 150.35L232.875 142.85M232.875 150.35L240.375 142.85M240.375 150.35L247.875 142.85M247.875 150.35L255.375 142.85M255.375 150.35L262.875 142.85M262.875 150.35L270.375 142.85M270.375 150.35L277.875 142.85M277.875 150.35L285.375 142.85M.3749982 142.85L7.8749982 135.35M7.8749982 142.85L15.374998 135.35M15.374998 142.85L22.874998 135.35M22.874998 142.85L30.374998 135.35M30.374998 142.85L37.874998 135.35M37.874998 142.85L45.374998 135.35M45.374998 142.85L52.874998 135.35M52.874998 142.85L60.374998 135.35M60.374998 142.85L67.874998 135.35M67.874998 142.85L75.374998 135.35M75.374998 142.85L82.874998 135.35M82.874998 142.85L90.374998 135.35M90.374998 142.85L97.874998 135.35M97.874998 142.85L105.375 135.35M105.375 142.85L112.875 135.35M112.875 142.85L120.375 135.35M120.375 142.85L127.875 135.35M127.875 142.85L135.375 135.35M135.375 142.85L142.875 135.35M142.875 142.85L150.375 135.35M150.375 142.85L157.875 135.35M157.875 142.85L165.375 135.35M165.375 142.85L172.875 135.35M172.875 142.85L180.375 135.35M180.375 142.85L187.875 135.35M187.875 142.85L195.375 135.35M195.375 142.85L202.875 135.35M202.875 142.85L210.375 135.35M210.375 135.35L217.875 142.85M217.875 142.85L225.375 135.35M225.375 142.85L232.875 135.35M232.875 135.35L240.375 142.85M240.375 135.35L247.875 142.85M247.875 142.85L255.375 135.35M255.375 142.85L262.875 135.35M262.875 142.85L270.375 135.35M270.375 142.85L277.875 135.35M277.875 142.85L285.375 135.35M.3749982 135.35L7.8749982 127.85M7.8749982 135.35L15.374998 127.85M15.374998 135.35L22.874998 127.85M22.874998 135.35L30.374998 127.85M30.374998 135.35L37.874998 127.85M37.874998 135.35L45.374998 127.85M45.374998 135.35L52.874998 127.85M52.874998 135.35L60.374998 127.85M60.374998 135.35L67.874998 127.85M67.874998 135.35L75.374998 127.85M75.374998 135.35L82.874998 127.85M82.874998 135.35L90.374998 127.85M90.374998 135.35L97.874998 127.85M97.874998 135.35L105.375 127.85M105.375 135.35L112.875 127.85M112.875 135.35L120.375 127.85M120.375 135.35L127.875 127.85M127.875 127.85L135.375 135.35M135.375 127.85L142.875 135.35M142.875 127.85L150.375 135.35M150.375 135.35L157.875 127.85M157.875 127.85L165.375 135.35M165.375 127.85L172.875 135.35M172.875 135.35L180.375 127.85M180.375 135.35L187.875 127.85M187.875 135.35L195.375 127.85M195.375 135.35L202.875 127.85M202.875 135.35L210.375 127.85M210.375 135.35L217.875 127.85M217.875 135.35L225.375 127.85M225.375 135.35L232.875 127.85M232.875 135.35L240.375 127.85M240.375 135.35L247.875 127.85M247.875 135.35L255.375 127.85M255.375 135.35L262.875 127.85M262.875 135.35L270.375 127.85M270.375 135.35L277.875 127.85M277.875 135.35L285.375 127.85M.3749982 127.85L7.8749982 120.35M7.8749982 127.85L15.374998 120.35M15.374998 127.85L22.874998 120.35M22.874998 127.85L30.374998 120.35M30.374998 127.85L37.874998 120.35M37.874998 127.85L45.374998 120.35M45.374998 127.85L52.874998 120.35M52.874998 120.35L60.374998 127.85M60.374998 120.35L67.874998 127.85M67.874998 120.35L75.374998 127.85M75.374998 120.35L82.874998 127.85M82.874998 120.35L90.374998 127.85M90.374998 127.85L97.874998 120.35M97.874998 127.85L105.375 120.35M105.375 127.85L112.875 120.35M112.875 127.85L120.375 120.35M120.375 127.85L127.875 120.35M127.875 127.85L135.375 120.35M135.375 127.85L142.875 120.35M142.875 127.85L150.375 120.35M150.375 127.85L157.875 120.35M157.875 127.85L165.375 120.35M165.375 127.85L172.875 120.35M172.875 127.85L180.375 120.35M180.375 127.85L187.875 120.35M187.875 127.85L195.375 120.35M195.375 127.85L202.875 120.35M202.875 127.85L210.375 120.35M210.375 127.85L217.875 120.35M217.875 127.85L225.375 120.35M225.375 127.85L232.875 120.35M232.875 127.85L240.375 120.35M240.375 127.85L247.875 120.35M247.875 127.85L255.375 120.35M255.375 127.85L262.875 120.35M262.875 120.35L270.375 127.85M270.375 127.85L277.875 120.35M277.875 127.85L285.375 120.35M.3749982 120.35L7.8749982 112.85M7.8749982 120.35L15.374998 112.85M15.374998 120.35L22.874998 112.85M22.874998 120.35L30.374998 112.85M30.374998 120.35L37.874998 112.85M37.874998 120.35L45.374998 112.85M45.374998 120.35L52.874998 112.85M52.874998 120.35L60.374998 112.85M60.374998 120.35L67.874998 112.85M67.874998 120.35L75.374998 112.85M75.374998 120.35L82.874998 112.85M82.874998 120.35L90.374998 112.85M90.374998 120.35L97.874998 112.85M97.874998 120.35L105.375 112.85M105.375 120.35L112.875 112.85M112.875 120.35L120.375 112.85M120.375 112.85L127.875 120.35M127.875 120.35L135.375 112.85M135.375 120.35L142.875 112.85M142.875 120.35L150.375 112.85M150.375 120.35L157.875 112.85M157.875 120.35L165.375 112.85M165.375 120.35L172.875 112.85M172.875 120.35L180.375 112.85M180.375 120.35L187.875 112.85M187.875 120.35L195.375 112.85M195.375 120.35L202.875 112.85M202.875 120.35L210.375 112.85M210.375 120.35L217.875 112.85M217.875 120.35L225.375 112.85M225.375 120.35L232.875 112.85M232.875 120.35L240.375 112.85M240.375 120.35L247.875 112.85M247.875 120.35L255.375 112.85M255.375 120.35L262.875 112.85M262.875 120.35L270.375 112.85M270.375 120.35L277.875 112.85M277.875 120.35L285.375 112.85M.3749982 112.85L7.8749982 105.35M7.8749982 112.85L15.374998 105.35M15.374998 112.85L22.874998 105.35M22.874998 112.85L30.374998 105.35M30.374998 112.85L37.874998 105.35M37.874998 112.85L45.374998 105.35M45.374998 112.85L52.874998 105.35M52.874998 112.85L60.374998 105.35M60.374998 112.85L67.874998 105.35M67.874998 112.85L75.374998 105.35M75.374998 112.85L82.874998 105.35M82.874998 112.85L90.374998 105.35M90.374998 112.85L97.874998 105.35M97.874998 112.85L105.375 105.35M105.375 112.85L112.875 105.35M112.875 112.85L120.375 105.35M120.375 112.85L127.875 105.35M127.875 112.85L135.375 105.35M135.375 112.85L142.875 105.35M142.875 112.85L150.375 105.35M150.375 112.85L157.875 105.35M157.875 112.85L165.375 105.35M165.375 112.85L172.875 105.35M172.875 112.85L180.375 105.35M180.375 112.85L187.875 105.35M187.875 112.85L195.375 105.35M195.375 112.85L202.875 105.35M202.875 112.85L210.375 105.35M210.375 112.85L217.875 105.35M217.875 112.85L225.375 105.35M225.375 112.85L232.875 105.35M232.875 112.85L240.375 105.35M240.375 112.85L247.875 105.35M247.875 112.85L255.375 105.35M255.375 112.85L262.875 105.35M262.875 105.35L270.375 112.85M270.375 105.35L277.875 112.85M277.875 105.35L285.375 112.85M.3749982 105.35L7.8749982 97.849999M7.8749982 105.35L15.374998 97.849999M15.374998 105.35L22.874998 97.849999M22.874998 105.35L30.374998 97.849999M30.374998 105.35L37.874998 97.849999M37.874998 105.35L45.374998 97.849999M45.374998 105.35L52.874998 97.849999M52.874998 105.35L60.374998 97.849999M60.374998 105.35L67.874998 97.849999M67.874998 105.35L75.374998 97.849999M75.374998 105.35L82.874998 97.849999M82.874998 105.35L90.374998 97.849999M90.374998 105.35L97.874998 97.849999M97.874998 105.35L105.375 97.849999M105.375 105.35L112.875 97.849999M112.875 105.35L120.375 97.849999M120.375 105.35L127.875 97.849999M127.875 105.35L135.375 97.849999M135.375 105.35L142.875 97.849999M142.875 105.35L150.375 97.849999M150.375 105.35L157.875 97.849999M157.875 105.35L165.375 97.849999M165.375 105.35L172.875 97.849999M172.875 105.35L180.375 97.849999M180.375 105.35L187.875 97.849999M187.875 105.35L195.375 97.849999M195.375 105.35L202.875 97.849999M202.875 105.35L210.375 97.849999M210.375 105.35L217.875 97.849999M217.875 105.35L225.375 97.849999M225.375 105.35L232.875 97.849999M232.875 105.35L240.375 97.849999M240.375 105.35L247.875 97.849999M247.875 105.35L255.375 97.849999M255.375 105.35L262.875 97.849999M262.875 105.35L270.375 97.849999M270.375 105.35L277.875 97.849999M277.875 105.35L285.375 97.849999M.3749982 97.849999L7.8749982 90.349999M7.8749982 97.849999L15.374998 90.349999M15.374998 97.849999L22.874998 90.349999M22.874998 97.849999L30.374998 90.349999M30.374998 97.849999L37.874998 90.349999M37.874998 97.849999L45.374998 90.349999M45.374998 97.849999L52.874998 90.349999M52.874998 97.849999L60.374998 90.349999M60.374998 97.849999L67.874998 90.349999M67.874998 97.849999L75.374998 90.349999M75.374998 97.849999L82.874998 90.349999M82.874998 97.849999L90.374998 90.349999M90.374998 97.849999L97.874998 90.349999M97.874998 97.849999L105.375 90.349999M105.375 97.849999L112.875 90.349999M112.875 97.849999L120.375 90.349999M120.375 97.849999L127.875 90.349999M127.875 97.849999L135.375 90.349999M135.375 97.849999L142.875 90.349999M142.875 97.849999L150.375 90.349999M150.375 97.849999L157.875 90.349999M157.875 97.849999L165.375 90.349999M165.375 97.849999L172.875 90.349999M172.875 97.849999L180.375 90.349999M180.375 97.849999L187.875 90.349999M187.875 97.849999L195.375 90.349999M195.375 97.849999L202.875 90.349999M202.875 97.849999L210.375 90.349999M210.375 97.849999L217.875 90.349999M217.875 97.849999L225.375 90.349999M225.375 97.849999L232.875 90.349999M232.875 97.849999L240.375 90.349999M240.375 97.849999L247.875 90.349999M247.875 97.849999L255.375 90.349999M255.375 97.849999L262.875 90.349999M262.875 97.849999L270.375 90.349999M270.375 97.849999L277.875 90.349999M277.875 97.849999L285.375 90.349999M.3749982 90.349999L7.8749982 82.849999M7.8749982 90.349999L15.374998 82.849999M15.374998 90.349999L22.874998 82.849999M22.874998 90.349999L30.374998 82.849999M30.374998 90.349999L37.874998 82.849999M37.874998 90.349999L45.374998 82.849999M45.374998 90.349999L52.874998 82.849999M52.874998 90.349999L60.374998 82.849999M60.374998 90.349999L67.874998 82.849999M67.874998 90.349999L75.374998 82.849999M75.374998 90.349999L82.874998 82.849999M82.874998 90.349999L90.374998 82.849999M90.374998 90.349999L97.874998 82.849999M97.874998 90.349999L105.375 82.849999M105.375 90.349999L112.875 82.849999M112.875 90.349999L120.375 82.849999M120.375 90.349999L127.875 82.849999M127.875 90.349999L135.375 82.849999M135.375 90.349999L142.875 82.849999M142.875 90.349999L150.375 82.849999M150.375 90.349999L157.875 82.849999M157.875 90.349999L165.375 82.849999M165.375 90.349999L172.875 82.849999M172.875 90.349999L180.375 82.849999M180.375 90.349999L187.875 82.849999M187.875 90.349999L195.375 82.849999M195.375 90.349999L202.875 82.849999M202.875 90.349999L210.375 82.849999M210.375 90.349999L217.875 82.849999M217.875 90.349999L225.375 82.849999M225.375 90.349999L232.875 82.849999M232.875 90.349999L240.375 82.849999M240.375 90.349999L247.875 82.849999M247.875 90.349999L255.375 82.849999M255.375 90.349999L262.875 82.849999M262.875 90.349999L270.375 82.849999M270.375 90.349999L277.875 82.849999M277.875 90.349999L285.375 82.849999M.3749982 82.849999L7.8749982 75.349999M7.8749982 82.849999L15.374998 75.349999M15.374998 82.849999L22.874998 75.349999M22.874998 82.849999L30.374998 75.349999M30.374998 82.849999L37.874998 75.349999M37.874998 82.849999L45.374998 75.349999M45.374998 82.849999L52.874998 75.349999M52.874998 82.849999L60.374998 75.349999M60.374998 82.849999L67.874998 75.349999M67.874998 82.849999L75.374998 75.349999M75.374998 82.849999L82.874998 75.349999M82.874998 82.849999L90.374998 75.349999M90.374998 82.849999L97.874998 75.349999M97.874998 82.849999L105.375 75.349999M105.375 75.349999L112.875 82.849999M112.875 82.849999L120.375 75.349999M120.375 82.849999L127.875 75.349999M127.875 82.849999L135.375 75.349999M135.375 82.849999L142.875 75.349999M142.875 82.849999L150.375 75.349999M150.375 82.849999L157.875 75.349999M157.875 82.849999L165.375 75.349999M165.375 82.849999L172.875 75.349999M172.875 82.849999L180.375 75.349999M180.375 82.849999L187.875 75.349999M187.875 82.849999L195.375 75.349999M195.375 82.849999L202.875 75.349999M202.875 82.849999L210.375 75.349999M210.375 82.849999L217.875 75.349999M217.875 82.849999L225.375 75.349999M225.375 82.849999L232.875 75.349999M232.875 82.849999L240.375 75.349999M240.375 82.849999L247.875 75.349999M247.875 82.849999L255.375 75.349999M255.375 82.849999L262.875 75.349999M262.875 82.849999L270.375 75.349999M270.375 82.849999L277.875 75.349999M277.875 82.849999L285.375 75.349999M.3749982 75.349999L7.8749982 67.849999M7.8749982 75.349999L15.374998 67.849999M15.374998 75.349999L22.874998 67.849999M22.874998 75.349999L30.374998 67.849999M30.374998 75.349999L37.874998 67.849999M37.874998 75.349999L45.374998 67.849999M45.374998 75.349999L52.874998 67.849999M52.874998 67.849999L60.374998 75.349999M60.374998 67.849999L67.874998 75.349999M67.874998 75.349999L75.374998 67.849999M75.374998 75.349999L82.874998 67.849999M82.874998 75.349999L90.374998 67.849999M90.374998 75.349999L97.874998 67.849999M97.874998 75.349999L105.375 67.849999M105.375 75.349999L112.875 67.849999M112.875 75.349999L120.375 67.849999M120.375 75.349999L127.875 67.849999M127.875 75.349999L135.375 67.849999M135.375 75.349999L142.875 67.849999M142.875 75.349999L150.375 67.849999M150.375 75.349999L157.875 67.849999M157.875 75.349999L165.375 67.849999M165.375 75.349999L172.875 67.849999M172.875 75.349999L180.375 67.849999M180.375 75.349999L187.875 67.849999M187.875 75.349999L195.375 67.849999M195.375 75.349999L202.875 67.849999M202.875 75.349999L210.375 67.849999M210.375 75.349999L217.875 67.849999M217.875 75.349999L225.375 67.849999M225.375 75.349999L232.875 67.849999M232.875 75.349999L240.375 67.849999M240.375 75.349999L247.875 67.849999M247.875 75.349999L255.375 67.849999M255.375 67.849999L262.875 75.349999M262.875 75.349999L270.375 67.849999M270.375 75.349999L277.875 67.849999M277.875 75.349999L285.375 67.849999M.3749982 67.849999L7.8749982 60.349999M7.8749982 67.849999L15.374998 60.349999M15.374998 67.849999L22.874998 60.349999M22.874998 67.849999L30.374998 60.349999M30.374998 67.849999L37.874998 60.349999M37.874998 67.849999L45.374998 60.349999M45.374998 67.849999L52.874998 60.349999M52.874998 67.849999L60.374998 60.349999M60.374998 67.849999L67.874998 60.349999M67.874998 67.849999L75.374998 60.349999M75.374998 67.849999L82.874998 60.349999M82.874998 67.849999L90.374998 60.349999M90.374998 67.849999L97.874998 60.349999M97.874998 67.849999L105.375 60.349999M105.375 67.849999L112.875 60.349999M112.875 67.849999L120.375 60.349999M120.375 67.849999L127.875 60.349999M127.875 67.849999L135.375 60.349999M135.375 67.849999L142.875 60.349999M142.875 67.849999L150.375 60.349999M150.375 60.349999L157.875 67.849999M157.875 67.849999L165.375 60.349999M165.375 60.349999L172.875 67.849999M172.875 67.849999L180.375 60.349999M180.375 67.849999L187.875 60.349999M187.875 67.849999L195.375 60.349999M195.375 67.849999L202.875 60.349999M202.875 67.849999L210.375 60.349999M210.375 67.849999L217.875 60.349999M217.875 67.849999L225.375 60.349999M225.375 67.849999L232.875 60.349999M232.875 67.849999L240.375 60.349999M240.375 67.849999L247.875 60.349999M247.875 67.849999L255.375 60.349999M255.375 67.849999L262.875 60.349999M262.875 67.849999L270.375 60.349999M270.375 67.849999L277.875 60.349999M277.875 67.849999L285.375 60.349999M.3749982 60.349999L7.8749982 52.849999M7.8749982 60.349999L15.374998 52.849999M15.374998 60.349999L22.874998 52.849999M22.874998 60.349999L30.374998 52.849999M30.374998 60.349999L37.874998 52.849999M37.874998 60.349999L45.374998 52.849999M45.374998 60.349999L52.874998 52.849999M52.874998 52.849999L60.374998 60.349999M60.374998 52.849999L67.874998 60.349999M67.874998 60.349999L75.374998 52.849999M75.374998 60.349999L82.874998 52.849999M82.874998 60.349999L90.374998 52.849999M90.374998 60.349999L97.874998 52.849999M97.874998 60.349999L105.375 52.849999M105.375 60.349999L112.875 52.849999M112.875 60.349999L120.375 52.849999M120.375 60.349999L127.875 52.849999M127.875 60.349999L135.375 52.849999M135.375 60.349999L142.875 52.849999M142.875 60.349999L150.375 52.849999M150.375 60.349999L157.875 52.849999M157.875 60.349999L165.375 52.849999M165.375 60.349999L172.875 52.849999M172.875 60.349999L180.375 52.849999M180.375 60.349999L187.875 52.849999M187.875 60.349999L195.375 52.849999M195.375 60.349999L202.875 52.849999M202.875 60.349999L210.375 52.849999M210.375 60.349999L217.875 52.849999M217.875 60.349999L225.375 52.849999M225.375 60.349999L232.875 52.849999M232.875 60.349999L240.375 52.849999M240.375 60.349999L247.875 52.849999M247.875 60.349999L255.375 52.849999M255.375 52.849999L262.875 60.349999M262.875 60.349999L270.375 52.849999M270.375 60.349999L277.875 52.849999M277.875 60.349999L285.375 52.849999M.3749982 52.849999L7.8749982 45.349999M7.8749982 52.849999L15.374998 45.349999M15.374998 52.849999L22.874998 45.349999M22.874998 52.849999L30.374998 45.349999M30.374998 52.849999L37.874998 45.349999M37.874998 52.849999L45.374998 45.349999M45.374998 52.849999L52.874998 45.349999M52.874998 52.849999L60.374998 45.349999M60.374998 52.849999L67.874998 45.349999M67.874998 52.849999L75.374998 45.349999M75.374998 52.849999L82.874998 45.349999M82.874998 52.849999L90.374998 45.349999M90.374998 52.849999L97.874998 45.349999M97.874998 52.849999L105.375 45.349999M105.375 52.849999L112.875 45.349999M112.875 52.849999L120.375 45.349999M120.375 52.849999L127.875 45.349999M127.875 52.849999L135.375 45.349999M135.375 52.849999L142.875 45.349999M142.875 52.849999L150.375 45.349999M150.375 52.849999L157.875 45.349999M157.875 52.849999L165.375 45.349999M165.375 52.849999L172.875 45.349999M172.875 52.849999L180.375 45.349999M180.375 52.849999L187.875 45.349999M187.875 52.849999L195.375 45.349999M195.375 52.849999L202.875 45.349999M202.875 52.849999L210.375 45.349999M210.375 52.849999L217.875 45.349999M217.875 52.849999L225.375 45.349999M225.375 52.849999L232.875 45.349999M232.875 52.849999L240.375 45.349999M240.375 52.849999L247.875 45.349999M247.875 52.849999L255.375 45.349999M255.375 52.849999L262.875 45.349999M262.875 52.849999L270.375 45.349999M270.375 52.849999L277.875 45.349999M277.875 52.849999L285.375 45.349999M.3749982 45.349999L7.8749982 37.849999M7.8749982 45.349999L15.374998 37.849999M15.374998 45.349999L22.874998 37.849999M22.874998 45.349999L30.374998 37.849999M30.374998 45.349999L37.874998 37.849999M37.874998 45.349999L45.374998 37.849999M45.374998 45.349999L52.874998 37.849999M52.874998 45.349999L60.374998 37.849999M60.374998 45.349999L67.874998 37.849999M67.874998 45.349999L75.374998 37.849999M75.374998 45.349999L82.874998 37.849999M82.874998 45.349999L90.374998 37.849999M90.374998 45.349999L97.874998 37.849999M97.874998 45.349999L105.375 37.849999M105.375 45.349999L112.875 37.849999M112.875 45.349999L120.375 37.849999M120.375 45.349999L127.875 37.849999M127.875 45.349999L135.375 37.849999M135.375 45.349999L142.875 37.849999M142.875 45.349999L150.375 37.849999M150.375 45.349999L157.875 37.849999M157.875 45.349999L165.375 37.849999M165.375 45.349999L172.875 37.849999M172.875 45.349999L180.375 37.849999M180.375 45.349999L187.875 37.849999M187.875 45.349999L195.375 37.849999M195.375 45.349999L202.875 37.849999M202.875 45.349999L210.375 37.849999M210.375 45.349999L217.875 37.849999M217.875 45.349999L225.375 37.849999M225.375 45.349999L232.875 37.849999M232.875 45.349999L240.375 37.849999M240.375 45.349999L247.875 37.849999M247.875 45.349999L255.375 37.849999M255.375 45.349999L262.875 37.849999M262.875 45.349999L270.375 37.849999M270.375 45.349999L277.875 37.849999M277.875 45.349999L285.375 37.849999M.3749982 37.849999L7.8749982 30.349999M7.8749982 37.849999L15.374998 30.349999M15.374998 37.849999L22.874998 30.349999M22.874998 37.849999L30.374998 30.349999M30.374998 37.849999L37.874998 30.349999M37.874998 37.849999L45.374998 30.349999M45.374998 37.849999L52.874998 30.349999M52.874998 37.849999L60.374998 30.349999M60.374998 37.849999L67.874998 30.349999M67.874998 37.849999L75.374998 30.349999M75.374998 37.849999L82.874998 30.349999M82.874998 37.849999L90.374998 30.349999M90.374998 37.849999L97.874998 30.349999M97.874998 37.849999L105.375 30.349999M105.375 37.849999L112.875 30.349999M112.875 37.849999L120.375 30.349999M120.375 37.849999L127.875 30.349999M127.875 37.849999L135.375 30.349999M135.375 37.849999L142.875 30.349999M142.875 37.849999L150.375 30.349999M150.375 37.849999L157.875 30.349999M157.875 37.849999L165.375 30.349999M165.375 37.849999L172.875 30.349999M172.875 37.849999L180.375 30.349999M180.375 37.849999L187.875 30.349999M187.875 37.849999L195.375 30.349999M195.375 37.849999L202.875 30.349999M202.875 37.849999L210.375 30.349999M210.375 37.849999L217.875 30.349999M217.875 37.849999L225.375 30.349999M225.375 37.849999L232.875 30.349999M232.875 37.849999L240.375 30.349999M240.375 37.849999L247.875 30.349999M247.875 37.849999L255.375 30.349999M255.375 37.849999L262.875 30.349999M262.875 37.849999L270.375 30.349999M270.375 37.849999L277.875 30.349999M277.875 37.849999L285.375 30.349999M.3749982 30.349999L7.8749982 22.849999M7.8749982 30.349999L15.374998 22.849999M15.374998 30.349999L22.874998 22.849999M22.874998 30.349999L30.374998 22.849999M30.374998 30.349999L37.874998 22.849999M37.874998 30.349999L45.374998 22.849999M45.374998 30.349999L52.874998 22.849999M52.874998 30.349999L60.374998 22.849999M60.374998 30.349999L67.874998 22.849999M67.874998 30.349999L75.374998 22.849999M75.374998 30.349999L82.874998 22.849999M82.874998 30.349999L90.374998 22.849999M90.374998 30.349999L97.874998 22.849999M97.874998 30.349999L105.375 22.849999M105.375 30.349999L112.875 22.849999M112.875 30.349999L120.375 22.849999M120.375 30.349999L127.875 22.849999M127.875 30.349999L135.375 22.849999M135.375 30.349999L142.875 22.849999M142.875 30.349999L150.375 22.849999M150.375 30.349999L157.875 22.849999M157.875 30.349999L165.375 22.849999M165.375 30.349999L172.875 22.849999M172.875 30.349999L180.375 22.849999M180.375 30.349999L187.875 22.849999M187.875 30.349999L195.375 22.849999M195.375 30.349999L202.875 22.849999M202.875 30.349999L210.375 22.849999M210.375 30.349999L217.875 22.849999M217.875 30.349999L225.375 22.849999M225.375 30.349999L232.875 22.849999M232.875 30.349999L240.375 22.849999M240.375 30.349999L247.875 22.849999M247.875 30.349999L255.375 22.849999M255.375 30.349999L262.875 22.849999M262.875 30.349999L270.375 22.849999M270.375 30.349999L277.875 22.849999M277.875 30.349999L285.375 22.849999M.3749982 15.349999L7.8749982 22.849999M7.8749982 22.849999L15.374998 15.349999M15.374998 22.849999L22.874998 15.349999M22.874998 22.849999L30.374998 15.349999M30.374998 22.849999L37.874998 15.349999M37.874998 22.849999L45.374998 15.349999M45.374998 22.849999L52.874998 15.349999M52.874998 22.849999L60.374998 15.349999M60.374998 22.849999L67.874998 15.349999M67.874998 22.849999L75.374998 15.349999M75.374998 22.849999L82.874998 15.349999M82.874998 22.849999L90.374998 15.349999M90.374998 22.849999L97.874998 15.349999M97.874998 22.849999L105.375 15.349999M105.375 22.849999L112.875 15.349999M112.875 22.849999L120.375 15.349999M120.375 22.849999L127.875 15.349999M127.875 22.849999L135.375 15.349999M135.375 22.849999L142.875 15.349999M142.875 22.849999L150.375 15.349999M150.375 22.849999L157.875 15.349999M157.875 22.849999L165.375 15.349999M165.375 22.849999L172.875 15.349999M172.875 22.849999L180.375 15.349999M180.375 22.849999L187.875 15.349999M187.875 22.849999L195.375 15.349999M195.375 22.849999L202.875 15.349999M202.875 22.849999L210.375 15.349999M210.375 22.849999L217.875 15.349999M217.875 22.849999L225.375 15.349999M225.375 15.349999L232.875 22.849999M232.875 22.849999L240.375 15.349999M240.375 22.849999L247.875 15.349999M247.875 22.849999L255.375 15.349999M255.375 22.849999L262.875 15.349999M262.875 22.849999L270.375 15.349999M270.375 22.849999L277.875 15.349999M277.875 22.849999L285.375 15.349999M.3749982 15.349999L7.8749982 7.8499987M7.8749982 15.349999L15.374998 7.8499987M15.374998 15.349999L22.874998 7.8499987M22.874998 15.349999L30.374998 7.8499987M30.374998 15.349999L37.874998 7.8499987M37.874998 7.8499987L45.374998 15.349999M45.374998 15.349999L52.874998 7.8499987M52.874998 15.349999L60.374998 7.8499987M60.374998 15.349999L67.874998 7.8499987M67.874998 15.349999L75.374998 7.8499987M75.374998 15.349999L82.874998 7.8499987M82.874998 15.349999L90.374998 7.8499987M90.374998 15.349999L97.874998 7.8499987M97.874998 15.349999L105.375 7.8499987M105.375 15.349999L112.875 7.8499987M112.875 15.349999L120.375 7.8499987M120.375 15.349999L127.875 7.8499987M127.875 15.349999L135.375 7.8499987M135.375 15.349999L142.875 7.8499987M142.875 15.349999L150.375 7.8499987M150.375 15.349999L157.875 7.8499987M157.875 15.349999L165.375 7.8499987M165.375 15.349999L172.875 7.8499987M172.875 15.349999L180.375 7.8499987M180.375 15.349999L187.875 7.8499987M187.875 15.349999L195.375 7.8499987M195.375 15.349999L202.875 7.8499987M202.875 15.349999L210.375 7.8499987M210.375 15.349999L217.875 7.8499987M217.875 15.349999L225.375 7.8499987M225.375 15.349999L232.875 7.8499987M232.875 15.349999L240.375 7.8499987M240.375 15.349999L247.875 7.8499987M247.875 15.349999L255.375 7.8499987M255.375 15.349999L262.875 7.8499987M262.875 15.349999L270.375 7.8499987M270.375 15.349999L277.875 7.8499987M277.875 15.349999L285.375 7.8499987M.3749982 7.8499987L7.8749982 .34999872M7.8749982 7.8499987L15.374998 .34999872M15.374998 7.8499987L22.874998 .34999872M22.874998 7.8499987L30.374998 .34999872M30.374998 7.8499987L37.874998 .34999872M37.874998 7.8499987L45.374998 .34999872M45.374998 7.8499987L52.874998 .34999872M52.874998 7.8499987L60.374998 .34999872M60.374998 7.8499987L67.874998 .34999872M67.874998 .34999872L75.374998 7.8499987M75.374998 7.8499987L82.874998 .34999872M82.874998 7.8499987L90.374998 .34999872M90.374998 7.8499987L97.874998 .34999872M97.874998 7.8499987L105.375 .34999872M105.375 7.8499987L112.875 .34999872M112.875 7.8499987L120.375 .34999872M120.375 7.8499987L127.875 .34999872M127.875 7.8499987L135.375 .34999872M135.375 7.8499987L142.875 .34999872M142.875 7.8499987L150.375 .34999872M150.375 7.8499987L157.875 .34999872M157.875 7.8499987L165.375 .34999872M165.375 7.8499987L172.875 .34999872M172.875 7.8499987L180.375 .34999872M180.375 7.8499987L187.875 .34999872M187.875 7.8499987L195.375 .34999872M195.375 7.8499987L202.875 .34999872M202.875 7.8499987L210.375 .34999872M210.375 7.8499987L217.875 .34999872M217.875 7.8499987L225.375 .34999872M225.375 7.8499987L232.875 .34999872M232.875 7.8499987L240.375 .34999872M240.375 7.8499987L247.875 .34999872M247.875 7.8499987L255.375 .34999872M255.375 7.8499987L262.875 .34999872M262.875 .34999872L270.375 7.8499987M270.375 .34999872L277.875 7.8499987M277.875 7.8499987L285.375 .34999872" style="fill:none;stroke:#fff;stroke-width:.5"/></svg>